<!-- Asset_2 -->
<svg xmlns="http://www.w3.org/2000/svg" width="200" height="110">
  <g transform="translate(0 -0)">
    <g>
      <path d="M 196.168 91.813 L 196.168 91.867 C 196.092 93.353 195.892 94.831 195.569 96.284 C 193.94 103.613 189.692 108.296 188.632 109.43 C 188.489 109.584 188.401 109.672 188.39 109.695 C 183.786 109.695 154.024 109.7 120.109 109.691 C 110.967 109.691 101.524 109.685 92.189 109.679 L 79.579 109.671 L 70.614 109.664 C 59.432 109.655 48.93 109.642 39.924 109.626 C 35.102 109.617 30.71 109.608 26.869 109.596 C 16.643 109.567 10.342 109.531 10.325 109.483 L 10.314 109.45 C 10.309 109.445 10.305 109.438 10.304 109.43 C 10.302 109.422 10.298 109.414 10.292 109.407 C 10.265 109.344 4.374 101.219 2.622 90.072 C 2.189 87.368 2.047 84.626 2.196 81.893 L 2.196 81.848 C 2.801 71.353 8.132 59.518 24.424 49.475 C 39.992 39.868 23.443 33.527 35.821 22.827 C 50.05 10.549 65.585 24.14 81.41 18.567 C 84.198 17.578 87.008 16.001 89.818 13.574 C 91.41 12.201 93.14 10.997 94.981 9.981 C 95.275 9.814 95.55 9.658 95.84 9.514 C 96.963 8.931 98.117 8.407 99.296 7.946 C 100.087 7.634 100.901 7.345 101.726 7.078 C 103.052 6.642 104.4 6.275 105.763 5.978 C 107.749 5.531 109.76 5.2 111.785 4.987 C 112.677 4.886 113.581 4.808 114.495 4.753 C 131.241 3.7 149.98 9.265 160.638 17.629 C 161.229 18.092 161.795 18.564 162.335 19.045 C 162.555 19.244 162.867 19.534 163.232 19.909 C 165.719 22.465 170.785 28.971 168.693 37.769 C 168.507 38.549 168.274 39.317 167.996 40.069 C 167.552 41.262 167.013 42.417 166.382 43.523 C 165.346 45.357 165.5 47.16 166.438 48.984 L 166.449 48.995 C 166.498 49.093 166.551 49.191 166.61 49.289 C 166.814 49.645 167.036 49.99 167.277 50.323 C 167.418 50.521 167.568 50.718 167.726 50.915 L 167.846 51.062 C 167.926 51.161 168.009 51.259 168.093 51.355 C 168.161 51.435 168.229 51.513 168.299 51.592 C 168.369 51.671 168.439 51.751 168.512 51.831 C 168.585 51.91 168.659 51.988 168.732 52.067 C 168.806 52.147 168.879 52.226 168.957 52.306 C 169.035 52.386 169.111 52.464 169.189 52.543 C 169.267 52.623 169.346 52.702 169.426 52.781 C 170.772 54.113 171.143 55.793 171.492 57.757 C 171.628 58.521 171.76 59.33 171.946 60.177 C 171.954 60.214 171.963 60.25 171.971 60.29 C 172.136 61.042 172.347 61.784 172.602 62.51 C 172.615 62.547 172.629 62.583 172.643 62.624 C 172.897 63.329 173.203 64.015 173.556 64.677 C 173.59 64.742 173.626 64.808 173.663 64.873 C 173.69 64.925 173.719 64.976 173.749 65.028 L 173.814 65.142 C 173.851 65.207 173.888 65.271 173.928 65.336 C 173.943 65.362 173.96 65.39 173.977 65.417 C 174.245 65.862 174.547 66.314 174.888 66.771 C 175.035 66.972 175.192 67.175 175.358 67.378 C 176.24 68.464 177.343 69.584 178.735 70.731 C 180.573 72.243 182.915 73.803 185.919 75.402 C 186.397 75.656 186.858 75.914 187.301 76.176 C 191.477 78.636 194.094 81.37 195.03 84.455 C 195.163 84.891 195.386 85.742 195.601 86.765 C 195.932 88.342 196.242 90.314 196.168 91.813 Z" fill="rgb(235,243,250)"></path>
      <path d="M 196.16 91.813 C 196.16 91.832 196.16 91.85 196.165 91.868 C 196.089 93.355 195.889 94.833 195.566 96.286 L 187.301 97.579 L 185.596 97.846 L 184.625 97.998 L 177.901 99.05 L 177.299 99.144 L 175.947 99.356 L 175.596 99.411 C 175.596 99.411 175.306 99.444 174.803 99.492 L 174.672 99.505 C 174.338 99.535 173.923 99.571 173.447 99.607 C 173.268 99.621 173.079 99.634 172.886 99.648 L 172.775 99.655 C 172.502 99.673 172.216 99.691 171.918 99.707 C 171.303 99.74 170.64 99.769 169.949 99.785 C 169.681 99.792 169.408 99.797 169.133 99.801 L 168.175 99.801 C 167.915 99.801 167.654 99.795 167.394 99.788 C 167.203 99.784 167.011 99.778 166.821 99.771 C 166.554 99.761 166.289 99.748 166.025 99.733 L 165.904 99.725 C 165.781 99.717 165.658 99.709 165.536 99.7 C 164.93 99.654 164.339 99.592 163.776 99.509 C 163.682 99.495 163.588 99.48 163.496 99.465 C 161.38 99.12 159.728 98.462 159.348 97.285 C 159.002 96.206 159.749 94.671 162.215 92.536 C 162.626 92.181 163.053 91.841 163.497 91.516 C 166.357 89.419 169.879 87.933 173.571 86.883 C 173.724 86.839 173.877 86.796 174.03 86.755 L 174.104 86.735 L 174.229 86.701 L 174.478 86.635 C 174.625 86.596 174.771 86.558 174.915 86.522 C 175.651 86.334 176.39 86.163 177.135 86.008 C 177.321 85.969 177.508 85.93 177.695 85.893 L 177.957 85.841 L 178.137 85.806 L 178.413 85.754 C 181.355 85.212 184.325 84.845 187.31 84.654 C 190.408 84.446 193.119 84.429 195.04 84.462 C 195.26 84.998 195.451 85.814 195.611 86.772 C 195.854 88.279 196.035 90.138 196.16 91.813 Z" fill="rgb(168,210,159)"></path>
      <path d="M 103.365 22.499 C 103.365 22.499 105.743 17.595 111.429 18.14 C 111.429 18.14 119.684 9.966 128.488 17.05 C 128.488 17.05 137.845 15.295 144.775 18.57 C 149.396 20.754 150.921 23.044 150.921 23.044 Z M 95.04 66.134 C 95.04 66.134 98.25 60.584 105.927 61.2 C 105.927 61.2 117.072 51.949 128.957 59.967 C 128.957 59.967 141.591 57.98 150.948 61.687 C 157.185 64.159 159.246 66.747 159.246 66.747 Z" fill="rgb(248,252,255)"></path>
      <path d="M 147.941 41.642 C 147.941 41.642 145.515 37.493 139.715 38.521 C 133.916 39.548 135.461 46.229 132.252 49.369 C 129.043 52.51 126.246 55.309 127.624 59.744 C 129.001 64.178 121.686 65.129 121.707 71.829 C 121.729 78.528 123.291 82.477 132.285 82.998 C 141.278 83.519 155.662 81.149 157.61 78.451 C 159.559 75.753 159.228 69.816 154.34 62.245 C 149.451 54.673 153.918 53.995 150.649 49.611 C 147.379 45.228 149.678 43.448 147.941 41.642 Z" fill="rgb(121,178,127)"></path>
      <path d="M 38.624 34.715 C 38.624 34.715 40.735 31.065 45.782 31.47 C 45.782 31.47 53.111 25.387 60.929 30.659 C 60.929 30.659 69.238 29.352 75.389 31.79 C 79.49 33.415 80.846 35.12 80.846 35.12 Z" fill="rgb(248,252,255)"></path>
      <path d="M 106.13 97.505 L 104.424 97.505 L 104.791 49.246 L 105.657 49.246 Z" fill="rgb(115,154,240)"></path>
      <path d="M 105.118 49.502 L 92.708 60.1 L 87.885 64.219 L 87.521 63.851 L 91.79 59.128 L 98.786 51.391 L 104.314 48.503 Z" fill="rgb(127,170,247)"></path>
      <path d="M 92.708 60.1 L 87.885 64.219 L 87.521 63.851 L 91.79 59.128 Z" fill="rgb(249,151,70)"></path>
      <path d="M 105.96 48.788 L 104.749 49.217 L 98.665 33.747 L 96.465 28.153 L 96.934 27.93 L 99.885 33.285 L 105.038 42.632 Z" fill="rgb(127,170,247)"></path>
      <path d="M 99.885 33.285 L 98.665 33.747 L 96.465 28.153 L 96.934 27.93 Z" fill="rgb(249,151,70)"></path>
      <path d="M 127.901 49.625 L 119.804 50.183 L 111.119 50.783 L 105.13 49.03 L 105.249 47.754 L 119.433 48.602 L 127.895 49.107 Z" fill="rgb(127,170,247)"></path>
      <path d="M 127.901 49.625 L 119.514 50.204 L 119.433 48.602 L 127.895 49.107 Z" fill="rgb(249,151,70)"></path>
      <path d="M 105.196 47.593 C 104.746 47.566 104.324 47.813 104.127 48.217 C 103.93 48.622 103.997 49.104 104.296 49.44 C 104.596 49.776 105.069 49.899 105.495 49.752 C 105.92 49.604 106.215 49.215 106.241 48.767 C 106.276 48.155 105.809 47.63 105.196 47.593 Z" fill="rgb(43,71,139)"></path>
      <path d="M 48.088 109.398 L 90.309 109.398 L 107.908 109.387 L 139.735 109.387 C 139.735 109.387 139.754 109.355 139.79 109.291 C 139.815 109.246 139.85 109.185 139.895 109.107 L 139.912 109.084 L 139.912 109.072 C 139.912 109.072 139.929 109.061 139.929 109.049 C 140.001 108.945 140.066 108.836 140.122 108.723 C 140.16 108.655 140.201 108.588 140.246 108.525 L 140.246 108.501 L 140.263 108.489 C 140.504 108.074 140.803 107.532 141.146 106.876 L 141.24 106.696 C 141.412 106.203 141.601 105.649 141.802 105.04 C 142.282 103.561 142.832 101.754 143.368 99.716 C 143.578 98.91 143.788 98.074 143.987 97.2 C 144.104 96.696 144.221 96.173 144.334 95.64 C 144.367 95.484 144.399 95.328 144.431 95.173 C 144.637 94.18 144.832 93.156 145.007 92.11 C 145.351 90.064 145.622 87.93 145.775 85.768 C 132.104 86.471 105.753 88.32 85.932 92.734 C 57.962 98.968 51.05 99.97 39.201 101.088 C 32.574 101.717 40.14 105.865 48.088 109.398 Z" fill="rgb(212,223,255)"></path>
      <path d="M 65.869 102.651 C 65.869 102.651 111.168 88.891 122.574 87.894 C 133.98 86.898 123.054 89.228 123.054 89.228 C 123.054 89.228 92.052 97.27 84.847 100.701 C 69.608 107.955 65.869 102.651 65.869 102.651 Z M 79.551 109.004 C 79.551 109.004 117.305 91.711 127.521 88.901 C 137.736 86.09 128.182 90.019 128.182 90.019 C 128.182 90.019 98.374 105.521 92.129 109.435 C 91.222 110 79.551 109.004 79.551 109.004 Z" fill="rgb(212,223,255)"></path>
      <path d="M 89.436 53.968 L 83.37 54.747 L 77.304 55.537 L 73.568 54.68 C 73.474 54.846 73.324 54.973 73.144 55.036 L 73.412 89.48 C 73.001 89.679 72.624 89.942 72.296 90.259 L 72.508 55.236 L 64.346 63.1 L 61.022 66.293 L 60.743 66.049 L 63.643 62.435 L 68.382 56.515 L 72.059 54.302 C 72.048 54.291 72.048 54.291 72.048 54.28 C 72.052 54.112 72.106 53.949 72.204 53.813 L 67.524 43.707 L 65.685 39.747 L 66.009 39.557 L 68.382 43.314 L 72.531 49.875 L 73.323 53.59 L 89.412 53.59 Z" fill="rgb(174,195,255)" opacity="0.5"></path>
      <path d="M 158.074 95.517 L 155.901 95.517 L 156.368 27.909 L 157.47 27.909 Z" fill="rgb(115,154,240)"></path>
      <path d="M 156.552 25.755 L 165.881 7.209 L 169.506 0 L 170.116 0.252 L 167.439 7.898 L 163.052 20.423 L 157.99 26.533 Z" fill="rgb(131,175,252)"></path>
      <path d="M 165.881 7.209 L 169.506 0 L 170.116 0.252 L 167.439 7.898 Z" fill="rgb(249,151,70)"></path>
      <path d="M 155.916 27.008 L 157.126 25.908 L 171.919 41.078 L 177.268 46.564 L 176.829 47.056 L 170.715 42.222 L 160.043 33.782 Z" fill="rgb(131,175,252)"></path>
      <path d="M 170.715 42.222 L 171.919 41.078 L 177.268 46.564 L 176.829 47.056 Z" fill="rgb(249,151,70)"></path>
      <path d="M 129.743 36.817 L 138.974 32.179 L 148.873 27.204 L 156.771 26.315 L 157.263 27.871 L 140.19 33.854 L 130.006 37.422 Z" fill="rgb(131,175,252)"></path>
      <path d="M 129.743 36.817 L 139.304 32.012 L 140.19 33.854 L 130.006 37.422 Z" fill="rgb(249,151,70)"></path>
      <path d="M 157.406 28.036 C 158.145 27.777 158.533 26.97 158.274 26.233 C 158.014 25.496 157.204 25.108 156.465 25.367 C 155.726 25.626 155.338 26.433 155.597 27.17 C 155.857 27.907 156.667 28.295 157.406 28.036 Z" fill="rgb(43,71,139)"></path>
      <path d="M 124.936 99.227 C 124.936 99.227 115.818 96.524 110.482 99.836 C 105.145 103.148 108.301 106.96 101.985 106.627 C 95.669 106.293 92.513 105.977 92.18 109.699 L 120.099 109.699 Z" fill="rgb(168,210,159)"></path>
      <path d="M 132.851 66.786 L 163.493 66.786 L 163.493 109.636 L 132.851 109.636 Z" fill="rgb(249,221,191)"></path>
      <path d="M 187.301 67.926 L 187.301 109.633 L 163.493 109.633 L 163.493 66.781 L 186.265 66.781 C 186.621 67.159 186.967 67.54 187.301 67.926 Z" fill="rgb(255,243,233)"></path>
      <path d="M 169.426 52.79 L 167.006 57.761 L 165.935 59.951 L 165.902 60.041 L 165.857 60.119 L 165.824 60.185 L 165.768 60.297 L 165.746 60.353 L 164.687 62.521 L 164.631 62.633 L 164.497 62.921 L 162.612 66.781 L 162.177 67.682 L 161.564 68.928 L 161.241 69.596 L 130.741 69.596 L 132.849 66.871 L 132.916 66.782 L 146.632 49.075 L 146.643 49.064 L 147.848 49.064 L 166.451 48.997 C 167.107 50.254 168.143 51.522 169.426 52.79 Z" fill="rgb(237,159,74)"></path>
      <path d="M 163.493 69.392 L 163.493 72.956 L 132.851 74.247 L 132.851 69.599 L 131.944 69.599 L 147.846 49.059 Z" fill="rgb(249,221,191)"></path>
      <path d="M 147.48 59.291 L 148.121 59.291 C 150.226 59.291 151.933 60.994 151.933 63.094 L 151.933 73.209 L 143.54 73.209 L 143.54 63.221 C 143.54 61.051 145.304 59.291 147.48 59.291 Z" fill="rgb(239,205,175)"></path>
      <path d="M 190.096 70.74 L 162.93 70.74 L 161.559 68.927 L 159.941 66.781 L 147.218 49.864 L 146.626 49.075 L 146.56 48.986 L 173.725 48.986 L 173.792 49.075 L 174.383 49.864 L 187.107 66.781 L 188.724 68.927 Z" fill="rgb(249,151,70)"></path>
      <path d="M 144.521 75.357 L 137.374 90.034 L 115.658 90.034 L 126.979 75.411 Z" fill="rgb(237,159,74)"></path>
      <path d="M 145.173 75.357 L 138.024 90.034 L 116.309 90.034 L 127.63 75.411 Z M 137.977 90.034 L 137.977 109.596 L 116.309 109.638 L 116.309 90.034 Z" fill="rgb(249,221,191)"></path>
      <path d="M 137.977 90.034 L 156.326 90.034 L 156.326 109.596 L 137.977 109.596 Z" fill="rgb(255,243,233)"></path>
      <path d="M 158.342 90.903 L 138.631 90.903 L 126.979 75.411 L 132.851 75.412 L 146.352 75.415 Z" fill="rgb(249,151,70)"></path>
      <path d="M 125.956 83.559 C 125.956 82.995 126.414 82.537 126.98 82.537 C 127.546 82.537 128.004 82.995 128.004 83.559 C 128.004 84.123 127.546 84.58 126.98 84.58 C 126.414 84.58 125.956 84.123 125.956 83.559 Z" fill="rgb(239,205,175)"></path>
      <path d="M 158.342 90.903 L 154.601 90.903 L 132.851 75.412 L 146.352 75.415 Z" fill="rgb(232,131,56)"></path>
      <path d="M 168.142 67.387 L 183.055 67.387 L 175.188 57.765 L 160.275 57.765 Z" fill="rgb(43,71,139)"></path>
      <path d="M 162.306 60.299 L 177.219 60.299 L 177.127 60.186 L 162.214 60.186 Z" fill="rgb(174,195,255)"></path>
      <path d="M 171.683 57.765 L 179.55 67.387 L 179.663 67.387 L 171.796 57.765 Z M 167.732 57.765 L 175.599 67.387 L 175.712 67.387 L 167.845 57.765 Z M 163.929 57.765 L 171.796 67.387 L 171.91 67.387 L 164.043 57.765 Z" fill="rgb(174,195,255)"></path>
      <path d="M 164.254 62.633 L 179.168 62.633 L 179.076 62.52 L 164.162 62.52 Z M 166.313 65.149 L 181.226 65.149 L 181.133 65.036 L 166.22 65.036 Z M 174.165 60.714 L 174.251 60.251 L 173.407 59.787 L 173.321 60.251 Z M 170.257 60.714 L 170.342 60.251 L 169.499 59.787 L 169.412 60.251 Z M 166.398 60.714 L 166.483 60.251 L 165.64 59.787 L 165.554 60.251 Z" fill="rgb(174,195,255)"></path>
      <path d="M 176.066 63.04 L 176.152 62.576 L 175.309 62.113 L 175.223 62.576 Z M 172.157 63.04 L 172.243 62.576 L 171.4 62.113 L 171.314 62.576 Z M 168.299 63.04 L 168.385 62.576 L 167.541 62.113 L 167.455 62.576 Z M 178.124 65.556 L 178.21 65.093 L 177.366 64.629 L 177.28 65.093 Z M 174.215 65.556 L 174.301 65.093 L 173.457 64.629 L 173.372 65.093 Z M 170.357 65.556 L 170.442 65.093 L 169.599 64.629 L 169.513 65.093 Z" fill="rgb(174,195,255)"></path>
      <path d="M 139.992 87.919 L 153.505 87.919 L 146.377 79.199 L 132.864 79.199 Z" fill="rgb(43,71,139)"></path>
      <path d="M 134.704 81.496 L 148.218 81.496 L 148.134 81.393 L 134.621 81.393 Z" fill="rgb(174,195,255)"></path>
      <path d="M 143.201 79.199 L 150.329 87.919 L 150.432 87.919 L 143.303 79.199 Z M 139.62 79.199 L 146.749 87.919 L 146.851 87.919 L 139.723 79.199 Z M 136.175 79.199 L 143.304 87.919 L 143.407 87.919 L 136.278 79.199 Z" fill="rgb(174,195,255)"></path>
      <path d="M 136.47 83.61 L 149.983 83.61 L 149.899 83.508 L 136.386 83.508 Z M 138.335 85.891 L 151.848 85.891 L 151.764 85.788 L 138.251 85.788 Z M 145.45 81.872 L 145.527 81.452 L 144.763 81.032 L 144.685 81.452 Z M 141.908 81.872 L 141.986 81.452 L 141.221 81.032 L 141.143 81.452 Z M 138.411 81.872 L 138.489 81.452 L 137.725 81.032 L 137.647 81.452 Z" fill="rgb(174,195,255)"></path>
      <path d="M 147.173 83.979 L 147.25 83.559 L 146.486 83.139 L 146.408 83.559 Z M 143.631 83.979 L 143.708 83.559 L 142.944 83.139 L 142.866 83.559 Z M 140.134 83.979 L 140.212 83.559 L 139.447 83.139 L 139.37 83.559 Z M 149.037 86.26 L 149.115 85.84 L 148.351 85.419 L 148.273 85.84 Z M 145.496 86.26 L 145.573 85.84 L 144.809 85.419 L 144.731 85.84 Z M 141.999 86.26 L 142.076 85.84 L 141.312 85.419 L 141.235 85.84 Z" fill="rgb(174,195,255)"></path>
      <path d="M 61.453 109.398 L 61.44 109.435 L 10.294 109.435 C 10.293 109.426 10.289 109.418 10.282 109.412 C 10.255 109.349 4.364 101.223 2.613 90.076 C 3.893 89.585 8.412 88.062 14.771 88.227 C 15.027 88.233 15.286 88.243 15.548 88.255 C 18.138 88.378 20.708 88.766 23.218 89.415 L 23.512 89.488 L 23.593 89.51 C 23.788 89.562 23.982 89.616 24.177 89.671 C 24.398 89.734 24.618 89.798 24.839 89.865 L 25.076 89.938 C 25.371 90.029 25.665 90.124 25.959 90.223 C 29.415 91.383 31.557 92.632 33.049 93.84 L 33.141 93.914 C 33.775 94.44 34.365 95.016 34.906 95.638 C 35.039 95.789 35.167 95.938 35.29 96.084 C 35.443 96.267 35.59 96.446 35.732 96.621 C 36.215 97.208 36.661 97.752 37.185 98.226 C 38.629 99.536 40.659 100.328 45.665 100.132 C 46.562 100.097 47.42 100.088 48.238 100.106 C 59.007 100.327 63.1 104.928 61.453 109.398 Z M 196.168 91.813 L 196.16 91.813 C 193.239 91.245 190.276 90.919 187.301 90.839 C 184.683 90.76 182.062 90.862 179.458 91.143 L 179.157 91.176 C 178.863 91.211 178.563 91.249 178.263 91.286 C 177.609 91.371 176.946 91.469 176.274 91.579 C 176.074 91.613 175.875 91.648 175.674 91.684 C 175.458 91.722 175.242 91.762 175.025 91.805 C 174.56 91.894 174.092 91.992 173.619 92.098 C 173.412 92.143 173.204 92.191 172.995 92.24 C 172.786 92.288 172.577 92.338 172.367 92.387 C 172.113 92.45 171.857 92.515 171.601 92.581 L 171.363 92.645 C 171.128 92.708 170.892 92.773 170.657 92.839 C 169.703 93.109 168.74 93.411 167.769 93.746 C 166.176 94.295 164.762 94.835 163.497 95.36 C 161.892 96.026 160.528 96.671 159.349 97.28 C 158.322 97.81 157.314 98.377 156.329 98.982 C 151.629 101.862 150.472 103.64 144.061 103.142 C 143.49 103.099 142.942 103.081 142.418 103.088 C 140.701 103.11 139.232 103.387 137.981 103.813 C 135.474 104.666 133.845 106.124 132.854 107.339 C 132.038 108.341 131.654 109.179 131.568 109.38 C 131.555 109.41 131.549 109.426 131.549 109.426 L 188.633 109.426 C 189.693 108.291 193.941 103.609 195.57 96.28 C 195.893 94.827 196.093 93.349 196.168 91.862 Z" fill="rgb(168,210,159)"></path>
      <path d="M 28.642 61.403 C 28.642 61.403 29.874 59.104 32.821 59.36 C 32.821 59.36 37.099 55.528 41.662 58.846 C 41.662 58.846 46.515 58.024 50.104 59.558 C 52.499 60.585 53.289 61.656 53.289 61.656 Z M 74.632 41.59 C 74.632 41.59 75.653 39.404 78.093 39.647 C 78.093 39.647 81.636 36.003 85.415 39.161 C 85.415 39.161 89.43 38.379 92.405 39.838 C 94.39 40.812 95.043 41.833 95.043 41.833 Z" fill="rgb(248,252,255)"></path>
      <path d="M 31.671 109.078 L 34.584 109.042 L 41.386 80.774 L 38.474 80.81 Z" fill="rgb(29,63,119)"></path>
      <path d="M 26.86 109.707 L 39.921 109.707 C 39.921 109.341 39.775 108.99 39.515 108.731 C 39.256 108.472 38.904 108.327 38.537 108.327 L 28.243 108.327 C 27.479 108.328 26.86 108.945 26.86 109.707 Z M 57.031 96.62 L 55.776 90.347 L 55.774 90.333 L 51.599 69.459 L 11.021 69.465 L 16.453 96.625 L 24.16 96.624 L 24.233 96.624 L 32.859 96.623 L 32.885 96.623 L 41.474 96.622 L 41.532 96.622 L 50.101 96.62 L 50.179 96.62 Z" fill="rgb(29,63,119)"></path>
      <path d="M 57.726 96.082 L 17.148 96.088 L 11.716 69.464 L 52.294 69.459 Z" fill="rgb(42,78,150)"></path>
      <path d="M 24.933 96.087 L 24.856 96.087 L 19.438 69.535 L 19.516 69.535 Z M 33.58 96.086 L 33.503 96.086 L 28.085 69.534 L 28.163 69.534 Z M 42.227 96.084 L 42.15 96.084 L 36.732 69.532 L 36.81 69.532 Z M 50.874 96.084 L 50.797 96.084 L 45.379 69.531 L 45.457 69.531 Z" fill="rgb(192,216,251)"></path>
      <path d="M 53.583 75.778 L 13.005 75.783 L 12.99 75.71 L 53.568 75.704 Z M 55.027 82.856 L 14.449 82.862 L 14.435 82.788 L 55.013 82.783 Z M 56.471 89.934 L 15.893 89.94 L 15.879 89.866 L 56.457 89.861 Z" fill="rgb(192,216,251)"></path>
      <path d="M 20.904 76.528 L 19.909 75.745 L 20.585 74.963 L 21.579 75.745 Z M 22.356 83.643 L 21.36 82.86 L 22.036 82.078 L 23.031 82.86 Z M 29.59 76.527 L 28.595 75.745 L 29.271 74.961 L 30.265 75.745 Z M 31.041 83.642 L 30.046 82.859 L 30.722 82.076 L 31.717 82.859 Z M 38.237 76.526 L 37.242 75.743 L 37.918 74.961 L 38.913 75.743 Z M 46.807 76.525 L 45.811 75.742 L 46.487 74.959 L 47.482 75.742 Z M 23.792 90.685 L 22.797 89.902 L 23.473 89.119 L 24.468 89.902 Z M 32.478 90.683 L 31.483 89.901 L 32.159 89.118 L 33.154 89.901 Z M 41.125 90.682 L 40.13 89.899 L 40.806 89.117 L 41.801 89.899 Z M 49.695 90.681 L 48.699 89.899 L 49.375 89.115 L 50.37 89.898 Z M 48.258 83.639 L 47.263 82.856 L 47.938 82.074 L 48.934 82.856 Z M 39.688 83.64 L 38.693 82.858 L 39.369 82.075 L 40.364 82.858 Z" fill="rgb(192,216,251)"></path>
      <path d="M 73.911 109.275 L 75.91 109.251 L 80.581 89.843 L 78.581 89.867 Z" fill="rgb(29,63,119)"></path>
      <path d="M 70.607 109.707 L 79.578 109.707 C 79.578 109.183 79.153 108.759 78.628 108.759 L 71.557 108.759 C 71.033 108.759 70.607 109.183 70.607 109.707 Z M 91.322 100.722 L 90.461 96.415 L 90.459 96.405 L 87.593 82.074 L 59.733 82.078 L 63.463 100.726 L 68.754 100.725 L 68.804 100.725 L 74.726 100.724 L 74.744 100.724 L 80.64 100.723 L 80.681 100.723 L 86.565 100.722 Z" fill="rgb(29,63,119)"></path>
      <path d="M 91.799 100.353 L 63.94 100.357 L 60.21 82.078 L 88.07 82.074 Z" fill="rgb(42,78,150)"></path>
      <path d="M 69.285 100.356 L 69.232 100.356 L 65.512 82.126 L 65.565 82.126 Z M 75.221 100.355 L 75.168 100.355 L 71.449 82.125 L 71.502 82.125 Z M 81.158 100.354 L 81.105 100.354 L 77.385 82.125 L 77.439 82.125 Z M 87.095 100.354 L 87.042 100.354 L 83.322 82.124 L 83.376 82.124 Z" fill="rgb(192,216,251)"></path>
      <path d="M 88.955 86.412 L 61.095 86.416 L 61.085 86.366 L 88.945 86.362 Z M 89.946 91.271 L 62.087 91.276 L 62.076 91.225 L 89.936 91.222 Z M 90.938 96.131 L 63.078 96.135 L 63.068 96.086 L 90.928 96.081 Z" fill="rgb(192,216,251)"></path>
      <path d="M 66.518 86.927 L 65.835 86.39 L 66.299 85.853 L 66.982 86.39 Z M 67.515 91.812 L 66.832 91.275 L 67.296 90.738 L 67.979 91.274 Z M 72.482 86.926 L 71.799 86.39 L 72.263 85.852 L 72.946 86.389 Z M 73.478 91.811 L 72.795 91.274 L 73.259 90.737 L 73.942 91.274 Z M 78.418 86.926 L 77.735 86.388 L 78.199 85.851 L 78.882 86.388 Z M 84.302 86.925 L 83.619 86.387 L 84.083 85.85 L 84.766 86.387 Z M 68.501 96.647 L 67.818 96.11 L 68.282 95.572 L 68.965 96.109 Z M 74.465 96.646 L 73.782 96.108 L 74.246 95.572 L 74.929 96.108 Z M 80.401 96.645 L 79.718 96.108 L 80.182 95.57 L 80.865 96.108 Z M 86.285 96.645 L 85.602 96.107 L 86.065 95.569 L 86.749 96.107 Z M 85.299 91.81 L 84.615 91.272 L 85.079 90.735 L 85.762 91.272 Z M 79.415 91.81 L 78.732 91.273 L 79.196 90.736 L 79.879 91.273 Z" fill="rgb(192,216,251)"></path>
      <path d="M 200.019 109.66 L 200.019 109.738 C 200.019 109.863 199.918 109.964 199.793 109.964 L 0.227 109.964 C 0.102 109.964 0.001 109.863 0 109.738 L 0 109.66 C 0.001 109.536 0.102 109.435 0.227 109.435 L 199.793 109.435 C 199.918 109.435 200.019 109.536 200.019 109.66 Z" fill="rgb(35,56,98)"></path>
      <path d="M 61.437 96.62 L 62.132 96.082 L 60.877 96.081 Z M 95.728 100.722 L 96.205 100.353 L 94.622 100.353 Z" fill="rgb(29,63,119)"></path>
    </g></g>
</svg>