<!-- SMC_Academy -->
<svg xmlns="http://www.w3.org/2000/svg" width="72" height="40">
  <g transform="translate(0 0)">
    <g>
      <path d="M 65.651 24.947 C 64.083 26.458 62.19 27.223 59.997 27.223 C 55.296 27.223 51.959 23.919 51.959 19.178 C 51.959 14.927 54.646 11.84 58.587 11.243 L 56.179 6.574 C 52.211 7.484 49.056 9.923 47.385 13.333 L 47.366 6.606 L 42.593 6.606 L 33.336 22.233 L 23.934 6.609 L 19.125 6.609 L 19.125 19.934 C 15.242 16.175 6.279 17.35 6.279 13.723 C 6.279 12.143 7.607 10.85 11.052 10.85 C 12.673 10.85 14.39 11.195 16.105 11.896 L 16.105 6.832 C 14.469 6.395 12.782 6.176 11.088 6.179 C 3.947 6.179 0.502 9.734 0.502 14.008 C 0.502 23.346 15.107 20.114 15.107 24.819 C 15.107 26.363 13.708 27.513 10.263 27.513 C 7.249 27.513 4.089 26.435 1.974 24.891 L 0 29.273 C 2.225 30.996 6.243 32.182 10.227 32.182 C 14.471 32.182 17.421 30.925 19.125 29.031 L 19.125 31.751 L 24.579 31.751 L 24.579 16.987 L 31.935 29.091 L 34.555 29.091 L 41.947 16.666 L 41.983 31.751 L 47.437 31.751 L 47.418 25.091 C 49.571 29.422 54.118 32.18 59.672 32.18 C 62.963 32.18 65.828 31.286 68.054 29.606 Z M 2.859 34.58 L 5.333 39.89 L 4.761 39.89 L 3.927 38.143 L 1.641 38.143 L 0.815 39.89 L 0.224 39.89 L 2.729 34.58 Z M 2.794 35.707 L 1.884 37.63 L 3.697 37.63 Z M 16.186 35.565 L 15.768 35.887 C 15.549 35.596 15.264 35.361 14.937 35.202 C 14.604 35.045 14.239 34.966 13.871 34.97 C 13.459 34.967 13.054 35.072 12.696 35.275 C 12.346 35.468 12.056 35.752 11.857 36.097 C 11.656 36.45 11.554 36.849 11.56 37.254 C 11.56 37.902 11.781 38.442 12.225 38.875 C 12.669 39.308 13.228 39.525 13.904 39.526 C 14.646 39.526 15.268 39.235 15.768 38.652 L 16.186 38.97 C 15.923 39.305 15.584 39.573 15.197 39.75 C 14.781 39.939 14.328 40.033 13.871 40.027 C 12.943 40.027 12.211 39.717 11.675 39.099 C 11.225 38.579 11 37.948 11 37.208 C 11 36.431 11.272 35.777 11.817 35.245 C 12.362 34.714 13.044 34.449 13.864 34.45 C 14.328 34.442 14.787 34.541 15.206 34.741 C 15.596 34.929 15.933 35.213 16.186 35.565 Z M 24.507 34.58 L 26.981 39.89 L 26.409 39.89 L 25.574 38.143 L 23.289 38.143 L 22.462 39.89 L 21.871 39.89 L 24.377 34.58 Z M 24.442 35.708 L 23.533 37.63 L 25.343 37.63 Z M 32.893 39.89 L 32.893 34.58 L 33.993 34.58 C 34.786 34.58 35.362 34.644 35.721 34.771 C 36.217 34.938 36.642 35.268 36.927 35.707 C 37.219 36.155 37.365 36.686 37.365 37.302 C 37.375 37.792 37.256 38.276 37.02 38.706 C 36.816 39.085 36.505 39.396 36.125 39.601 C 35.759 39.794 35.245 39.89 34.584 39.89 Z M 33.401 39.388 L 34.015 39.388 C 34.748 39.388 35.256 39.342 35.54 39.251 C 35.925 39.132 36.257 38.885 36.481 38.549 C 36.71 38.212 36.824 37.799 36.824 37.31 C 36.824 36.799 36.7 36.361 36.452 35.998 C 36.205 35.635 35.838 35.371 35.415 35.252 C 35.084 35.151 34.537 35.101 33.774 35.1 L 33.401 35.1 Z M 43.482 34.58 L 46.523 34.58 L 46.523 35.1 L 44.012 35.1 L 44.012 36.765 L 46.5 36.765 L 46.5 37.285 L 44.012 37.285 L 44.012 39.372 L 46.5 39.372 L 46.5 39.892 L 43.482 39.892 Z M 52.286 39.89 L 53.045 34.58 L 53.132 34.58 L 55.289 38.938 L 57.425 34.58 L 57.509 34.58 L 58.273 39.89 L 57.753 39.89 L 57.228 36.092 L 55.353 39.89 L 55.217 39.89 L 53.32 36.064 L 52.8 39.89 Z M 63.986 34.58 L 64.596 34.58 L 65.957 36.77 L 67.293 34.58 L 67.905 34.58 L 66.225 37.352 L 66.225 39.889 L 65.705 39.889 L 65.705 37.352 Z" fill="rgb(0,51,102)"></path>
      <path d="M 71.645 10.433 C 68.303 7.036 64.957 3.644 61.606 0.255 C 61.44 0.088 61.112 -0.018 60.872 0.002 C 56.125 0.391 51.379 0.799 46.636 1.227 C 46.503 1.245 46.375 1.291 46.26 1.361 C 46.369 1.483 46.47 1.611 46.563 1.745 C 46.67 1.819 46.763 1.913 46.835 2.021 L 46.857 2.053 L 49.743 4.956 C 50.191 3.765 51.136 3.625 52.166 3.695 C 54.443 3.85 56.514 4.731 58.599 5.556 C 58.754 5.621 58.892 5.723 59.039 5.808 C 57.999 5.624 57.057 5.184 56.07 4.935 C 54.69 4.594 53.292 4.329 51.883 4.14 C 51.262 4.054 50.648 4.283 50.388 4.982 C 50.015 5.981 49.609 6.97 49.301 7.989 C 49.213 8.278 49.301 8.78 49.508 8.97 C 49.779 9.22 50.064 9.454 50.361 9.672 C 50.395 9.642 50.431 9.615 50.468 9.589 C 50.549 9.489 50.647 9.404 50.758 9.339 L 50.764 9.334 C 50.586 9.137 50.427 8.924 50.29 8.696 C 55.255 9.716 59.884 11.632 64.554 13.775 C 64.684 13.416 64.851 13.117 64.903 12.799 C 65.09 11.667 65.744 11.294 66.864 11.266 C 68.527 11.223 70.186 11.005 71.969 10.851 C 71.805 10.639 71.736 10.526 71.645 10.433 Z" fill="rgb(0,51,102)"></path>
      <path d="M 61.606 0.255 C 61.442 0.09 61.119 -0.014 60.88 0.002 L 60.88 10.777 L 61.626 10.777 L 61.626 0.276 Z" fill="rgb(255,255,0)"></path>
    </g></g>
</svg>