<!-- SMC_Logo -->
<svg xmlns="http://www.w3.org/2000/svg" width="98" height="40">
  <g>
    <g>
      <path d="M 0 39.47 L 0.31 38.793 C 0.692 39.054 1.146 39.195 1.611 39.198 C 2.152 39.198 2.372 39.021 2.372 38.781 C 2.372 38.055 0.078 38.548 0.078 37.109 C 0.078 36.448 0.619 35.899 1.732 35.899 C 2.212 35.889 2.686 36.008 3.102 36.243 L 2.835 36.928 C 2.504 36.733 2.127 36.627 1.741 36.62 C 1.2 36.62 0.99 36.821 0.99 37.065 C 0.99 37.782 3.284 37.298 3.284 38.716 C 3.284 39.365 2.738 39.92 1.611 39.92 C 1.04 39.935 0.478 39.778 0 39.47 Z M 4.56 37.91 C 4.56 36.746 5.472 35.899 6.717 35.899 C 7.962 35.899 8.876 36.748 8.876 37.91 C 8.876 39.072 7.957 39.92 6.717 39.92 C 5.477 39.92 4.56 39.065 4.56 37.91 Z M 7.953 37.91 C 7.938 37.241 7.379 36.709 6.7 36.718 C 6.021 36.728 5.477 37.275 5.482 37.944 C 5.486 38.613 6.038 39.153 6.717 39.154 C 7.052 39.163 7.376 39.034 7.611 38.798 C 7.845 38.562 7.969 38.24 7.953 37.91 Z M 10.466 35.966 L 11.378 35.966 L 11.378 39.116 L 13.356 39.116 L 13.356 39.85 L 10.466 39.85 Z M 17.403 39.021 L 15.572 39.021 L 15.222 39.854 L 14.277 39.854 L 16.035 35.966 L 16.938 35.966 L 18.702 39.854 L 17.753 39.854 Z M 17.117 38.339 L 16.491 36.848 L 15.865 38.339 Z M 22.537 39.854 L 21.776 38.772 L 20.937 38.772 L 20.937 39.854 L 20.023 39.854 L 20.023 35.966 L 21.736 35.966 C 22.79 35.966 23.449 36.504 23.449 37.377 C 23.471 37.914 23.146 38.406 22.639 38.604 L 23.522 39.854 Z M 21.682 36.699 L 20.937 36.699 L 20.937 38.055 L 21.682 38.055 C 22.239 38.055 22.52 37.798 22.52 37.377 C 22.52 36.956 22.239 36.699 21.682 36.699 Z M 31.156 39.854 L 31.156 37.526 L 29.996 39.447 L 29.585 39.447 L 28.429 37.584 L 28.429 39.868 L 27.572 39.868 L 27.572 35.98 L 28.328 35.98 L 29.804 38.397 L 31.257 35.98 L 32.006 35.98 L 32.018 39.868 Z M 36.446 39.021 L 34.615 39.021 L 34.258 39.854 L 33.313 39.854 L 35.073 35.966 L 35.973 35.966 L 37.738 39.854 L 36.779 39.854 Z M 36.16 38.339 L 35.534 36.848 L 34.908 38.339 Z M 38.759 39.47 L 39.068 38.793 C 39.451 39.054 39.904 39.195 40.37 39.198 C 40.911 39.198 41.131 39.021 41.131 38.781 C 41.131 38.055 38.837 38.548 38.837 37.109 C 38.837 36.448 39.378 35.899 40.49 35.899 C 40.97 35.889 41.443 36.008 41.858 36.243 L 41.582 36.928 C 41.251 36.733 40.874 36.627 40.488 36.62 C 39.947 36.62 39.739 36.821 39.739 37.065 C 39.739 37.782 42.033 37.298 42.033 38.716 C 42.033 39.365 41.485 39.92 40.358 39.92 C 39.791 39.933 39.233 39.776 38.759 39.47 Z M 44.325 36.699 L 43.063 36.699 L 43.063 35.966 L 46.501 35.966 L 46.501 36.699 L 45.239 36.699 L 45.239 39.854 L 44.325 39.854 Z M 50.947 39.133 L 50.947 39.854 L 47.893 39.854 L 47.893 35.966 L 50.874 35.966 L 50.874 36.688 L 48.8 36.688 L 48.8 37.533 L 50.633 37.533 L 50.633 38.232 L 48.8 38.232 L 48.8 39.133 Z M 55.089 39.854 L 54.34 38.772 L 53.49 38.772 L 53.49 39.854 L 52.578 39.854 L 52.578 35.966 L 54.283 35.966 C 55.337 35.966 55.999 36.504 55.999 37.377 C 56.02 37.915 55.694 38.407 55.186 38.604 L 56.072 39.854 Z M 54.234 36.699 L 53.49 36.699 L 53.49 38.055 L 54.234 38.055 C 54.791 38.055 55.073 37.798 55.073 37.377 C 55.073 36.956 54.791 36.699 54.234 36.699 Z M 59.869 37.91 C 59.869 36.746 60.783 35.899 62.012 35.899 C 62.632 35.876 63.23 36.133 63.635 36.597 L 63.049 37.13 C 62.807 36.834 62.442 36.663 62.056 36.665 C 61.36 36.665 60.795 37.221 60.795 37.908 C 60.795 38.595 61.36 39.151 62.056 39.151 C 62.442 39.154 62.808 38.982 63.049 38.686 L 63.635 39.219 C 63.229 39.686 62.628 39.943 62.004 39.917 C 60.783 39.92 59.869 39.081 59.869 37.91 Z M 68.204 39.133 L 68.204 39.854 L 65.149 39.854 L 65.149 35.966 L 68.131 35.966 L 68.131 36.688 L 66.056 36.688 L 66.056 37.533 L 67.89 37.533 L 67.89 38.232 L 66.056 38.232 L 66.056 39.133 Z M 69.834 35.966 L 70.746 35.966 L 70.746 39.116 L 72.724 39.116 L 72.724 39.85 L 69.834 39.85 Z M 74.139 35.966 L 75.053 35.966 L 75.053 39.116 L 77.021 39.116 L 77.021 39.85 L 74.139 39.85 Z" fill="rgb(8,55,68)"></path>
      <path d="M 74.309 23.121 C 72.607 24.778 70.301 25.693 67.909 25.661 C 62.588 25.661 58.81 21.977 58.81 16.694 C 58.81 11.956 61.851 8.517 66.314 7.847 L 63.587 2.647 C 59.098 3.662 55.526 6.373 53.634 10.18 L 53.612 2.685 L 48.212 2.685 L 37.731 20.096 L 27.099 2.685 L 21.665 2.685 L 21.665 17.535 C 17.247 13.346 7.107 14.655 7.107 10.61 C 7.107 8.848 8.612 7.406 12.522 7.406 C 14.487 7.427 16.429 7.822 18.242 8.571 L 18.242 2.934 C 16.392 2.446 14.486 2.2 12.571 2.203 C 4.489 2.203 0.591 6.161 0.591 10.929 C 0.591 21.337 17.129 17.735 17.129 22.979 C 17.129 24.699 15.544 25.98 11.645 25.98 C 8.234 25.98 4.659 24.778 2.263 23.058 L 0 27.94 C 2.519 29.861 7.067 31.181 11.577 31.181 C 16.38 31.181 19.718 29.784 21.646 27.67 L 21.646 30.697 L 27.822 30.697 L 27.822 14.252 L 36.148 27.742 L 39.113 27.742 L 47.489 13.891 L 47.529 30.704 L 53.705 30.704 L 53.681 23.281 C 56.119 28.108 61.267 31.184 67.552 31.184 C 71.278 31.184 74.519 30.187 77.04 28.317 Z" fill="rgb(0,116,133)"></path>
      <path d="M 64.61 19.148 C 64.466 19.148 64.348 19.148 64.348 19.148 L 64.348 14.238 C 64.348 14.238 64.466 14.238 64.61 14.238 L 69.069 14.238 C 69.214 14.238 69.331 14.238 69.331 14.238 L 69.331 19.148 C 69.331 19.148 69.214 19.148 69.069 19.148 Z" fill="rgb(8,55,68)"></path>
      <path d="M 69.069 19.973 L 64.613 19.973 C 64.468 19.973 64.349 20.088 64.348 20.231 L 64.348 23.554 C 65.907 24.253 67.644 24.472 69.331 24.18 L 69.331 20.222 C 69.326 20.083 69.21 19.973 69.069 19.973 Z M 63.139 14.238 L 60.54 14.238 C 60.07 15.842 60.07 17.544 60.54 19.148 L 63.139 19.148 C 63.283 19.148 63.401 19.033 63.401 18.89 L 63.401 14.499 C 63.401 14.356 63.284 14.239 63.139 14.238 Z M 60.844 13.416 L 63.139 13.416 C 63.284 13.415 63.401 13.298 63.401 13.155 L 63.401 10.361 C 62.264 11.111 61.375 12.173 60.844 13.416 Z M 63.139 19.973 L 60.844 19.973 C 61.375 21.217 62.263 22.281 63.401 23.032 L 63.401 20.238 C 63.403 20.168 63.376 20.101 63.327 20.051 C 63.277 20.001 63.209 19.973 63.139 19.973 Z M 70.543 19.148 L 72.23 19.148 L 70.281 15.423 L 70.281 18.89 C 70.281 19.033 70.398 19.148 70.543 19.148 Z M 64.613 13.416 L 69.069 13.416 C 69.117 13.414 69.164 13.399 69.203 13.372 L 66.982 9.129 C 66.071 9.213 65.18 9.45 64.348 9.828 L 64.348 13.155 C 64.348 13.299 64.467 13.416 64.613 13.416 Z M 72.66 19.973 L 70.534 19.973 C 70.389 19.973 70.271 20.088 70.271 20.231 L 70.271 23.956 C 71.551 23.529 72.701 22.792 73.617 21.812 Z" fill="rgb(8,55,68)"></path>
      <path d="M 72.126 13.216 L 75.15 12.145 L 77.794 6.349 L 74.3 8.447 Z M 75.705 19.849 L 78.732 18.778 L 81.373 12.983 L 77.879 15.083 Z" fill="rgb(252,90,0)"></path>
      <path d="M 68.676 6.866 L 70.231 9.639 L 80.442 2.701 Z M 72.135 13.192 L 73.822 16.298 L 88.671 6.759 Z M 75.708 19.845 L 77.302 22.841 L 97.848 10.545 Z" fill="rgb(254,121,0)"></path>
      <path d="M 68.676 6.866 L 71.703 5.795 L 74.344 0 L 71.481 0.712 Z" fill="rgb(252,90,0)"></path>
    </g></g>
</svg>