<svg xmlns="http://www.w3.org/2000/svg" xmlns:xlink="http://www.w3.org/1999/xlink" viewBox="0 0 449.9 391.86"><defs><style>.cls-1{isolation:isolate;}.cls-2{fill:#5bb56a;}.cls-3{fill:#318c3a;}.cls-17,.cls-20,.cls-22,.cls-24,.cls-25,.cls-26,.cls-27,.cls-28,.cls-29,.cls-30,.cls-31,.cls-32,.cls-33,.cls-34,.cls-37,.cls-38,.cls-4,.cls-42,.cls-5,.cls-52,.cls-54,.cls-6,.cls-60,.cls-9{mix-blend-mode:multiply;}.cls-4{fill:url(#linear-gradient);}.cls-5{fill:url(#linear-gradient-2);}.cls-20,.cls-24,.cls-26,.cls-28,.cls-30,.cls-32,.cls-34,.cls-52,.cls-6{opacity:0.5;}.cls-6{fill:url(#linear-gradient-3);}.cls-7{fill:#5b3814;}.cls-8{fill:#714c24;}.cls-9{fill:url(#linear-gradient-4);}.cls-10{fill:#895c30;}.cls-11{fill:#ad3b3b;}.cls-12{fill:#d85555;}.cls-13{fill:#f2c724;}.cls-14{fill:#84a3aa;}.cls-15{fill:#bec7cf;}.cls-16{fill:#9e6a3b;}.cls-17{fill:url(#linear-gradient-5);}.cls-18,.cls-19,.cls-59{fill:none;stroke-linecap:round;stroke-miterlimit:10;}.cls-18,.cls-19{stroke:#5b3814;}.cls-19{stroke-dasharray:2.94 2.94;}.cls-20{fill:url(#linear-gradient-6);}.cls-21{fill:#e2af0e;}.cls-22{fill:url(#linear-gradient-7);}.cls-23{fill:#e0ad0b;}.cls-24{fill:url(#linear-gradient-8);}.cls-25{fill:url(#linear-gradient-9);}.cls-26{fill:url(#linear-gradient-10);}.cls-27{fill:url(#linear-gradient-11);}.cls-28{fill:url(#linear-gradient-12);}.cls-29{fill:url(#linear-gradient-13);}.cls-30{fill:url(#linear-gradient-14);}.cls-31{fill:url(#linear-gradient-15);}.cls-32{fill:url(#linear-gradient-16);}.cls-33{fill:url(#linear-gradient-17);}.cls-34{fill:url(#linear-gradient-18);}.cls-35{fill:#3d4b5c;}.cls-36{fill:#283542;}.cls-37{fill:url(#linear-gradient-19);}.cls-38{fill:url(#linear-gradient-20);}.cls-39{fill:#5c7289;}.cls-40,.cls-51{fill:#fff;}.cls-41{fill:#b6ccdb;}.cls-42{fill:url(#linear-gradient-21);}.cls-43{fill:#9e3535;}.cls-44{fill:#c45957;}.cls-45{fill:#2497b2;}.cls-46{fill:#3bbedf;}.cls-47{fill:#e25d4b;}.cls-48{fill:#ff7f66;}.cls-49{fill:#7ca550;}.cls-50{fill:#9fcf74;}.cls-51{opacity:0.4;}.cls-52{fill:url(#linear-gradient-22);}.cls-53{fill:#32879b;}.cls-54{fill:url(#linear-gradient-23);}.cls-55{fill:#42a1a8;}.cls-56{fill:#ffd45a;}.cls-57{fill:#f7ce4d;}.cls-58{fill:#d3514a;}.cls-59{stroke:#f5f5f5;}.cls-60{fill:url(#linear-gradient-24);}</style><linearGradient id="linear-gradient" x1="268.46" y1="313.27" x2="313.8" y2="157.53" gradientUnits="userSpaceOnUse"><stop offset="0" stop-color="#fff" stop-opacity="0"/><stop offset="1" stop-color="#5bb56a"/></linearGradient><linearGradient id="linear-gradient-2" x1="288.99" y1="206.75" x2="353.39" y2="123.3" xlink:href="#linear-gradient"/><linearGradient id="linear-gradient-3" x1="290.35" y1="-35.13" x2="290.35" y2="222.22" gradientUnits="userSpaceOnUse"><stop offset="0.06" stop-color="#fff" stop-opacity="0"/><stop offset="0.16" stop-color="#c9ccd0" stop-opacity="0.35"/><stop offset="0.27" stop-color="#9da3aa" stop-opacity="0.63"/><stop offset="0.36" stop-color="#7e868f" stop-opacity="0.84"/><stop offset="0.45" stop-color="#6c747f" stop-opacity="0.96"/><stop offset="0.53" stop-color="#656e79"/></linearGradient><linearGradient id="linear-gradient-4" x1="349.86" y1="15.07" x2="317.36" y2="63.05" xlink:href="#linear-gradient"/><linearGradient id="linear-gradient-5" x1="273.72" y1="-81.43" x2="273.72" y2="401.36" gradientUnits="userSpaceOnUse"><stop offset="0.06" stop-color="#fff" stop-opacity="0"/><stop offset="0.14" stop-color="#e8e3de" stop-opacity="0.14"/><stop offset="0.38" stop-color="#ab9986" stop-opacity="0.51"/><stop offset="0.61" stop-color="#7f6347" stop-opacity="0.78"/><stop offset="0.82" stop-color="#644321" stop-opacity="0.94"/><stop offset="1" stop-color="#5b3814"/></linearGradient><linearGradient id="linear-gradient-6" x1="4926.48" y1="268.45" x2="4949.13" y2="233.71" gradientTransform="translate(-4658.64)" xlink:href="#linear-gradient-3"/><linearGradient id="linear-gradient-7" x1="164.39" y1="242.04" x2="224.88" y2="242.04" gradientTransform="matrix(-1, 0, 0, 1, 461.56, 0)" gradientUnits="userSpaceOnUse"><stop offset="0" stop-color="#fff" stop-opacity="0"/><stop offset="1" stop-color="#e2af0e"/></linearGradient><linearGradient id="linear-gradient-8" x1="4843.93" y1="243.16" x2="4866.59" y2="208.42" gradientTransform="translate(-4658.64)" xlink:href="#linear-gradient-3"/><linearGradient id="linear-gradient-9" x1="175.69" y1="218.44" x2="236.18" y2="218.44" gradientTransform="matrix(1, 0, 0, 1, 0, 0)" xlink:href="#linear-gradient-7"/><linearGradient id="linear-gradient-10" x1="4996.7" y1="213.8" x2="5020.18" y2="177.8" gradientTransform="translate(-4658.64)" xlink:href="#linear-gradient-3"/><linearGradient id="linear-gradient-11" x1="338.7" y1="186.54" x2="387.39" y2="186.54" gradientTransform="matrix(1, 0, 0, 1, 0, 0)" xlink:href="#linear-gradient-7"/><linearGradient id="linear-gradient-12" x1="4987.94" y1="201.77" x2="5010.6" y2="167.03" gradientTransform="translate(-4658.64)" xlink:href="#linear-gradient-3"/><linearGradient id="linear-gradient-13" x1="322.28" y1="176.64" x2="378.23" y2="176.64" gradientTransform="matrix(1, 0, 0, 1, 0, 0)" xlink:href="#linear-gradient-7"/><linearGradient id="linear-gradient-14" x1="4987.67" y1="193.79" x2="5010.33" y2="159.05" gradientTransform="translate(-4658.64)" xlink:href="#linear-gradient-3"/><linearGradient id="linear-gradient-15" x1="333.88" y1="169.06" x2="385.06" y2="169.06" gradientTransform="matrix(1, 0, 0, 1, 0, 0)" xlink:href="#linear-gradient-7"/><linearGradient id="linear-gradient-16" x1="330.82" y1="184.08" x2="352.96" y2="150.13" xlink:href="#linear-gradient-3"/><linearGradient id="linear-gradient-17" x1="323.92" y1="159.95" x2="384.41" y2="159.95" gradientTransform="matrix(1, 0, 0, 1, 0, 0)" xlink:href="#linear-gradient-7"/><linearGradient id="linear-gradient-18" x1="383.21" y1="351.84" x2="2.37" y2="259.04" xlink:href="#linear-gradient-3"/><linearGradient id="linear-gradient-19" x1="598.03" y1="293.28" x2="598.03" y2="426.16" gradientTransform="matrix(-1, 0, 0, 1, 832.4, 0)" gradientUnits="userSpaceOnUse"><stop offset="0" stop-color="#fff" stop-opacity="0"/><stop offset="0.08" stop-color="#e4e6e8" stop-opacity="0.14"/><stop offset="0.34" stop-color="#9ca3ac" stop-opacity="0.51"/><stop offset="0.59" stop-color="#687280" stop-opacity="0.78"/><stop offset="0.81" stop-color="#485565" stop-opacity="0.94"/><stop offset="0.99" stop-color="#3d4b5c"/></linearGradient><linearGradient id="linear-gradient-20" x1="730.35" y1="272.08" x2="730.35" y2="491.88" xlink:href="#linear-gradient-19"/><linearGradient id="linear-gradient-21" x1="717.88" y1="201.22" x2="752.58" y2="268.87" gradientTransform="matrix(-1, 0, 0, 1, 832.4, 0)" gradientUnits="userSpaceOnUse"><stop offset="0" stop-color="#fff" stop-opacity="0"/><stop offset="0.11" stop-color="#f1f5f8" stop-opacity="0.19"/><stop offset="0.28" stop-color="#dfe9ef" stop-opacity="0.43"/><stop offset="0.45" stop-color="#d1dfe8" stop-opacity="0.64"/><stop offset="0.6" stop-color="#c5d6e2" stop-opacity="0.79"/><stop offset="0.75" stop-color="#bdd1de" stop-opacity="0.91"/><stop offset="0.88" stop-color="#b8cddc" stop-opacity="0.98"/><stop offset="0.99" stop-color="#b6ccdb"/></linearGradient><linearGradient id="linear-gradient-22" x1="428.5" y1="415.63" x2="315.49" y2="181.87" xlink:href="#linear-gradient-3"/><linearGradient id="linear-gradient-23" x1="1266.04" y1="297.89" x2="1422.68" y2="297.89" gradientTransform="matrix(-1, 0, 0, 1, 1707.54, 0)" gradientUnits="userSpaceOnUse"><stop offset="0" stop-color="#fff" stop-opacity="0"/><stop offset="1" stop-color="#42a1a8"/></linearGradient><linearGradient id="linear-gradient-24" x1="1279.71" y1="296.19" x2="1492.5" y2="296.19" xlink:href="#linear-gradient-23"/></defs><g class="cls-1"><g id="Layer_2" data-name="Layer 2"><g id="Objects"><polygon class="cls-2" points="331.45 267.4 200.47 191.78 265.05 154.49 396.04 230.11 331.45 267.4"/><path class="cls-3" d="M331,262.68,208.65,192,265,159.52l122.37,70.64ZM212.88,192,331,260.24l52.08-30.08L265,162Z"/><path class="cls-3" d="M301.36,210.58c-1.86-2.66-1.95-3.68-.44-4.56a6.32,6.32,0,0,1,6.2.38,6.7,6.7,0,0,1,3.08,3.16l.12.26,3.92-1-.09-.19a8.27,8.27,0,0,0-3.16-3.27l3.41-2-2.77-1.6-3.54,2c-3.82-1.49-8.15-1.35-11.12.36-3.53,2-2.28,4.62-.4,7.1,1.59,2.18,1.56,3.47-.13,4.44-1.85,1.07-4.74.89-7-.43a7.26,7.26,0,0,1-3.39-3.64l-.1-.28L282,212.43l.05.17a8.33,8.33,0,0,0,3.62,3.92l-3.51,2,2.77,1.6,3.68-2.13c3.93,1.56,8.6,1.42,11.72-.38S303.68,213.77,301.36,210.58Z"/><path class="cls-3" d="M277,223.21c-11.71-6.76-11.71-17.77,0-24.53s30.77-6.76,42.48,0,11.72,17.77,0,24.53S288.73,230,277,223.21Zm40.37-23.31c-10.55-6.09-27.71-6.09-38.26,0s-10.54,16,0,22.09,27.72,6.09,38.26,0S327.93,206,317.38,199.9Z"/><polygon class="cls-4" points="331.45 267.4 200.47 191.78 265.05 154.49 396.04 230.11 331.45 267.4"/><polygon class="cls-2" points="338.23 242.43 207.24 166.81 271.82 129.52 402.81 205.14 338.23 242.43"/><path class="cls-3" d="M337.79,237.71,215.42,167.06l56.32-32.51L394.1,205.19ZM219.65,167.06l118.14,68.21,52.09-30.08L271.74,137Z"/><path class="cls-3" d="M308.13,185.61c-1.85-2.66-1.95-3.68-.43-4.56a6.3,6.3,0,0,1,6.19.38,6.7,6.7,0,0,1,3.08,3.16l.12.26,3.92-1-.09-.19a8.2,8.2,0,0,0-3.16-3.27l3.41-2-2.77-1.6-3.54,2c-3.82-1.49-8.15-1.35-11.12.36-3.53,2-2.28,4.62-.4,7.1,1.59,2.18,1.56,3.46-.13,4.44-1.85,1.07-4.74.89-7-.43a7.26,7.26,0,0,1-3.39-3.64l-.1-.28-3.92,1.06.05.17c.36,1.24,1.77,2.75,3.62,3.92l-3.51,2,2.77,1.6,3.68-2.13c3.93,1.56,8.61,1.42,11.72-.38S310.46,188.8,308.13,185.61Z"/><path class="cls-3" d="M283.78,198.24c-11.71-6.76-11.71-17.77,0-24.53s30.77-6.76,42.48,0,11.72,17.77,0,24.53S295.5,205,283.78,198.24Zm40.37-23.31c-10.54-6.09-27.71-6.09-38.25,0s-10.55,16,0,22.09,27.71,6.09,38.25,0S334.7,181,324.15,174.93Z"/><polygon class="cls-5" points="338.23 242.43 207.24 166.81 271.82 129.52 402.81 205.14 338.23 242.43"/><path class="cls-6" d="M158.89,186.3h28.75a23.18,23.18,0,0,0,11.36-3L293,130.54l96.58,55.76,7.38-2.36,23-13.83a4,4,0,0,0-.06-6.86L294.3,90.51Z"/><path class="cls-7" d="M393.42,62.77,290.23,3.19A23.84,23.84,0,0,0,278.31,0h-8.2a23.84,23.84,0,0,0-11.92,3.19L155,62.77a10.44,10.44,0,0,0-5.22,9V181a3.31,3.31,0,0,0,1.73,2.92h0l4,2.3-.67-2.33L263.72,121h21l108.93,62.89-.67,2.33,4-2.3h0a3.31,3.31,0,0,0,1.73-2.92V71.8A10.44,10.44,0,0,0,393.42,62.77Z"/><path class="cls-8" d="M389.32,65.16,286.13,5.59a23.8,23.8,0,0,0-11.92-3.2h0a23.8,23.8,0,0,0-11.92,3.2L159.1,65.16a10.43,10.43,0,0,0-5.21,9V183.41a3.33,3.33,0,0,0,5,2.89l105.34-60.81a15.49,15.49,0,0,1,7.75-2.08h4.47a15.46,15.46,0,0,1,7.74,2.08L389.53,186.3a3.34,3.34,0,0,0,5-2.89V74.2A10.44,10.44,0,0,0,389.32,65.16Z"/><polygon class="cls-2" points="276.86 14.5 376.44 34.62 376.44 84.15 276.54 27.91 276.86 14.5"/><polygon class="cls-9" points="276.86 14.5 376.44 34.62 376.44 84.15 276.54 27.91 276.86 14.5"/><polygon class="cls-3" points="270.09 20.85 270 22.57 367.67 42.36 367.67 88.8 369.67 90.5 369.67 40.98 270.09 20.85"/><path class="cls-2" d="M286.13,13.75a23.87,23.87,0,0,0-23.84,0l-68.2,39.38V139.4h.16l68-39.29a23.87,23.87,0,0,1,23.84,0l68,39.29h.16V53.13Z"/><path class="cls-10" d="M274.21,21.63a23.89,23.89,0,0,0-11.92,3.19L153.89,87.41v96a3.33,3.33,0,0,0,5,2.89l105.34-60.81a15.49,15.49,0,0,1,7.75-2.08h4.47a15.46,15.46,0,0,1,7.74,2.08L389.53,186.3a3.34,3.34,0,0,0,5-2.89v-96L286.13,24.82A23.89,23.89,0,0,0,274.21,21.63Z"/><path class="cls-11" d="M371.19,155.82,297.55,113.3a6.49,6.49,0,0,1-3.25-5.62V48.21a2.38,2.38,0,0,1,3.57-2.06L372.43,89.2a6.38,6.38,0,0,1,3.19,5.51v58.55A3,3,0,0,1,371.19,155.82Z"/><path class="cls-12" d="M369.84,156.78l-73.65-42.52a6.48,6.48,0,0,1-3.24-5.61V49.18a2.37,2.37,0,0,1,3.56-2.06l74.57,43.05a6.37,6.37,0,0,1,3.18,5.51v58.55A2.94,2.94,0,0,1,369.84,156.78Z"/><polygon class="cls-13" points="366.8 108.02 356.36 101.99 356.36 93.12 366.8 99.15 366.8 108.02"/><path class="cls-14" d="M175.91,155.82l73.65-42.52a6.5,6.5,0,0,0,3.24-5.62V48.21a2.38,2.38,0,0,0-3.56-2.06L174.67,89.2a6.37,6.37,0,0,0-3.18,5.51v58.55A3,3,0,0,0,175.91,155.82Z"/><path class="cls-15" d="M177.27,156.78l73.64-42.52a6.47,6.47,0,0,0,3.25-5.61V49.18a2.38,2.38,0,0,0-3.57-2.06L176,90.17a6.38,6.38,0,0,0-3.19,5.51v58.55A3,3,0,0,0,177.27,156.78Z"/><polygon class="cls-13" points="180.31 108.02 190.75 101.99 190.75 93.12 180.31 99.15 180.31 108.02"/><path class="cls-16" d="M386.92,115,286.13,56.81a23.87,23.87,0,0,0-23.84,0L161.5,115v56.5a2.5,2.5,0,0,0,3.75,2.16l97-56a23.8,23.8,0,0,1,23.84,0l97,56a2.5,2.5,0,0,0,3.75-2.16Z"/><path class="cls-17" d="M280.1,21.86a23.5,23.5,0,0,0-12.77.28v102a15.52,15.52,0,0,1,4.65-.72h4.47a15.46,15.46,0,0,1,3.65.45Z"/><line class="cls-18" x1="157.55" y1="73.83" x2="157.55" y2="75.33"/><line class="cls-19" x1="157.55" y1="78.28" x2="157.55" y2="176.89"/><line class="cls-18" x1="157.55" y1="178.36" x2="157.55" y2="179.86"/><line class="cls-18" x1="391.42" y1="74.34" x2="391.42" y2="75.84"/><line class="cls-19" x1="391.42" y1="78.79" x2="391.42" y2="177.4"/><line class="cls-18" x1="391.42" y1="178.87" x2="391.42" y2="180.37"/><path class="cls-20" d="M309.35,245.54c0-7.81-12.5-14.15-27.91-14.15a53.26,53.26,0,0,0-9.42.83c-9.1,2.33-15.35,7.11-15.35,12.63,0,7.81,12.5,14.14,27.91,14.14a53.28,53.28,0,0,0,9.42-.82C303.1,255.84,309.35,251.06,309.35,245.54Z"/><path class="cls-21" d="M253.3,236.27c4.35-4.94,14.12-8.38,25.48-8.38s21.13,3.44,25.49,8.38h2.43V242c0,7.81-12.5,14.14-27.92,14.14s-27.91-6.33-27.91-14.14v-5.77Z"/><path class="cls-22" d="M253.3,236.27c4.35-4.94,14.12-8.38,25.48-8.38s21.13,3.44,25.49,8.38h2.43V242c0,7.81-12.5,14.14-27.92,14.14s-27.91-6.33-27.91-14.14v-5.77Z"/><path class="cls-13" d="M250.87,236.27c0,7.81,12.5,14.14,27.91,14.14s27.92-6.33,27.92-14.14-12.5-14.15-27.92-14.15S250.87,228.46,250.87,236.27Z"/><ellipse class="cls-23" cx="278.78" cy="235.58" rx="21.6" ry="9.61"/><path class="cls-13" d="M281,235.31c-1.31-1.88-1.38-2.61-.31-3.23a4.47,4.47,0,0,1,4.39.28,4.72,4.72,0,0,1,2.18,2.23l.08.18,2.78-.72-.06-.14a6,6,0,0,0-2.24-2.31l2.41-1.39-2-1.13-2.51,1.45a9.44,9.44,0,0,0-7.87.25c-2.5,1.44-1.61,3.27-.28,5,1.13,1.54,1.1,2.45-.09,3.14a5.27,5.27,0,0,1-5-.3,5.13,5.13,0,0,1-2.4-2.58l-.08-.2-2.77.75,0,.13a5.93,5.93,0,0,0,2.56,2.77L267.43,241l2,1.13,2.6-1.5a10,10,0,0,0,8.3-.27C282.45,239.06,282.67,237.57,281,235.31Z"/><path class="cls-24" d="M226.81,220.25c0-7.81-12.5-14.15-27.92-14.15a53.23,53.23,0,0,0-9.41.83c-9.11,2.33-15.35,7.11-15.35,12.63,0,7.81,12.49,14.14,27.91,14.14a53.45,53.45,0,0,0,9.42-.82C220.56,230.55,226.81,225.77,226.81,220.25Z"/><path class="cls-21" d="M219.57,212.67c-4.35-4.93-14.12-8.38-25.48-8.38s-21.13,3.45-25.49,8.38h-2.43v5.77c0,7.81,12.5,14.14,27.92,14.14S222,226.25,222,218.44v-5.77Z"/><path class="cls-25" d="M219.57,212.67c-4.35-4.93-14.12-8.38-25.48-8.38s-21.13,3.45-25.49,8.38h-2.43v5.77c0,7.81,12.5,14.14,27.92,14.14S222,226.25,222,218.44v-5.77Z"/><ellipse class="cls-13" cx="194.09" cy="212.67" rx="27.91" ry="14.14"/><ellipse class="cls-23" cx="194.09" cy="211.98" rx="21.6" ry="9.61"/><path class="cls-13" d="M191.85,211.72c1.32-1.89,1.38-2.61.31-3.23a4.42,4.42,0,0,0-4.38.27,4.75,4.75,0,0,0-2.19,2.23l-.08.18-2.78-.72.06-.13A5.91,5.91,0,0,1,185,208l-2.41-1.39,2-1.13,2.51,1.45a9.44,9.44,0,0,1,7.87.25c2.5,1.45,1.61,3.27.29,5-1.14,1.54-1.11,2.45.08,3.14a5.24,5.24,0,0,0,5-.3,5.13,5.13,0,0,0,2.4-2.58l.08-.2,2.77.76,0,.12a5.93,5.93,0,0,1-2.56,2.77l2.48,1.44-1.95,1.13L200.88,217a10,10,0,0,1-8.3-.27C190.42,215.47,190.21,214,191.85,211.72Z"/><path class="cls-26" d="M381.08,190.05c0-8.09-12.95-14.65-28.93-14.65a55.12,55.12,0,0,0-9.75.85c-9.44,2.42-15.91,7.37-15.91,13.09,0,8.1,12.95,14.66,28.92,14.66a55.13,55.13,0,0,0,9.76-.86C374.6,200.73,381.08,195.78,381.08,190.05Z"/><path class="cls-21" d="M369.69,180.77c-4.35-4.93-14.12-8.37-25.48-8.37s-21.13,3.44-25.49,8.37h-2.43v5.77c0,7.81,12.5,14.14,27.92,14.14s27.91-6.33,27.91-14.14v-5.77Z"/><path class="cls-27" d="M369.69,180.77c-4.35-4.93-14.12-8.37-25.48-8.37s-21.13,3.44-25.49,8.37h-2.43v5.77c0,7.81,12.5,14.14,27.92,14.14s27.91-6.33,27.91-14.14v-5.77Z"/><ellipse class="cls-13" cx="344.21" cy="180.77" rx="27.91" ry="14.14"/><ellipse class="cls-23" cx="344.21" cy="180.09" rx="21.6" ry="9.61"/><path class="cls-13" d="M342,179.82c1.31-1.89,1.38-2.61.31-3.23a4.49,4.49,0,0,0-4.39.27,4.81,4.81,0,0,0-2.18,2.23l-.08.18-2.78-.72.06-.13a5.89,5.89,0,0,1,2.24-2.31l-2.41-1.4,2-1.13,2.51,1.45a9.44,9.44,0,0,1,7.87.26c2.5,1.44,1.61,3.27.28,5-1.13,1.55-1.1,2.46.09,3.14a5.24,5.24,0,0,0,5-.3,5.09,5.09,0,0,0,2.4-2.58l.08-.2,2.77.76,0,.12a5.89,5.89,0,0,1-2.56,2.77l2.48,1.44-2,1.13-2.6-1.51a10,10,0,0,1-8.3-.27C340.54,183.57,340.32,182.07,342,179.82Z"/><path class="cls-28" d="M370.81,178.86c0-7.81-12.49-14.15-27.91-14.15a53.34,53.34,0,0,0-9.42.83c-9.1,2.33-15.35,7.11-15.35,12.63,0,7.81,12.5,14.14,27.92,14.14a53.25,53.25,0,0,0,9.41-.82C364.56,189.16,370.81,184.38,370.81,178.86Z"/><path class="cls-21" d="M368.12,170.88c-4.36-4.94-14.13-8.38-25.49-8.38s-21.13,3.44-25.48,8.38h-2.43v5.76c0,7.81,12.5,14.15,27.91,14.15s27.92-6.34,27.92-14.15v-5.76Z"/><path class="cls-29" d="M368.12,170.88c-4.36-4.94-14.13-8.38-25.49-8.38s-21.13,3.44-25.48,8.38h-2.43v5.76c0,7.81,12.5,14.15,27.91,14.15s27.92-6.34,27.92-14.15v-5.76Z"/><ellipse class="cls-13" cx="342.63" cy="170.88" rx="27.91" ry="14.14"/><ellipse class="cls-23" cx="342.63" cy="170.19" rx="21.6" ry="9.61"/><path class="cls-13" d="M340.4,169.92c1.31-1.88,1.38-2.61.31-3.23a4.49,4.49,0,0,0-4.39.27,4.75,4.75,0,0,0-2.18,2.23l-.09.19-2.77-.72.06-.14a6,6,0,0,1,2.24-2.31l-2.42-1.39,2-1.13,2.51,1.45a9.43,9.43,0,0,1,7.88.25c2.5,1.44,1.61,3.27.28,5-1.13,1.54-1.1,2.45.09,3.14a5.27,5.27,0,0,0,5-.3,5.13,5.13,0,0,0,2.4-2.58l.07-.2,2.77.75,0,.12a5.9,5.9,0,0,1-2.56,2.78l2.48,1.43-2,1.13-2.61-1.5a10,10,0,0,1-8.29-.27C339,173.67,338.75,172.18,340.4,169.92Z"/><path class="cls-30" d="M370.55,170.88c0-7.81-12.5-14.15-27.92-14.15a53.23,53.23,0,0,0-9.41.83c-9.11,2.33-15.35,7.11-15.35,12.63,0,7.81,12.49,14.14,27.91,14.14a53.25,53.25,0,0,0,9.41-.82C364.3,181.18,370.55,176.4,370.55,170.88Z"/><path class="cls-21" d="M371.27,163.29c-4.36-4.93-14.13-8.37-25.49-8.37s-21.13,3.44-25.49,8.37h-2.42v5.77c0,7.81,12.49,14.14,27.91,14.14s27.91-6.33,27.91-14.14v-5.77Z"/><path class="cls-31" d="M371.27,163.29c-4.36-4.93-14.13-8.37-25.49-8.37s-21.13,3.44-25.49,8.37h-2.42v5.77c0,7.81,12.49,14.14,27.91,14.14s27.91-6.33,27.91-14.14v-5.77Z"/><ellipse class="cls-13" cx="345.78" cy="163.29" rx="27.91" ry="14.14"/><ellipse class="cls-23" cx="345.78" cy="162.61" rx="21.6" ry="9.61"/><path class="cls-13" d="M343.54,162.34c1.32-1.89,1.39-2.61.31-3.23a4.47,4.47,0,0,0-4.38.27,4.75,4.75,0,0,0-2.18,2.23l-.09.19-2.78-.73.07-.13a5.79,5.79,0,0,1,2.23-2.31l-2.41-1.4,2-1.13,2.51,1.45a9.44,9.44,0,0,1,7.87.26c2.5,1.44,1.62,3.27.29,5-1.13,1.54-1.11,2.45.09,3.14a5.28,5.28,0,0,0,5-.3,5.21,5.21,0,0,0,2.41-2.58l.07-.21,2.77.76,0,.12a5.89,5.89,0,0,1-2.56,2.78l2.49,1.43-2,1.13-2.61-1.51a10,10,0,0,1-8.3-.26C342.12,166.09,341.9,164.6,343.54,162.34Z"/><path class="cls-32" d="M370.88,157.1c-4.53-4.7-14.07-7.95-25.1-7.95-11.67,0-21.66,3.63-25.83,8.78a7.61,7.61,0,0,0-.51,2.66c0,7.81,12.5,14.15,27.91,14.15a53.26,53.26,0,0,0,9.42-.83c9.1-2.33,15.35-7.11,15.35-12.63A7.94,7.94,0,0,0,370.88,157.1Z"/><path class="cls-21" d="M367.8,154.19c-4.36-4.94-14.13-8.38-25.49-8.38s-21.13,3.44-25.48,8.38H314.4V160c0,7.81,12.5,14.15,27.91,14.15s27.92-6.34,27.92-14.15v-5.76Z"/><path class="cls-33" d="M367.8,154.19c-4.36-4.94-14.13-8.38-25.49-8.38s-21.13,3.44-25.48,8.38H314.4V160c0,7.81,12.5,14.15,27.91,14.15s27.92-6.34,27.92-14.15v-5.76Z"/><ellipse class="cls-13" cx="342.31" cy="154.19" rx="27.91" ry="14.14"/><ellipse class="cls-23" cx="342.31" cy="153.5" rx="21.6" ry="9.61"/><path class="cls-13" d="M340.08,153.23c1.31-1.88,1.38-2.61.31-3.23a4.49,4.49,0,0,0-4.39.27,4.75,4.75,0,0,0-2.18,2.23l-.09.19L331,152l.06-.14a6,6,0,0,1,2.24-2.31l-2.42-1.39,2-1.13,2.51,1.45a9.43,9.43,0,0,1,7.88.25c2.5,1.44,1.61,3.27.28,5-1.13,1.54-1.1,2.45.09,3.14a5.27,5.27,0,0,0,5-.3,5.13,5.13,0,0,0,2.4-2.58l.07-.2,2.77.75,0,.12a5.9,5.9,0,0,1-2.56,2.78l2.48,1.43-2,1.13-2.61-1.5a10,10,0,0,1-8.29-.27C338.65,157,338.43,155.49,340.08,153.23Z"/><path class="cls-34" d="M177.35,391.86h12.06a51.73,51.73,0,0,0,26.15-7.1l99.85-58.45a7.32,7.32,0,0,0,.16-12.55L133,200.68Z"/><path class="cls-35" d="M12.84,214.55l82.9-48c2.23-1.27,5.38-.95,8.8,1.33l158.2,120.21A33.38,33.38,0,0,1,273.15,300h0a31.42,31.42,0,0,1,4,14.33v12.13c0,4.62-1.52,7.94-4,9.7v0l-.26.15a5.38,5.38,0,0,1-.66.38L190.6,384V352.5l1-.63Z"/><path class="cls-36" d="M209,360.16l56.5-32.62a2.25,2.25,0,0,0,1.13-2h0a2.25,2.25,0,0,0-3.38-1.95l-56.5,32.62a2.24,2.24,0,0,0-1.13,1.95h0A2.25,2.25,0,0,0,209,360.16Z"/><path class="cls-37" d="M277.15,314.36v12.13c0,4.62-1.52,7.94-4,9.7v0l-.26.15a5.38,5.38,0,0,1-.66.38l-80.65,46.68V351.87l83.13-48.53A29.05,29.05,0,0,1,277.15,314.36Z"/><path class="cls-36" d="M21.82,215.78,180,336c8.13,5.41,14.41,16.86,14.41,26.28V374.4c0,10-7,14-15.6,9L21,292.26c-6.23-3.6-11.29-12.36-11.29-19.56V221.76C9.66,214.17,15.26,211.41,21.82,215.78Z"/><path class="cls-38" d="M21.82,215.78,180,336c8.13,5.41,14.41,16.86,14.41,26.28V374.4c0,10-7,14-15.6,9L21,292.26c-6.23-3.6-11.29-12.36-11.29-19.56V221.76C9.66,214.17,15.26,211.41,21.82,215.78Z"/><path class="cls-35" d="M17,219.29,175.2,339.5c8.13,5.41,14.41,16.86,14.41,26.28v12.13c0,9.95-7,14-15.6,9L16.14,295.77c-6.24-3.6-11.29-12.36-11.29-19.56V225.27C4.85,217.68,10.44,214.92,17,219.29Z"/><path class="cls-36" d="M12.15,222.09,170.36,342.3c8.13,5.42,14.41,16.87,14.41,26.29v12.13c0,9.95-7,14-15.61,9L11.29,298.58C5.05,295,0,286.22,0,279V228.08C0,220.48,5.6,217.73,12.15,222.09Z"/><path class="cls-39" d="M44.44,217.31l60.22-34.77c2.21-1.27,1.93-3.5-.62-5h0c-2.54-1.47-6.4-1.63-8.6-.35L35.22,212c-2.21,1.27-1.93,3.49.62,5h0C38.38,218.42,42.24,218.58,44.44,217.31Z"/><path class="cls-36" d="M40.7,216.68a6.12,6.12,0,0,0,3-.66l60.22-34.77c.22-.13.74-.47.74-.87s-.35-.94-1.36-1.52a8.44,8.44,0,0,0-4.12-1,6.23,6.23,0,0,0-3,.66L36,213.27c-.22.13-.75.48-.75.87s.36,1,1.37,1.53A8.55,8.55,0,0,0,40.7,216.68Z"/><path class="cls-40" d="M103.3,178.86,37.86,216.22s-1.9-39-18.51-54.61L84,124.89S102.05,144.47,103.3,178.86Z"/><polygon class="cls-41" points="112.85 190.19 154.4 221.17 92.38 257.84 51.58 226.23 112.85 190.19"/><polygon class="cls-42" points="112.85 190.19 154.4 221.17 92.38 257.84 51.58 226.23 112.85 190.19"/><polygon class="cls-36" points="112.85 190.19 51.58 226.23 49.67 224.75 112.85 187.59 156.34 220.02 154.4 221.17 112.85 190.19"/><path class="cls-43" d="M153.21,234.51c.86,1.46,4.2,1.06,7.45-.87s5.19-4.68,4.33-6.14-4.2-1.06-7.46.88S152.34,233.06,153.21,234.51Z"/><path class="cls-44" d="M153.21,232.56c.86,1.45,4.2,1.06,7.45-.88s5.19-4.68,4.33-6.13-4.2-1.06-7.46.88S152.34,231.11,153.21,232.56Z"/><path class="cls-41" d="M137.09,244.06c.87,1.46,4.21,1.06,7.46-.87s5.19-4.68,4.33-6.14-4.21-1.06-7.46.88S136.23,242.61,137.09,244.06Z"/><path class="cls-40" d="M137.09,242.11c.87,1.45,4.21,1.06,7.46-.88s5.19-4.68,4.33-6.13-4.21-1.06-7.46.88S136.23,240.66,137.09,242.11Z"/><path class="cls-41" d="M121,253.61c.87,1.46,4.2,1.06,7.46-.87s5.19-4.68,4.32-6.14-4.2-1.06-7.45.88S120.12,252.16,121,253.61Z"/><path class="cls-40" d="M121,251.66c.87,1.45,4.2,1.06,7.46-.88s5.19-4.68,4.32-6.13-4.2-1.06-7.45.88S120.12,250.21,121,251.66Z"/><path class="cls-41" d="M104.87,263.16c.86,1.46,4.2,1.06,7.45-.87s5.2-4.68,4.33-6.14-4.2-1.06-7.45.88S104,261.71,104.87,263.16Z"/><path class="cls-40" d="M104.87,261.21c.86,1.45,4.2,1.06,7.45-.88s5.2-4.68,4.33-6.13-4.2-1.06-7.45.88S104,259.76,104.87,261.21Z"/><path class="cls-45" d="M168.73,242.13c-.57,2.57,2.55,5.45,7,6.43s8.45-.32,9-2.9-2.54-5.45-6.95-6.42S169.3,239.55,168.73,242.13Z"/><ellipse class="cls-46" cx="176.72" cy="241.94" rx="4.78" ry="8.18" transform="translate(-97.71 362.18) rotate(-77.52)"/><ellipse class="cls-45" cx="159.59" cy="253.84" rx="4.77" ry="8.18" transform="translate(-122.75 354.79) rotate(-77.52)"/><path class="cls-46" d="M151.6,250.12c-.57,2.57,2.55,5.45,7,6.43s8.44-.32,9-2.9-2.54-5.45-6.95-6.42S152.17,247.55,151.6,250.12Z"/><path class="cls-45" d="M134.47,262c-.57,2.57,2.55,5.45,7,6.43s8.44-.32,9-2.9-2.54-5.45-6.95-6.43S135,259.44,134.47,262Z"/><path class="cls-46" d="M134.47,260.06c-.57,2.58,2.55,5.46,7,6.43s8.44-.32,9-2.89-2.54-5.45-6.95-6.43S135,257.49,134.47,260.06Z"/><path class="cls-43" d="M117.35,272c-.57,2.58,2.54,5.45,7,6.43s8.44-.32,9-2.89-2.54-5.46-7-6.43S117.92,269.39,117.35,272Z"/><path class="cls-44" d="M117.35,270c-.57,2.57,2.54,5.45,7,6.43s8.44-.32,9-2.9-2.54-5.45-7-6.43S117.92,267.43,117.35,270Z"/><path class="cls-45" d="M188.34,256.07c-.57,2.57,2.55,5.45,7,6.43s8.44-.32,9-2.9-2.54-5.45-6.95-6.43S188.91,253.49,188.34,256.07Z"/><path class="cls-46" d="M188.34,254.12c-.57,2.57,2.55,5.45,7,6.42s8.44-.32,9-2.89-2.54-5.45-6.95-6.43S188.91,251.54,188.34,254.12Z"/><path class="cls-45" d="M171.21,266c-.57,2.58,2.55,5.46,7,6.43s8.44-.32,9-2.89-2.54-5.46-7-6.43S171.78,263.44,171.21,266Z"/><ellipse class="cls-46" cx="179.2" cy="265.83" rx="4.78" ry="8.18" transform="translate(-119.08 383.33) rotate(-77.52)"/><ellipse class="cls-45" cx="162.07" cy="277.72" rx="4.77" ry="8.18" transform="translate(-144.12 375.93) rotate(-77.52)"/><path class="cls-46" d="M154.09,274c-.57,2.58,2.54,5.46,6.95,6.43s8.44-.32,9-2.89-2.54-5.46-7-6.43S154.66,271.43,154.09,274Z"/><path class="cls-47" d="M137,285.9c-.57,2.57,2.54,5.45,6.95,6.43s8.44-.32,9-2.9S150.38,284,146,283,137.53,283.32,137,285.9Z"/><path class="cls-48" d="M137,284c-.57,2.57,2.54,5.45,6.95,6.43s8.44-.32,9-2.9-2.54-5.45-6.95-6.43S137.53,281.37,137,284Z"/><path class="cls-45" d="M207.32,270c-.57,2.57,2.55,5.45,7,6.43s8.44-.32,9-2.9-2.54-5.45-6.95-6.43S207.89,267.43,207.32,270Z"/><path class="cls-46" d="M207.32,268.05c-.57,2.58,2.55,5.46,7,6.43s8.44-.32,9-2.89-2.54-5.45-6.95-6.43S207.89,265.48,207.32,268.05Z"/><path class="cls-45" d="M190.19,280c-.57,2.58,2.55,5.45,7,6.43s8.44-.32,9-2.89-2.54-5.46-6.95-6.43S190.76,277.38,190.19,280Z"/><path class="cls-46" d="M190.19,278c-.57,2.57,2.55,5.45,7,6.43s8.44-.32,9-2.9-2.54-5.45-6.95-6.43S190.76,275.42,190.19,278Z"/><path class="cls-45" d="M173.07,289.89c-.57,2.58,2.54,5.46,7,6.43s8.44-.32,9-2.89-2.54-5.45-6.95-6.43S173.64,287.32,173.07,289.89Z"/><path class="cls-46" d="M173.07,287.94c-.57,2.58,2.54,5.45,7,6.43s8.44-.32,9-2.89-2.54-5.46-6.95-6.43S173.64,285.37,173.07,287.94Z"/><path class="cls-45" d="M225,284.41c-.57,2.58,2.54,5.46,6.95,6.43s8.44-.32,9-2.89-2.54-5.46-7-6.43S225.54,281.84,225,284.41Z"/><path class="cls-46" d="M225,282.46c-.57,2.57,2.54,5.45,6.95,6.43s8.44-.32,9-2.9-2.54-5.45-7-6.43S225.54,279.88,225,282.46Z"/><path class="cls-45" d="M207.84,294.36c-.57,2.57,2.54,5.45,6.95,6.43s8.44-.32,9-2.9-2.54-5.45-7-6.43S208.41,291.78,207.84,294.36Z"/><path class="cls-46" d="M207.84,292.4c-.57,2.58,2.54,5.46,6.95,6.43s8.44-.32,9-2.89-2.54-5.46-7-6.43S208.41,289.83,207.84,292.4Z"/><path class="cls-45" d="M190.71,304.3c-.57,2.57,2.54,5.45,6.95,6.43s8.45-.32,9-2.9-2.55-5.45-7-6.43S191.28,301.72,190.71,304.3Z"/><path class="cls-46" d="M190.71,302.35c-.57,2.57,2.54,5.45,6.95,6.43s8.45-.32,9-2.9-2.55-5.45-7-6.43S191.28,299.77,190.71,302.35Z"/><path class="cls-49" d="M155.94,299.84c.57-2.58,4.6-3.87,9-2.9a12,12,0,0,1,5,2.32h0l17.17,14h0c1.79,1.29,2.78,2.94,2.44,4.49-.57,2.57-4.61,3.87-9,2.89a12,12,0,0,1-4.84-2.18h0l-17.06-14h0C156.67,303.19,155.58,301.45,155.94,299.84Z"/><path class="cls-50" d="M155.94,297.88c.57-2.57,4.6-3.87,9-2.89a12,12,0,0,1,5,2.31h0l17.17,14h0c1.79,1.29,2.78,2.94,2.44,4.48-.57,2.58-4.61,3.88-9,2.9a12.16,12.16,0,0,1-4.84-2.19h0l-17.06-14h0C156.67,301.23,155.58,299.5,155.94,297.88Z"/><path class="cls-41" d="M201.69,325.86a.72.72,0,0,0,.37-.11l43.86-25.49a.74.74,0,0,0,.27-1,.76.76,0,0,0-1-.27l-43.86,25.5a.75.75,0,0,0,.38,1.39Z"/><path class="cls-36" d="M55.17,156.92a.77.77,0,0,0,.36-.09l26.39-14.5a.74.74,0,0,0-.72-1.3L54.81,155.52a.75.75,0,0,0,.36,1.4Z"/><path class="cls-36" d="M58.64,164.17a.73.73,0,0,0,.35-.09l26.39-14.5a.75.75,0,0,0,.3-1,.74.74,0,0,0-1-.29L58.28,162.77a.75.75,0,0,0,.36,1.4Z"/><path class="cls-36" d="M40.68,188.51a.73.73,0,0,0,.35-.09l49.78-27.06a.75.75,0,0,0-.71-1.31L40.32,187.12a.74.74,0,0,0-.3,1A.75.75,0,0,0,40.68,188.51Z"/><path class="cls-36" d="M43.48,198.25a.73.73,0,0,0,.35-.09L93.61,171.1a.74.74,0,0,0,.3-1,.75.75,0,0,0-1-.3L43.12,196.85a.75.75,0,0,0,.36,1.4Z"/><path class="cls-36" d="M66,228.73a.76.76,0,0,0,.38-.11l48-28.81a.74.74,0,0,0,.26-1,.75.75,0,0,0-1-.26l-48,28.82a.75.75,0,0,0-.26,1A.75.75,0,0,0,66,228.73Z"/><path class="cls-36" d="M73.22,235.17a.76.76,0,0,0,.38-.11l48-28.81a.75.75,0,0,0,.25-1,.74.74,0,0,0-1-.26l-48,28.81a.75.75,0,0,0-.25,1A.73.73,0,0,0,73.22,235.17Z"/><path class="cls-36" d="M80.48,241.6a.75.75,0,0,0,.38-.1l48-28.81a.75.75,0,0,0,.26-1,.74.74,0,0,0-1-.26l-48,28.81a.74.74,0,0,0-.26,1A.73.73,0,0,0,80.48,241.6Z"/><path class="cls-36" d="M91.37,248.59a.76.76,0,0,0,.38-.11l11.62-7a.74.74,0,1,0-.77-1.27l-11.61,7a.74.74,0,0,0-.26,1A.75.75,0,0,0,91.37,248.59Z"/><path class="cls-36" d="M120.08,231.36a.75.75,0,0,0,.38-.1l19.32-11.59a.74.74,0,0,0,.26-1,.75.75,0,0,0-1-.26L119.7,230a.75.75,0,0,0-.26,1A.73.73,0,0,0,120.08,231.36Z"/><polygon class="cls-51" points="154.4 221.17 60.19 221.17 51.58 226.23 145.83 226.23 154.4 221.17"/><polygon class="cls-51" points="124.9 238.61 67.55 238.61 57.6 230.9 137.93 230.9 124.9 238.61"/><path class="cls-52" d="M356,342.55l92.39-53.34a3,3,0,0,0,0-5.22l-53.28-30.76a8,8,0,0,0-7.95,0l-92.4,53.34a3,3,0,0,0,0,5.22l53.29,30.76A8,8,0,0,0,356,342.55Z"/><path class="cls-53" d="M347.6,342.55,440,289.21a3,3,0,0,0,0-5.22l-53.28-30.76a8,8,0,0,0-7.95,0l-92.4,53.34a3,3,0,0,0,0,5.22l53.29,30.76A8,8,0,0,0,347.6,342.55Z"/><path class="cls-54" d="M347.6,342.55,440,289.21a3,3,0,0,0,0-5.22l-53.28-30.76a8,8,0,0,0-7.95,0l-92.4,53.34a3,3,0,0,0,0,5.22l53.29,30.76A8,8,0,0,0,347.6,342.55Z"/><path class="cls-55" d="M347.6,340.85,440,287.51a3,3,0,0,0,0-5.21l-53.28-30.77a8,8,0,0,0-7.95,0l-92.4,53.35a3,3,0,0,0,0,5.21l53.29,30.76A8,8,0,0,0,347.6,340.85Z"/><polygon class="cls-56" points="378.03 268.27 389.8 261.48 381.29 256.67 369.52 263.46 378.03 268.27"/><path class="cls-57" d="M354.05,322.79l6.1-3.52a2,2,0,0,0,0-3.47l-2.81-1.6a5.34,5.34,0,0,0-5.28,0l-6.1,3.52a2,2,0,0,0,0,3.47l2.81,1.6A5.36,5.36,0,0,0,354.05,322.79Z"/><path class="cls-58" d="M352.49,326.61l4.34-2.51a2.73,2.73,0,0,0,0-4.74l-1-.59a6.64,6.64,0,0,0-6.6,0l-4.34,2.51a2.73,2.73,0,0,0,0,4.74l1,.59A6.65,6.65,0,0,0,352.49,326.61Z"/><line class="cls-59" x1="349.01" y1="304.37" x2="324.52" y2="318.51"/><line class="cls-59" x1="379.66" y1="286.68" x2="355.64" y2="300.54"/><line class="cls-59" x1="401.83" y1="273.87" x2="384.8" y2="283.71"/><line class="cls-59" x1="422.8" y1="283.71" x2="405.76" y2="293.55"/><line class="cls-59" x1="323.18" y1="293.98" x2="300.44" y2="307.11"/><path class="cls-60" d="M347.6,340.85,440,287.51a3,3,0,0,0,0-5.21l-53.28-30.77a8,8,0,0,0-7.95,0l-92.4,53.35a3,3,0,0,0,0,5.21l53.29,30.76A8,8,0,0,0,347.6,340.85Z"/></g></g></g></svg>