<svg xmlns="http://www.w3.org/2000/svg" width="883" height="528"><g transform="translate(0.887 4.461)"><g transform="translate(0 -0)"><g transform="translate(0 -0)"><path d="M 577.659 112.808 L 592.866 112.808 L 592.866 521.15 L 577.659 521.15 Z" fill="rgb(192,206,206)"></path><path d="M 484.712 123.924 L 683.716 123.924 L 683.716 133.964 L 484.712 133.964 Z M 492.217 101.695 L 495.497 101.695 L 495.497 123.924 L 492.217 123.924 Z" fill="rgb(192,206,206)"></path><path d="M 484.985 106.231 C 484.985 105.106 489.008 104.204 493.977 104.204 C 498.945 104.204 502.968 105.116 502.968 106.231 C 502.968 107.346 498.942 108.258 493.977 108.258 C 489.011 108.258 484.985 107.356 484.985 106.231 Z M 484.985 102.157 C 484.985 101.033 489.008 100.131 493.977 100.131 C 498.945 100.131 502.968 101.043 502.968 102.157 C 502.968 103.272 498.942 104.184 493.977 104.184 C 489.011 104.184 484.985 103.282 484.985 102.157 Z" fill="rgb(192,206,206)"></path><path d="M 484.985 98.084 C 484.985 96.959 489.011 96.047 493.977 96.047 C 498.942 96.047 502.968 96.959 502.968 98.084 C 502.968 99.209 498.942 100.121 493.977 100.121 C 489.011 100.121 484.985 99.209 484.985 98.084 Z" fill="rgb(192,206,206)"></path><path d="M 484.985 94.007 C 484.985 92.882 489.008 91.98 493.977 91.98 C 498.945 91.98 502.968 92.892 502.968 94.007 C 502.968 95.121 498.942 96.033 493.977 96.033 C 489.011 96.033 484.985 95.131 484.985 94.007 Z" fill="rgb(192,206,206)"></path><path d="M 488.4 93.091 L 499.31 93.091 L 499.31 106.954 L 488.4 106.954 Z M 582.456 101.695 L 585.735 101.695 L 585.735 123.924 L 582.456 123.924 Z" fill="rgb(192,206,206)"></path><path d="M 575.221 106.231 C 575.221 105.106 579.247 104.204 584.216 104.204 C 589.184 104.204 593.207 105.116 593.207 106.231 C 593.207 107.346 589.181 108.258 584.216 108.258 C 579.25 108.258 575.221 107.356 575.221 106.231 Z M 575.221 102.157 C 575.221 101.033 579.247 100.131 584.216 100.131 C 589.184 100.131 593.207 101.043 593.207 102.157 C 593.207 103.272 589.181 104.184 584.216 104.184 C 579.25 104.184 575.221 103.282 575.221 102.157 Z" fill="rgb(192,206,206)"></path><path d="M 575.224 98.084 C 575.224 96.959 579.25 96.047 584.216 96.047 C 589.181 96.047 593.207 96.959 593.207 98.084 C 593.207 99.209 589.181 100.121 584.216 100.121 C 579.25 100.121 575.224 99.209 575.224 98.084 Z" fill="rgb(192,206,206)"></path><path d="M 575.221 94.007 C 575.221 92.882 579.247 91.98 584.216 91.98 C 589.184 91.98 593.207 92.892 593.207 94.007 C 593.207 95.121 589.181 96.033 584.216 96.033 C 579.25 96.033 575.221 95.131 575.221 94.007 Z" fill="rgb(192,206,206)"></path><path d="M 578.639 93.091 L 589.549 93.091 L 589.549 106.954 L 578.639 106.954 Z M 672.965 101.695 L 676.245 101.695 L 676.245 123.924 L 672.965 123.924 Z" fill="rgb(192,206,206)"></path><path d="M 665.733 106.231 C 665.733 105.106 669.756 104.204 674.725 104.204 C 679.693 104.204 683.716 105.116 683.716 106.231 C 683.716 107.346 679.69 108.258 674.725 108.258 C 669.759 108.258 665.733 107.356 665.733 106.231 Z M 665.733 102.157 C 665.733 101.033 669.756 100.131 674.725 100.131 C 679.693 100.131 683.716 101.043 683.716 102.157 C 683.716 103.272 679.69 104.184 674.725 104.184 C 669.759 104.184 665.733 103.282 665.733 102.157 Z M 665.733 98.084 C 665.733 96.955 669.756 96.057 674.725 96.057 C 679.693 96.057 683.716 96.969 683.716 98.084 C 683.716 99.198 679.69 100.11 674.725 100.11 C 669.759 100.11 665.733 99.209 665.733 98.084 Z M 665.733 94.007 C 665.733 92.882 669.756 91.98 674.725 91.98 C 679.693 91.98 683.716 92.892 683.716 94.007 C 683.716 95.121 679.69 96.033 674.725 96.033 C 669.759 96.033 665.733 95.131 665.733 94.007 Z" fill="rgb(192,206,206)"></path><path d="M 669.148 93.091 L 680.058 93.091 L 680.058 106.954 L 669.148 106.954 Z M 585.273 178.775 L 528.892 131.7 L 530.973 129.228 L 585.256 174.552 L 640.414 127.714 L 642.511 130.17 Z" fill="rgb(192,206,206)"></path><path d="M 98.7 432.859 L 80.305 432.859 C 80.258 432.86 80.212 432.842 80.179 432.809 C 80.145 432.776 80.126 432.731 80.126 432.684 L 80.126 337.839 C 80.126 337.792 80.145 337.747 80.179 337.714 C 80.212 337.681 80.258 337.663 80.305 337.664 L 98.7 337.664 C 98.747 337.663 98.793 337.681 98.826 337.714 C 98.86 337.747 98.879 337.792 98.879 337.839 L 98.879 432.687 C 98.878 432.733 98.859 432.778 98.825 432.81 C 98.792 432.842 98.747 432.86 98.7 432.859 Z M 80.481 432.521 L 98.524 432.521 L 98.524 338.018 L 80.481 338.018 Z" fill="rgb(203,215,216)"></path><path d="M 106.965 496.086 L 71.925 496.086 C 71.874 496.087 71.825 496.067 71.79 496.029 C 71.757 495.99 71.742 495.938 71.749 495.887 L 80.129 432.66 C 80.14 432.571 80.215 432.504 80.305 432.504 L 98.7 432.504 C 98.789 432.505 98.864 432.572 98.876 432.66 L 107.141 495.887 C 107.147 495.939 107.131 495.99 107.097 496.029 C 107.063 496.066 107.015 496.087 106.965 496.086 Z M 72.124 495.749 L 106.763 495.749 L 98.545 432.873 L 80.46 432.873 Z" fill="rgb(203,215,216)"></path><path d="M 75.303 521.188 L 68.588 521.188 C 68.537 521.187 68.489 521.165 68.456 521.127 C 68.422 521.089 68.406 521.039 68.412 520.988 L 71.749 495.887 C 71.76 495.799 71.836 495.733 71.925 495.735 L 85.814 495.735 C 85.874 495.734 85.93 495.763 85.963 495.813 C 85.993 495.863 85.999 495.923 85.98 495.978 L 75.468 521.079 C 75.438 521.144 75.374 521.186 75.303 521.188 Z M 68.79 520.85 L 75.178 520.85 L 85.541 496.103 L 72.077 496.103 Z M 110.242 521.188 L 103.527 521.188 C 103.456 521.187 103.393 521.144 103.365 521.079 L 92.853 495.978 C 92.831 495.924 92.837 495.862 92.869 495.813 C 92.902 495.764 92.957 495.735 93.015 495.735 L 106.908 495.735 C 106.996 495.736 107.07 495.8 107.084 495.887 L 110.417 520.988 C 110.425 521.038 110.41 521.089 110.377 521.127 C 110.342 521.165 110.293 521.187 110.242 521.188 Z M 103.645 520.85 L 110.042 520.85 L 106.753 496.103 L 93.282 496.103 Z M 142.441 432.859 L 39.083 432.859 C 39 432.858 38.93 432.798 38.914 432.716 C 38.899 432.635 38.943 432.553 39.019 432.521 L 80.244 416.71 C 80.266 416.706 80.287 416.706 80.308 416.71 L 98.764 416.71 L 142.506 432.515 C 142.586 432.546 142.634 432.629 142.62 432.714 C 142.605 432.8 142.529 432.862 142.441 432.859 Z M 40.029 432.521 L 141.431 432.521 L 98.67 417.071 L 80.339 417.071 Z M 136.314 385.437 L 45.204 385.437 C 45.12 385.439 45.046 385.38 45.029 385.298 C 45.011 385.215 45.055 385.132 45.133 385.099 L 80.244 369.294 C 80.269 369.289 80.294 369.289 80.319 369.294 L 98.714 369.294 C 98.736 369.289 98.759 369.289 98.781 369.294 L 136.392 385.103 C 136.469 385.135 136.513 385.217 136.497 385.299 C 136.48 385.381 136.408 385.44 136.324 385.44 Z M 46.031 385.099 L 135.433 385.099 L 98.666 369.645 L 80.342 369.645 Z M 126.674 338.018 L 54.841 338.018 C 54.756 338.018 54.683 337.957 54.668 337.873 C 54.651 337.79 54.697 337.707 54.776 337.677 L 83.426 326.169 C 83.448 326.165 83.471 326.165 83.494 326.169 L 96.339 326.169 L 126.738 337.674 C 126.819 337.705 126.867 337.788 126.853 337.873 C 126.837 337.959 126.761 338.02 126.674 338.018 Z M 55.742 337.68 L 125.705 337.68 L 96.244 326.533 L 83.527 326.533 Z" fill="rgb(203,215,216)"></path><path d="M 96.278 326.513 L 83.494 326.513 C 83.438 326.513 83.385 326.487 83.352 326.443 C 83.318 326.398 83.307 326.341 83.321 326.287 L 89.33 304.28 C 89.352 304.205 89.421 304.153 89.499 304.152 C 89.578 304.15 89.649 304.201 89.671 304.277 L 96.457 326.283 C 96.474 326.337 96.464 326.395 96.43 326.439 C 96.396 326.488 96.338 326.516 96.278 326.513 Z M 83.727 326.175 L 96.038 326.175 L 89.513 304.979 Z M 98.7 353.823 L 80.305 353.823 C 80.231 353.825 80.164 353.778 80.14 353.709 C 80.112 353.639 80.133 353.56 80.19 353.513 L 89.232 345.743 L 80.19 337.974 C 80.133 337.927 80.112 337.848 80.14 337.778 C 80.165 337.709 80.231 337.663 80.305 337.664 L 98.7 337.664 C 98.774 337.663 98.84 337.709 98.866 337.778 C 98.893 337.848 98.872 337.927 98.815 337.974 L 89.773 345.743 L 98.815 353.513 C 98.872 353.56 98.893 353.639 98.866 353.709 C 98.841 353.778 98.774 353.825 98.7 353.823 Z M 80.781 353.486 L 98.224 353.486 L 89.503 345.993 Z M 80.781 338.035 L 89.503 345.527 L 98.224 338.035 Z" fill="rgb(203,215,216)"></path><path d="M 98.7 369.632 L 80.305 369.632 C 80.231 369.632 80.165 369.586 80.14 369.517 C 80.112 369.448 80.133 369.369 80.19 369.321 L 89.232 361.552 L 80.19 353.783 C 80.134 353.734 80.114 353.656 80.14 353.586 C 80.165 353.517 80.231 353.47 80.305 353.469 L 98.7 353.469 C 98.774 353.47 98.84 353.517 98.866 353.586 C 98.891 353.656 98.871 353.734 98.815 353.783 L 89.773 361.552 L 98.815 369.321 C 98.872 369.369 98.893 369.448 98.866 369.517 C 98.84 369.586 98.774 369.632 98.7 369.632 Z M 80.781 369.294 L 98.224 369.294 L 89.503 361.802 Z M 80.781 353.84 L 89.503 361.336 L 98.224 353.84 Z" fill="rgb(203,215,216)"></path><path d="M 98.7 385.437 L 80.305 385.437 C 80.231 385.438 80.164 385.392 80.14 385.322 C 80.113 385.253 80.134 385.174 80.19 385.126 L 89.232 377.357 L 80.19 369.588 C 80.133 369.541 80.112 369.461 80.14 369.392 C 80.165 369.323 80.231 369.277 80.305 369.277 L 98.7 369.277 C 98.774 369.277 98.84 369.323 98.866 369.392 C 98.893 369.461 98.872 369.541 98.815 369.588 L 89.773 377.357 L 98.815 385.126 C 98.871 385.174 98.892 385.253 98.866 385.322 C 98.841 385.392 98.774 385.438 98.7 385.437 Z M 80.781 385.099 L 98.224 385.099 L 89.503 377.604 Z M 80.781 369.645 L 89.503 377.138 L 98.224 369.645 Z" fill="rgb(203,215,216)"></path><path d="M 98.7 401.246 L 80.305 401.246 C 80.231 401.246 80.165 401.2 80.14 401.131 C 80.112 401.061 80.133 400.982 80.19 400.935 L 89.232 393.166 L 80.19 385.397 C 80.134 385.348 80.113 385.27 80.14 385.201 C 80.164 385.131 80.231 385.084 80.305 385.086 L 98.7 385.086 C 98.774 385.084 98.841 385.131 98.866 385.201 C 98.892 385.27 98.871 385.348 98.815 385.397 L 89.773 393.166 L 98.822 400.935 C 98.879 400.982 98.9 401.061 98.872 401.131 C 98.846 401.202 98.776 401.249 98.7 401.246 Z M 80.781 400.891 L 98.224 400.891 L 89.503 393.399 Z M 80.781 385.437 L 89.503 392.933 L 98.224 385.437 Z" fill="rgb(203,215,216)"></path><path d="M 98.7 417.054 L 80.305 417.054 C 80.231 417.053 80.165 417.006 80.14 416.937 C 80.114 416.867 80.134 416.789 80.19 416.74 L 89.232 408.971 L 80.19 401.202 C 80.133 401.154 80.112 401.075 80.14 401.006 C 80.165 400.936 80.231 400.891 80.305 400.891 L 98.7 400.891 C 98.774 400.891 98.84 400.936 98.866 401.006 C 98.893 401.075 98.872 401.154 98.815 401.202 L 89.773 408.971 L 98.815 416.74 C 98.871 416.789 98.891 416.867 98.866 416.937 C 98.84 417.006 98.774 417.053 98.7 417.054 Z M 80.781 416.716 L 98.224 416.716 L 89.503 409.224 Z M 80.781 401.262 L 89.503 408.755 L 98.224 401.262 Z M 100.815 448.668 L 78.164 448.668 C 78.087 448.667 78.019 448.619 77.995 448.546 C 77.971 448.474 77.995 448.396 78.056 448.35 L 89.202 439.767 L 80.194 432.822 C 80.133 432.777 80.109 432.698 80.133 432.626 C 80.157 432.554 80.225 432.505 80.302 432.504 L 98.697 432.504 C 98.773 432.505 98.841 432.554 98.866 432.626 C 98.89 432.698 98.865 432.777 98.805 432.822 L 89.786 439.78 L 100.933 448.364 C 100.991 448.411 101.014 448.489 100.99 448.56 C 100.96 448.629 100.89 448.672 100.815 448.668 Z M 78.684 448.33 L 100.301 448.33 L 89.492 440.007 Z M 80.825 432.876 L 89.496 439.561 L 98.18 432.876 Z" fill="rgb(203,215,216)"></path><path d="M 102.875 464.473 L 76.019 464.473 C 75.941 464.473 75.872 464.422 75.85 464.348 C 75.827 464.272 75.857 464.191 75.924 464.149 L 89.141 455.704 L 78.066 448.61 C 77.972 448.583 77.919 448.486 77.946 448.392 C 77.973 448.299 78.07 448.245 78.164 448.272 L 100.815 448.272 C 100.906 448.252 100.997 448.307 101.022 448.397 C 101.047 448.486 100.997 448.58 100.909 448.61 L 89.8 455.704 L 102.973 464.149 C 103.041 464.19 103.071 464.272 103.047 464.348 C 103.024 464.423 102.954 464.475 102.875 464.473 Z M 76.627 464.135 L 102.27 464.135 L 89.469 455.947 Z M 78.768 448.681 L 89.469 455.525 L 100.207 448.681 Z" fill="rgb(203,215,216)"></path><path d="M 105.037 480.281 L 73.877 480.281 C 73.795 480.282 73.724 480.226 73.705 480.146 C 73.686 480.068 73.722 479.986 73.793 479.947 L 89.08 471.614 L 75.934 464.439 C 75.864 464.4 75.829 464.318 75.85 464.24 C 75.869 464.162 75.939 464.107 76.019 464.108 L 102.875 464.108 C 102.962 464.098 103.044 464.155 103.065 464.24 C 103.086 464.325 103.041 464.413 102.959 464.446 L 89.823 471.607 L 105.121 479.94 C 105.192 479.979 105.228 480.061 105.209 480.139 C 105.193 480.222 105.121 480.281 105.037 480.281 Z M 74.573 479.927 L 104.341 479.927 L 89.452 471.82 Z M 76.715 464.473 L 89.452 471.411 L 102.179 464.473 Z" fill="rgb(203,215,216)"></path><path d="M 107.053 496.086 L 71.925 496.086 C 71.843 496.086 71.771 496.031 71.749 495.951 C 71.732 495.87 71.772 495.788 71.847 495.752 L 89.074 487.534 L 73.813 480.264 C 73.741 480.227 73.703 480.145 73.721 480.065 C 73.74 479.986 73.809 479.929 73.891 479.927 L 105.037 479.927 C 105.118 479.929 105.188 479.986 105.206 480.065 C 105.224 480.145 105.187 480.227 105.114 480.264 L 89.884 487.534 L 107.111 495.752 C 107.189 495.785 107.233 495.869 107.215 495.952 C 107.197 496.035 107.121 496.093 107.036 496.09 Z M 72.705 495.749 L 106.27 495.749 L 89.472 487.746 Z M 74.661 480.295 L 89.472 487.351 L 104.256 480.295 Z M 68.355 385.437 C 68.311 385.439 68.269 385.423 68.237 385.393 L 60.566 378.421 L 60.806 378.158 L 68.331 385.001 L 80.153 369.348 L 80.437 369.561 L 68.486 385.369 C 68.455 385.408 68.41 385.432 68.361 385.437 Z M 113.285 385.437 C 113.236 385.438 113.188 385.418 113.153 385.383 L 98.572 369.574 L 98.832 369.335 L 113.302 385.018 L 120.986 378.732 L 121.213 379.006 L 113.396 385.397 C 113.365 385.423 113.326 385.437 113.285 385.437 Z" fill="rgb(203,215,216)"></path><path d="M 80.187 432.545 L 98.59 416.743 L 98.821 417.012 L 80.418 432.814 Z" fill="rgb(203,215,216)"></path><path d="M 128.826 432.967 L 115.43 423.138 L 98.791 432.836 C 98.729 432.878 98.647 432.878 98.585 432.836 L 80.19 417.027 L 80.42 416.757 L 98.72 432.484 L 115.352 422.79 C 115.412 422.751 115.489 422.751 115.548 422.79 L 129.035 432.687 Z M 57.462 432.937 L 57.188 432.711 L 65.821 422.263 C 65.853 422.222 65.902 422.198 65.953 422.199 C 66.006 422.199 66.056 422.221 66.092 422.259 L 75.056 432.565 L 74.789 432.798 L 65.96 422.665 Z M 80.305 338.018 C 80.277 338.018 80.249 338.011 80.224 337.998 L 69.078 332.256 L 69.24 331.941 L 80.183 337.593 L 83.311 326.297 C 83.328 326.241 83.371 326.195 83.426 326.175 C 83.482 326.159 83.543 326.169 83.592 326.202 L 98.717 337.647 L 111.954 332.144 L 112.089 332.482 L 98.757 338.025 C 98.7 338.048 98.634 338.039 98.585 338.001 L 83.595 326.621 L 80.474 337.876 C 80.461 337.928 80.425 337.971 80.376 337.991 C 80.355 338.005 80.33 338.014 80.305 338.018 Z" fill="rgb(203,215,216)"></path><path d="M 80.406 337.984 L 80.2 337.697 L 96.174 326.189 C 96.223 326.155 96.285 326.147 96.341 326.169 C 96.396 326.191 96.438 326.239 96.451 326.297 L 98.872 337.802 L 98.535 337.876 L 96.17 326.638 Z" fill="rgb(203,215,216)"></path><path d="M 96.147 326.452 L 89.759 319.268 L 83.622 326.449 L 83.352 326.219 L 89.516 319.001 L 86.358 315.451 C 86.313 315.397 86.302 315.322 86.331 315.258 C 86.359 315.194 86.423 315.153 86.493 315.153 L 92.884 315.153 C 92.953 315.153 93.015 315.194 93.042 315.258 C 93.072 315.32 93.063 315.394 93.019 315.447 L 89.979 318.997 L 96.396 326.216 Z M 86.892 315.508 L 89.756 318.731 L 92.505 315.508 Z M 222.331 362.224 L 189.314 362.224 C 189.139 362.224 188.996 362.082 188.996 361.907 L 188.996 191.688 C 188.996 191.513 189.139 191.371 189.314 191.371 L 222.331 191.371 C 222.506 191.371 222.649 191.513 222.649 191.688 L 222.649 361.907 C 222.649 362.082 222.506 362.224 222.331 362.224 Z M 189.631 361.589 L 222.014 361.589 L 222.014 192.019 L 189.631 192.019 Z" fill="rgb(203,215,216)"></path><path d="M 237.159 475.701 L 174.273 475.701 C 174.182 475.699 174.095 475.66 174.033 475.593 C 173.973 475.523 173.946 475.431 173.959 475.339 L 189.007 361.863 C 189.027 361.705 189.162 361.588 189.321 361.589 L 222.338 361.589 C 222.496 361.589 222.63 361.706 222.652 361.863 L 237.483 475.36 C 237.494 475.45 237.465 475.541 237.405 475.61 C 237.344 475.678 237.257 475.717 237.166 475.718 Z M 174.634 475.066 L 236.784 475.066 L 222.051 362.224 L 189.591 362.224 Z" fill="rgb(203,215,216)"></path><path d="M 180.339 520.748 L 168.288 520.748 C 168.196 520.746 168.11 520.707 168.048 520.64 C 167.989 520.57 167.96 520.478 167.97 520.387 L 173.959 475.339 C 173.981 475.183 174.115 475.066 174.273 475.066 L 199.204 475.066 C 199.31 475.066 199.409 475.119 199.468 475.207 C 199.527 475.295 199.538 475.407 199.498 475.505 L 180.633 520.552 C 180.58 520.668 180.466 520.744 180.339 520.748 Z M 168.649 520.11 L 180.133 520.11 L 198.731 475.701 L 174.55 475.701 Z M 243.05 520.748 L 230.995 520.748 C 230.868 520.744 230.754 520.668 230.701 520.552 L 211.836 475.505 C 211.799 475.407 211.809 475.297 211.863 475.208 C 211.922 475.118 212.023 475.064 212.13 475.066 L 237.061 475.066 C 237.219 475.066 237.353 475.183 237.375 475.339 L 243.361 520.387 C 243.374 520.478 243.347 520.571 243.286 520.64 C 243.225 520.706 243.14 520.745 243.05 520.748 Z M 231.208 520.11 L 242.692 520.11 L 236.788 475.701 L 212.607 475.701 Z M 300.836 362.224 L 115.315 362.224 C 115.162 362.223 115.032 362.114 115.004 361.964 C 114.974 361.814 115.057 361.664 115.2 361.609 L 189.199 333.235 C 189.236 333.222 189.275 333.215 189.314 333.215 L 222.331 333.215 C 222.368 333.215 222.405 333.222 222.439 333.235 L 300.944 361.609 C 301.092 361.66 301.182 361.811 301.155 361.965 C 301.128 362.119 300.992 362.231 300.836 362.228 Z M 117.031 361.589 L 299.022 361.589 L 222.274 333.853 L 189.375 333.853 Z M 289.831 277.115 L 126.32 277.115 C 126.169 277.115 126.04 277.01 126.009 276.863 C 125.978 276.716 126.054 276.568 126.191 276.507 L 189.182 248.133 C 189.223 248.113 189.268 248.103 189.314 248.102 L 222.331 248.102 C 222.373 248.103 222.414 248.112 222.453 248.129 L 289.953 276.504 C 290.093 276.561 290.174 276.71 290.144 276.859 C 290.114 277.008 289.983 277.116 289.831 277.115 Z M 127.799 276.48 L 288.24 276.48 L 222.253 248.748 L 189.381 248.748 Z M 272.534 192.006 L 143.613 192.006 C 143.462 192.005 143.332 191.897 143.304 191.749 C 143.275 191.6 143.355 191.452 143.495 191.394 L 194.921 170.745 C 194.958 170.729 194.998 170.721 195.039 170.722 L 217.981 170.722 C 218.02 170.722 218.059 170.729 218.095 170.742 L 272.649 191.391 C 272.787 191.451 272.868 191.596 272.848 191.746 C 272.82 191.897 272.688 192.007 272.534 192.006 Z M 145.258 191.371 L 270.798 191.371 L 217.923 171.357 L 195.086 171.357 Z" fill="rgb(203,215,216)"></path><path d="M 217.981 171.357 L 195.039 171.357 C 194.94 171.354 194.848 171.308 194.786 171.232 C 194.724 171.153 194.704 171.05 194.732 170.955 L 205.517 131.461 C 205.554 131.325 205.677 131.23 205.817 131.227 C 205.959 131.222 206.086 131.314 206.125 131.45 L 218.285 170.945 C 218.316 171.041 218.298 171.147 218.237 171.228 C 218.175 171.307 218.081 171.354 217.981 171.357 Z M 195.455 170.722 L 217.552 170.722 L 205.841 132.683 Z M 222.331 220.377 L 189.314 220.377 C 189.183 220.371 189.068 220.291 189.017 220.171 C 188.976 220.05 189.012 219.916 189.108 219.833 L 205.321 205.889 L 189.108 191.945 C 189.012 191.861 188.976 191.728 189.017 191.607 C 189.067 191.485 189.182 191.404 189.314 191.398 L 222.331 191.398 C 222.462 191.404 222.578 191.485 222.628 191.607 C 222.669 191.728 222.633 191.861 222.537 191.945 L 206.324 205.889 L 222.537 219.833 C 222.633 219.916 222.669 220.05 222.628 220.171 C 222.577 220.291 222.462 220.371 222.331 220.377 Z M 190.172 219.742 L 221.473 219.742 L 205.821 206.294 Z M 190.172 192.006 L 205.821 205.457 L 221.473 192.006 Z" fill="rgb(203,215,216)"></path><path d="M 222.331 248.748 L 189.314 248.748 C 189.182 248.742 189.067 248.66 189.017 248.538 C 188.976 248.417 189.012 248.284 189.108 248.2 L 205.321 234.256 L 189.108 220.312 C 189.012 220.229 188.976 220.095 189.017 219.975 C 189.063 219.851 189.182 219.769 189.314 219.769 L 222.331 219.769 C 222.463 219.769 222.582 219.851 222.628 219.975 C 222.669 220.095 222.633 220.229 222.537 220.312 L 206.324 234.256 L 222.537 248.2 C 222.633 248.284 222.669 248.417 222.628 248.538 C 222.578 248.66 222.462 248.742 222.331 248.748 Z M 190.172 248.109 L 221.473 248.109 L 205.821 234.662 Z M 190.172 220.377 L 205.821 233.824 L 221.473 220.377 Z" fill="rgb(203,215,216)"></path><path d="M 222.331 277.115 L 189.314 277.115 C 189.182 277.115 189.063 277.033 189.017 276.909 C 188.976 276.788 189.012 276.655 189.108 276.571 L 205.321 262.627 L 189.108 248.683 C 189.012 248.6 188.976 248.466 189.017 248.346 C 189.067 248.224 189.182 248.142 189.314 248.136 L 222.331 248.136 C 222.462 248.142 222.578 248.224 222.628 248.346 C 222.669 248.466 222.633 248.6 222.537 248.683 L 206.324 262.627 L 222.537 276.571 C 222.633 276.655 222.669 276.788 222.628 276.909 C 222.582 277.033 222.463 277.115 222.331 277.115 Z M 190.172 276.48 L 221.473 276.48 L 205.821 263.033 Z M 190.172 248.748 L 205.821 262.195 L 221.473 248.748 Z" fill="rgb(203,215,216)"></path><path d="M 222.331 305.486 L 189.314 305.486 C 189.182 305.48 189.067 305.398 189.017 305.276 C 188.976 305.156 189.012 305.022 189.108 304.939 L 205.321 290.995 L 189.108 277.051 C 189.012 276.967 188.976 276.834 189.017 276.713 C 189.063 276.589 189.182 276.507 189.314 276.507 L 222.331 276.507 C 222.463 276.507 222.582 276.589 222.628 276.713 C 222.669 276.834 222.633 276.967 222.537 277.051 L 206.324 290.995 L 222.537 304.939 C 222.633 305.022 222.669 305.156 222.628 305.276 C 222.578 305.398 222.462 305.48 222.331 305.486 Z M 190.172 304.851 L 221.473 304.851 L 205.821 291.4 Z M 190.172 277.115 L 205.821 290.562 L 221.473 277.115 Z" fill="rgb(203,215,216)"></path><path d="M 222.331 333.853 L 189.314 333.853 C 189.182 333.853 189.063 333.771 189.017 333.647 C 188.976 333.527 189.012 333.393 189.108 333.31 L 205.321 319.366 L 189.108 305.422 C 189.008 305.335 188.972 305.196 189.018 305.072 C 189.064 304.948 189.182 304.865 189.314 304.864 L 222.331 304.864 C 222.463 304.865 222.581 304.948 222.627 305.072 C 222.673 305.196 222.637 305.335 222.537 305.422 L 206.324 319.366 L 222.537 333.31 C 222.633 333.393 222.669 333.527 222.628 333.647 C 222.582 333.771 222.463 333.853 222.331 333.853 Z M 190.172 333.218 L 221.473 333.218 L 205.821 319.771 Z M 190.172 305.486 L 205.821 318.933 L 221.473 305.486 Z M 226.121 390.592 L 185.47 390.592 C 185.335 390.592 185.214 390.506 185.17 390.378 C 185.126 390.25 185.168 390.108 185.274 390.024 L 205.29 374.621 L 189.121 362.157 C 189.011 362.076 188.965 361.932 189.01 361.802 C 189.054 361.672 189.177 361.586 189.314 361.589 L 222.331 361.589 C 222.468 361.586 222.591 361.672 222.635 361.802 C 222.679 361.932 222.634 362.076 222.524 362.157 L 206.331 374.621 L 226.317 390.024 C 226.412 390.108 226.453 390.239 226.421 390.362 C 226.383 390.496 226.261 390.59 226.121 390.592 Z M 186.402 389.957 L 225.189 389.957 L 205.811 375.02 Z M 190.246 362.224 L 205.811 374.219 L 221.395 362.224 Z" fill="rgb(203,215,216)"></path><path d="M 229.823 418.963 L 181.623 418.963 C 181.484 418.956 181.363 418.865 181.319 418.733 C 181.287 418.603 181.342 418.467 181.454 418.395 L 205.172 403.272 L 185.291 390.541 C 185.173 390.465 185.119 390.319 185.159 390.184 C 185.198 390.049 185.322 389.957 185.463 389.957 L 226.121 389.957 C 226.262 389.957 226.386 390.049 226.426 390.184 C 226.465 390.319 226.411 390.465 226.293 390.541 L 206.365 403.255 L 230.009 418.378 C 230.12 418.452 230.172 418.587 230.14 418.716 C 230.107 418.863 229.974 418.966 229.823 418.963 Z M 182.714 418.328 L 228.735 418.328 L 205.767 403.63 Z M 186.554 390.592 L 205.763 402.877 L 225.016 390.592 Z" fill="rgb(203,215,216)"></path><path d="M 233.704 447.33 L 177.779 447.33 C 177.634 447.33 177.507 447.231 177.472 447.09 C 177.434 446.95 177.499 446.803 177.627 446.736 L 205.068 431.775 L 181.471 418.939 C 181.345 418.869 181.283 418.723 181.318 418.583 C 181.354 418.444 181.479 418.346 181.623 418.344 L 229.823 418.344 C 229.968 418.345 230.095 418.443 230.13 418.584 C 230.159 418.719 230.096 418.856 229.975 418.922 L 206.395 431.758 L 233.856 446.719 C 233.984 446.786 234.048 446.933 234.011 447.073 C 233.984 447.222 233.855 447.329 233.704 447.33 Z M 179.025 446.695 L 232.457 446.695 L 205.733 432.14 Z M 182.873 418.963 L 205.733 431.413 L 228.576 418.963 Z" fill="rgb(203,215,216)"></path><path d="M 237.308 475.701 L 174.273 475.701 C 174.124 475.701 173.995 475.599 173.962 475.454 C 173.936 475.31 174.006 475.166 174.134 475.096 L 205.027 460.348 L 177.644 447.3 C 177.51 447.236 177.437 447.088 177.47 446.943 C 177.502 446.798 177.631 446.695 177.779 446.695 L 233.704 446.695 C 233.852 446.695 233.981 446.798 234.013 446.943 C 234.046 447.088 233.973 447.236 233.839 447.3 L 206.506 460.348 L 237.453 475.096 C 237.583 475.165 237.654 475.309 237.629 475.454 C 237.595 475.603 237.46 475.706 237.308 475.701 Z M 175.665 475.066 L 235.913 475.066 L 205.767 460.7 Z M 179.174 447.33 L 205.757 459.997 L 232.289 447.33 Z M 167.865 277.115 C 167.787 277.113 167.712 277.085 167.653 277.034 L 153.888 264.536 L 154.317 264.063 L 167.828 276.341 L 189.061 248.254 L 189.567 248.636 L 168.119 277.01 C 168.064 277.08 167.984 277.124 167.896 277.135 Z M 248.505 277.115 C 248.416 277.114 248.331 277.077 248.268 277.014 L 222.098 248.639 L 222.564 248.21 L 248.535 276.358 L 262.326 265.073 L 262.728 265.566 L 248.704 277.051 C 248.647 277.094 248.577 277.117 248.505 277.115 Z" fill="rgb(203,215,216)"></path><path d="M 189.085 361.67 L 222.13 333.335 L 222.543 333.817 L 189.498 362.152 Z" fill="rgb(203,215,216)"></path><path d="M 276.398 362.427 L 252.355 344.788 L 222.49 362.194 C 222.374 362.262 222.227 362.248 222.125 362.16 L 189.108 333.786 L 189.52 333.306 L 222.365 361.528 L 252.217 344.129 C 252.324 344.07 252.455 344.078 252.555 344.149 L 276.766 361.91 Z M 148.315 362.359 L 147.825 361.954 L 163.336 343.207 C 163.4 343.141 163.487 343.103 163.579 343.103 C 163.671 343.103 163.759 343.141 163.822 343.207 L 179.887 361.697 L 179.407 362.113 L 163.559 343.899 Z M 189.314 192.006 C 189.263 192.007 189.214 191.995 189.169 191.972 L 169.179 181.646 L 169.473 181.082 L 189.111 191.215 L 194.732 170.948 C 194.76 170.846 194.837 170.765 194.938 170.732 C 195.036 170.698 195.146 170.716 195.228 170.779 L 222.375 191.32 L 246.134 181.443 L 246.377 182.028 L 222.446 191.982 C 222.342 192.027 222.221 192.011 222.132 191.942 L 195.218 171.576 L 189.621 191.773 C 189.594 191.865 189.529 191.941 189.442 191.982 C 189.401 191.998 189.358 192.006 189.314 192.006 Z" fill="rgb(203,215,216)"></path><path d="M 189.5 191.948 L 189.128 191.432 L 217.795 170.783 C 217.881 170.718 217.995 170.702 218.096 170.741 C 218.197 170.78 218.271 170.869 218.291 170.975 L 222.642 191.624 L 222.02 191.756 L 217.771 171.576 Z" fill="rgb(203,215,216)"></path><path d="M 217.744 171.239 L 206.287 158.345 L 195.279 171.239 L 194.796 170.826 L 205.858 157.872 L 200.194 151.495 C 200.11 151.403 200.089 151.27 200.139 151.157 C 200.195 151.047 200.306 150.975 200.43 150.971 L 211.914 150.971 C 212.038 150.971 212.151 151.042 212.204 151.155 C 212.256 151.268 212.238 151.4 212.157 151.495 L 206.716 157.865 L 218.234 170.826 Z M 201.136 151.596 L 206.277 157.389 L 211.212 151.61 Z" fill="rgb(203,215,216)"></path><path d="M 393.162 129.528 C 392.554 127.133 392.21 126.907 392.21 126.907 C 392.21 126.907 368.403 128.235 366.164 128.258 C 363.925 128.282 333.373 120.033 333.373 120.033 L 317.67 136.811 C 317.67 136.811 360.648 141.077 366.309 140.895 C 375.679 140.598 393.108 132.997 393.108 132.997 C 393.423 131.865 393.442 130.67 393.162 129.528 Z" fill="rgb(192,206,206)"></path><path d="M 386.13 269.251 C 386.13 269.251 385.694 278.861 387.623 279.692 C 389.551 280.523 411.942 278.969 411.942 278.969 C 411.942 278.969 411.787 276.162 407.889 275.754 C 403.991 275.345 398.604 272.734 395.658 268.407 C 391.568 262.374 386.13 269.251 386.13 269.251 Z" fill="rgb(44,58,100)"></path><path d="M 349.11 185.24 C 349.11 185.24 380.421 212.192 384.448 220.89 C 388.474 229.588 400.911 268.789 400.911 268.789 C 400.911 268.789 397.479 270.852 390.49 271.237 C 388.654 271.345 386.821 270.966 385.177 270.14 C 385.177 270.14 367.046 234.571 365.458 231.142 C 363.871 227.713 323.574 214.34 312.492 194.076 Z" fill="rgb(4,102,112)"></path><path d="M 389.795 25.277 L 408.25 25.277 L 408.25 520.586 L 389.795 520.586 Z" fill="rgb(163,178,177)"></path><path d="M 276.996 38.758 L 518.502 38.758 L 518.502 50.935 L 276.996 50.935 Z M 286.102 11.796 L 290.085 11.796 L 290.085 38.758 L 286.102 38.758 Z" fill="rgb(163,178,177)"></path><path d="M 277.324 17.298 C 277.324 15.934 282.21 14.829 288.237 14.829 C 294.264 14.829 299.15 15.934 299.15 17.298 C 299.15 18.662 294.264 19.767 288.237 19.767 C 282.21 19.767 277.324 18.662 277.324 17.298 Z" fill="rgb(163,178,177)"></path><path d="M 277.324 12.356 C 277.324 11.005 282.211 9.884 288.237 9.884 C 294.263 9.884 299.15 10.992 299.15 12.356 C 299.15 13.721 294.266 14.842 288.237 14.842 C 282.208 14.842 277.324 13.721 277.324 12.356 Z M 277.324 7.411 C 277.324 6.06 282.211 4.938 288.237 4.938 C 294.263 4.938 299.15 6.06 299.15 7.411 C 299.15 8.762 294.266 9.88 288.237 9.88 C 282.208 9.88 277.324 8.779 277.324 7.411 Z" fill="rgb(163,178,177)"></path><path d="M 277.324 2.469 C 277.324 1.106 282.21 0 288.237 0 C 294.264 0 299.15 1.106 299.15 2.469 C 299.15 3.833 294.264 4.938 288.237 4.938 C 282.21 4.938 277.324 3.833 277.324 2.469 Z" fill="rgb(163,178,177)"></path><path d="M 281.471 1.358 L 294.712 1.358 L 294.712 18.173 L 281.471 18.173 Z M 395.614 11.796 L 399.597 11.796 L 399.597 38.758 L 395.614 38.758 Z" fill="rgb(163,178,177)"></path><path d="M 386.836 17.298 C 386.836 15.934 391.722 14.829 397.749 14.829 C 403.776 14.829 408.662 15.934 408.662 17.298 C 408.662 18.662 403.776 19.767 397.749 19.767 C 391.722 19.767 386.836 18.662 386.836 17.298 Z" fill="rgb(163,178,177)"></path><path d="M 386.836 12.356 C 386.836 11.005 391.723 9.884 397.749 9.884 C 403.775 9.884 408.662 10.992 408.662 12.356 C 408.662 13.721 403.778 14.842 397.749 14.842 C 391.72 14.842 386.836 13.721 386.836 12.356 Z M 386.836 7.411 C 386.836 6.06 391.723 4.938 397.749 4.938 C 403.775 4.938 408.662 6.046 408.662 7.411 C 408.662 8.776 403.778 9.88 397.749 9.88 C 391.72 9.88 386.836 8.779 386.836 7.411 Z" fill="rgb(163,178,177)"></path><path d="M 386.836 2.469 C 386.836 1.106 391.722 0 397.749 0 C 403.776 0 408.662 1.106 408.662 2.469 C 408.662 3.833 403.776 4.938 397.749 4.938 C 391.722 4.938 386.836 3.833 386.836 2.469 Z" fill="rgb(163,178,177)"></path><path d="M 390.983 1.358 L 404.224 1.358 L 404.224 18.173 L 390.983 18.173 Z M 505.454 11.796 L 509.436 11.796 L 509.436 38.758 L 505.454 38.758 Z" fill="rgb(163,178,177)"></path><path d="M 496.679 17.298 C 496.679 15.947 501.563 14.826 507.589 14.826 C 513.615 14.826 518.502 15.933 518.502 17.298 C 518.502 18.663 513.618 19.767 507.589 19.767 C 501.56 19.767 496.679 18.663 496.679 17.298 Z" fill="rgb(163,178,177)"></path><path d="M 496.679 12.356 C 496.679 11.005 501.563 9.884 507.589 9.884 C 513.615 9.884 518.502 10.992 518.502 12.356 C 518.502 13.721 513.604 14.842 507.589 14.842 C 501.573 14.842 496.679 13.721 496.679 12.356 Z M 496.679 7.411 C 496.679 6.06 501.563 4.938 507.589 4.938 C 513.615 4.938 518.502 6.06 518.502 7.411 C 518.502 8.762 513.618 9.88 507.589 9.88 C 501.56 9.88 496.679 8.779 496.679 7.411 Z" fill="rgb(163,178,177)"></path><path d="M 496.679 2.469 C 496.679 1.118 501.563 0 507.589 0 C 513.615 0 518.502 1.105 518.502 2.469 C 518.502 3.834 513.618 4.942 507.589 4.942 C 501.56 4.942 496.679 3.834 496.679 2.469 Z" fill="rgb(163,178,177)"></path><path d="M 500.823 1.358 L 514.064 1.358 L 514.064 18.173 L 500.823 18.173 Z M 399.033 105.292 L 330.614 48.189 L 333.137 45.189 L 399.012 100.171 L 465.952 43.355 L 468.499 46.334 Z" fill="rgb(163,178,177)"></path><path d="M 374.48 76.833 L 423.842 76.833 L 423.842 137.304 L 374.48 137.304 Z" fill="rgb(42,78,150)"></path><path d="M 351.812 179.413 C 351.637 179.338 351.451 179.288 351.262 179.264 L 349.981 179.126 C 349.321 179.055 348.669 179.317 348.242 179.825 L 346.327 182.092 L 348.992 185.807 L 352.065 183.855 C 352.537 183.555 352.847 183.059 352.91 182.504 C 352.917 182.433 352.917 182.362 352.91 182.291 L 352.91 181.115 C 352.914 180.381 352.483 179.713 351.812 179.413 Z M 351.609 183.129 L 349.215 184.656 L 347.394 182.119 L 348.887 180.345 C 349.137 180.051 349.517 179.901 349.9 179.947 L 351.181 180.085 C 351.7 180.137 352.095 180.576 352.093 181.099 L 352.093 182.274 C 352.092 182.621 351.913 182.944 351.62 183.129 Z" fill="rgb(29,63,119)"></path><path d="M 408.25 161.254 L 408.25 165.733 C 408.25 165.733 361.233 180.437 352.923 182.504 C 352.525 182.602 352.217 182.673 352.008 182.71 C 352.069 182.58 352.1 182.438 352.099 182.294 L 352.099 181.119 C 352.102 180.596 351.707 180.158 351.187 180.105 L 349.907 179.967 L 351.829 179.416 C 360.719 176.849 397.867 166.05 408.25 161.254 Z" fill="rgb(249,151,70)"></path><path d="M 372.055 276.824 C 372.055 276.824 370.028 286.229 371.795 287.367 C 373.561 288.505 395.912 290.664 395.912 290.664 C 395.912 290.664 396.226 287.87 392.453 286.826 C 388.68 285.783 383.796 282.317 381.61 277.564 C 378.56 270.937 372.055 276.824 372.055 276.824 Z" fill="rgb(44,58,100)"></path><path d="M 318.819 113.477 C 318.819 113.477 329.455 125.438 337.467 123.948 C 337.467 123.948 335.275 121.394 332.836 119.111 C 332.107 118.435 332.326 116.821 332.59 115.858 C 332.738 115.318 332.87 114.808 332.992 114.328 C 333.417 112.696 333.755 111.043 334.005 109.376 L 328.601 103.867 L 324.936 100.131 C 324.78 101.938 324.598 103.62 323.993 105.032 C 321.73 110.399 318.819 113.477 318.819 113.477 Z" fill="rgb(255,178,125)"></path><path d="M 324.01 105.032 C 324.01 105.032 326.037 111.947 332.992 114.328 C 333.417 112.696 333.755 111.043 334.005 109.376 L 328.601 103.867 C 325.618 104.225 324.01 105.032 324.01 105.032 Z" fill="rgb(237,151,93)"></path><path d="M 336.4 109.464 C 336.4 109.464 323.389 110.055 323.142 101.978 C 322.896 93.902 321.051 88.538 329.35 87.805 C 337.649 87.072 339.355 90.119 340.095 92.794 C 340.835 95.469 339.777 109.102 336.4 109.464 Z" fill="rgb(255,178,125)"></path><path d="M 346.117 155.025 C 346.067 154.224 346.03 153.413 345.999 152.589 C 345.859 148.44 345.367 144.31 344.53 140.243 C 343.943 137.342 343.129 134.491 342.094 131.717 C 340.914 128.461 339.121 125.462 336.812 122.881 C 336.795 122.86 333.309 119.31 333.292 119.3 C 324.912 120.182 318.819 113.477 318.819 113.477 C 318.819 113.477 298.782 130.792 304.011 168.023 C 304.011 168.023 304.514 170.725 305.396 174.589 C 305.592 175.43 305.801 176.326 306.031 177.265 C 307.564 183.642 346.746 165.709 346.117 155.025 Z" fill="rgb(203,215,216)"></path><path d="M 315.894 89.973 C 315.748 89.855 315.451 89.791 314.826 89.869 C 315.143 89.603 315.52 89.418 315.924 89.332 C 315.897 88.44 316.079 86.815 317.495 86.177 C 317.056 86.556 316.813 87.114 316.836 87.693 C 318.234 85.606 321.683 83.64 332.019 82.664 C 345.634 81.36 342.763 90.841 341.21 92.186 C 339.656 93.53 334.772 91.463 331.58 92.297 C 328.388 93.132 328.617 97.976 327.635 98.817 C 326.652 99.658 326.878 98.438 325.27 98.019 C 323.662 97.601 323.966 100.121 324.682 101.664 C 325.398 103.208 323.74 105.718 323.74 105.718 L 321.274 103.836 C 318.812 101.951 315.164 92.77 315.742 90.571 Z" fill="rgb(53,53,53)"></path><path d="M 311.476 145.962 C 311.476 145.962 317.099 164.878 323.466 167.942 C 329.833 171.005 329.469 154.812 329.469 154.812 Z" fill="rgb(192,206,206)"></path><path d="M 353.501 191.685 C 343.402 187.206 346.746 165.709 346.104 155.038 C 346.053 154.238 346.016 153.427 345.986 152.603 C 345.845 148.453 345.354 144.323 344.516 140.257 C 343.929 137.355 343.115 134.504 342.081 131.731 L 328.118 134.001 C 325.45 134.436 323.522 136.785 323.615 139.486 C 323.868 146.431 323.237 159.318 315.894 165.891 C 310.601 170.62 307.331 173.201 305.396 174.583 C 305.592 175.424 305.801 176.319 306.031 177.258 C 307.571 183.635 309.29 191.749 312.955 196.39 C 315.782 199.978 354.592 192.181 353.501 191.685 Z" fill="rgb(2,115,133)"></path><path d="M 317.447 114.845 C 317.447 114.845 321.298 116.287 326.337 122.952 C 328.885 126.289 330.864 130.025 332.194 134.007 L 329.881 134.524 C 329.881 134.524 326.446 122.702 316.032 116.446 C 316.049 116.432 316.076 116.203 317.447 114.845 Z" fill="rgb(42,78,150)"></path><path d="M 378.138 124.57 C 378.138 124.57 380.546 119.094 381.178 118.344 C 381.81 117.594 385.211 115.014 385.464 115.142 C 385.718 115.27 385.802 116.267 385.201 116.831 C 384.768 117.24 384.262 117.615 384.525 117.655 C 384.789 117.696 385.991 115.801 386.94 116.426 C 387.889 117.05 390.132 119.803 388.693 121.992 C 387.254 124.181 381.759 126.478 381.465 126.809 C 378.993 129.62 378.138 124.57 378.138 124.57 Z" fill="rgb(255,178,125)"></path><path d="M 378.138 124.57 C 378.138 124.57 353.018 146.776 350.64 147.039 C 346.847 147.458 325.665 128.187 325.665 128.187 C 325.665 128.187 322.862 123.381 316.65 125.742 C 311.246 127.789 308.898 134.268 308.898 134.268 C 308.898 134.268 307.074 140.655 310.249 144.472 C 317.275 152.917 344.104 161.433 352.103 160.412 C 362.422 159.098 381.536 131.025 381.536 131.025 C 381.536 131.025 382.695 128.508 381.482 126.836 C 380.404 125.35 378.138 124.57 378.138 124.57 Z" fill="rgb(203,215,216)"></path><path d="M 384.238 277.885 C 384.238 277.885 380.523 279.355 373.558 278.584 C 371.726 278.387 369.978 277.71 368.491 276.622 L 365.867 268.265 C 365.642 267.506 365.393 266.718 365.12 265.9 C 364.783 264.826 364.445 263.701 364.07 262.546 C 363.827 261.763 363.577 260.969 363.327 260.182 C 359.949 249.399 356.068 236.949 355.518 234.942 C 354.524 231.294 316.991 211.469 309.435 189.678 L 346.877 182.156 C 346.877 182.156 373.423 218.735 375.953 227.977 C 377.304 232.909 379.57 246.809 381.391 258.689 C 381.512 259.477 381.625 260.251 381.729 261.013 C 381.904 262.178 382.066 263.31 382.242 264.39 L 382.58 266.708 C 383.563 273.217 384.238 277.885 384.238 277.885 Z" fill="rgb(2,115,133)"></path><path d="M 346.874 182.115 C 346.874 182.115 332.465 193.458 311.476 195.417 C 311.476 195.417 313.279 200.146 317.062 202.406 C 317.062 202.406 339.585 199.008 349.117 185.24 Z" fill="rgb(249,151,70)"></path><path d="M 395.912 291.714 C 395.867 291.718 395.821 291.718 395.776 291.714 L 365.543 287.755 C 365.157 287.723 364.82 287.481 364.666 287.126 C 364.512 286.771 364.566 286.359 364.807 286.056 C 365.047 285.753 365.435 285.606 365.816 285.675 L 395.814 289.6 L 407.926 285.715 C 408.478 285.537 409.07 285.84 409.248 286.392 C 409.427 286.945 409.123 287.537 408.571 287.715 L 396.236 291.674 C 396.13 291.704 396.021 291.718 395.912 291.714 Z" fill="rgb(25,36,63)"></path><path d="M 381.742 260.972 C 376.885 262.36 371.964 262.661 368.319 262.661 C 366.549 262.661 365.08 262.583 364.066 262.523 C 363.823 261.739 363.573 260.945 363.323 260.158 L 363.631 260.178 C 366.235 260.347 373.973 260.854 381.387 258.648 C 381.509 259.436 381.627 260.211 381.742 260.972 Z M 382.6 266.681 C 377.787 268.032 372.913 268.37 369.299 268.37 C 367.947 268.37 366.796 268.329 365.863 268.282 C 365.638 267.523 365.389 266.735 365.117 265.917 C 368.103 266.1 375.311 266.417 382.255 264.39 Z" fill="rgb(255,255,255)"></path><path d="M 385.816 76.833 L 423.842 76.833 L 423.842 137.304 L 385.816 137.304 Z" fill="rgb(35,56,98)"></path><path d="M 709.525 236.543 L 720.141 236.543 L 720.141 522.579 L 709.525 522.579 Z" fill="rgb(203,215,216)"></path><path d="M 644.633 244.326 L 783.568 244.326 L 783.568 251.359 L 644.633 251.359 Z" fill="rgb(203,215,216)"></path><path d="M 649.871 228.757 L 652.162 228.757 L 652.162 244.329 L 649.871 244.329 Z" fill="rgb(203,215,216)"></path><path d="M 644.822 231.932 C 644.822 231.145 647.633 230.507 651.101 230.507 C 654.569 230.507 657.38 231.145 657.38 231.932 C 657.38 232.72 654.569 233.358 651.101 233.358 C 647.633 233.358 644.822 232.72 644.822 231.932 Z" fill="rgb(203,215,216)"></path><path d="M 644.822 229.081 C 644.822 228.291 647.635 227.653 651.101 227.653 C 654.566 227.653 657.38 228.291 657.38 229.081 C 657.38 229.872 654.57 230.507 651.101 230.507 C 647.632 230.507 644.822 229.869 644.822 229.081 Z M 644.822 226.227 C 644.822 225.437 647.635 224.798 651.101 224.798 C 654.566 224.798 657.38 225.437 657.38 226.227 C 657.38 227.018 654.57 227.653 651.101 227.653 C 647.632 227.653 644.822 227.014 644.822 226.227 Z" fill="rgb(203,215,216)"></path><path d="M 644.822 223.373 C 644.822 222.586 647.635 221.944 651.101 221.944 C 654.566 221.944 657.38 222.586 657.38 223.373 C 657.38 224.16 654.57 224.798 651.101 224.798 C 647.632 224.798 644.822 224.16 644.822 223.373 Z" fill="rgb(203,215,216)"></path><path d="M 647.21 222.731 L 654.827 222.731 L 654.827 232.442 L 647.21 232.442 Z M 712.872 228.757 L 715.163 228.757 L 715.163 244.329 L 712.872 244.329 Z" fill="rgb(203,215,216)"></path><path d="M 707.823 231.932 C 707.823 231.145 710.633 230.507 714.102 230.507 C 717.571 230.507 720.381 231.145 720.381 231.932 C 720.381 232.719 717.571 233.361 714.102 233.361 C 710.633 233.361 707.823 232.716 707.823 231.932 Z" fill="rgb(203,215,216)"></path><path d="M 707.823 229.081 C 707.823 228.291 710.633 227.653 714.102 227.653 C 717.571 227.653 720.381 228.291 720.381 229.081 C 720.381 229.872 717.571 230.507 714.102 230.507 C 710.633 230.507 707.823 229.869 707.823 229.081 Z M 707.823 226.227 C 707.823 225.437 710.633 224.798 714.102 224.798 C 717.571 224.798 720.381 225.437 720.381 226.227 C 720.381 227.018 717.571 227.653 714.102 227.653 C 710.633 227.653 707.823 227.014 707.823 226.227 Z" fill="rgb(203,215,216)"></path><path d="M 707.823 223.373 C 707.823 222.586 710.633 221.944 714.102 221.944 C 717.571 221.944 720.381 222.586 720.381 223.373 C 720.381 224.16 717.571 224.798 714.102 224.798 C 710.633 224.798 707.823 224.16 707.823 223.373 Z" fill="rgb(203,215,216)"></path><path d="M 710.211 222.731 L 717.828 222.731 L 717.828 232.442 L 710.211 232.442 Z M 776.063 228.757 L 778.353 228.757 L 778.353 244.329 L 776.063 244.329 Z" fill="rgb(203,215,216)"></path><path d="M 771.013 231.932 C 771.013 231.145 773.823 230.507 777.292 230.507 C 780.761 230.507 783.571 231.145 783.571 231.932 C 783.571 232.719 780.758 233.361 777.292 233.361 C 773.827 233.361 771.013 232.716 771.013 231.932 Z" fill="rgb(203,215,216)"></path><path d="M 771.013 229.081 C 771.013 228.291 773.823 227.653 777.292 227.653 C 780.761 227.653 783.571 228.291 783.571 229.081 C 783.571 229.872 780.758 230.507 777.292 230.507 C 773.827 230.507 771.013 229.869 771.013 229.081 Z M 771.013 226.227 C 771.013 225.437 773.823 224.798 777.292 224.798 C 780.761 224.798 783.571 225.437 783.571 226.227 C 783.571 227.018 780.758 227.653 777.292 227.653 C 773.827 227.653 771.013 227.014 771.013 226.227 Z" fill="rgb(203,215,216)"></path><path d="M 771.013 223.373 C 771.013 222.586 773.823 221.944 777.292 221.944 C 780.761 221.944 783.571 222.586 783.571 223.373 C 783.571 224.16 780.758 224.798 777.292 224.798 C 773.827 224.798 771.013 224.16 771.013 223.373 Z" fill="rgb(203,215,216)"></path><path d="M 773.401 222.731 L 781.018 222.731 L 781.018 232.442 L 773.401 232.442 Z M 714.842 282.753 L 675.478 249.774 L 676.93 248.042 L 714.828 279.794 L 753.337 246.984 L 754.803 248.704 Z M 342.898 319.538 L 425.848 319.538 L 425.848 520.039 L 342.898 520.039 Z" fill="rgb(203,215,216)"></path><path d="M 394.3 319.538 L 425.848 319.538 L 425.848 520.039 L 394.3 520.039 Z" fill="rgb(137,155,153)"></path><path d="M 369.707 326.463 L 386.501 326.463 L 386.501 356.272 L 369.707 356.272 Z" fill="rgb(3,102,112)"></path><path d="M 365.455 326.463 L 382.249 326.463 L 382.249 356.272 L 365.455 356.272 Z" fill="rgb(2,115,133)"></path><path d="M 348.492 394.179 L 348.387 393.77 C 348.441 393.77 353.673 392.314 354.494 383.724 C 355.17 376.594 356.328 372.865 358.365 371.263 C 359.309 370.537 360.516 370.244 361.689 370.456 C 363.313 370.689 364.752 372.145 366.417 373.868 C 369.41 376.928 373.139 380.735 379.729 378.951 C 389.835 376.215 394.054 365.383 394.094 365.274 L 394.49 365.423 C 394.449 365.535 390.153 376.57 379.837 379.36 C 373.011 381.205 369.187 377.3 366.113 374.162 C 364.499 372.51 363.104 371.088 361.621 370.875 C 360.563 370.671 359.469 370.933 358.618 371.594 C 356.71 373.098 355.578 376.85 354.903 383.755 C 354.46 388.393 352.751 390.973 351.393 392.321 C 350.595 393.171 349.598 393.809 348.492 394.179 Z" fill="rgb(235,243,250)"></path><path d="M 394.3 400.499 L 369.494 400.499 L 369.494 356.276 L 369.917 356.276 L 369.917 400.077 L 394.3 400.077 Z" fill="rgb(235,243,250)"></path><path d="M 394.3 395.696 L 373.642 395.696 L 373.642 356.276 L 374.065 356.276 L 374.065 395.273 L 394.3 395.273 Z" fill="rgb(235,243,250)"></path><path d="M 394.3 390.163 L 379.368 390.163 L 379.368 356.276 L 379.79 356.276 L 379.79 389.74 L 394.3 389.74 Z M 394.3 470.526 L 357.443 470.526 L 357.443 425.178 L 394.3 425.178 L 394.3 425.6 L 357.865 425.6 L 357.865 470.104 L 394.3 470.104 Z" fill="rgb(235,243,250)"></path><path d="M 394.3 465.466 L 363.259 465.466 L 363.259 428.975 L 394.3 428.975 L 394.3 429.397 L 363.681 429.397 L 363.681 465.044 L 394.3 465.044 Z" fill="rgb(235,243,250)"></path><path d="M 394.3 458.788 L 369.494 458.788 L 369.494 434.67 L 394.3 434.67 L 394.3 435.092 L 369.917 435.092 L 369.917 458.369 L 394.3 458.369 Z" fill="rgb(235,243,250)"></path><path d="M 354.075 483.956 L 394.3 483.956 L 394.3 508.878 L 354.075 508.878 Z" fill="rgb(2,115,133)"></path><path d="M 360.186 483.956 L 359.763 483.956 L 359.763 476.012 L 394.3 476.012 L 394.3 476.434 L 360.186 476.434 Z" fill="rgb(3,102,112)"></path><path d="M 369.248 483.956 L 368.826 483.956 L 368.826 479.876 L 394.3 479.876 L 394.3 480.298 L 369.248 480.298 Z" fill="rgb(3,102,112)"></path><path d="M 375.838 329.124 C 375.838 329.497 375.535 329.8 375.162 329.8 C 374.789 329.8 374.487 329.497 374.487 329.124 C 374.487 328.751 374.789 328.449 375.162 328.449 C 375.535 328.449 375.838 328.751 375.838 329.124 Z" fill="rgb(173,200,254)"></path><path d="M 378.287 329.124 C 378.287 329.497 377.984 329.8 377.611 329.8 C 377.238 329.8 376.936 329.497 376.936 329.124 C 376.936 328.751 377.238 328.449 377.611 328.449 C 377.984 328.449 378.287 328.751 378.287 329.124 Z" fill="rgb(249,151,70)"></path><path d="M 380.499 329.124 C 380.499 329.497 380.197 329.8 379.824 329.8 C 379.45 329.8 379.148 329.497 379.148 329.124 C 379.148 328.751 379.45 328.449 379.824 328.449 C 380.197 328.449 380.499 328.751 380.499 329.124 Z" fill="rgb(255,255,255)"></path><path d="M 368.194 330.682 L 381.158 330.682 L 381.158 337.782 L 368.194 337.782 Z" fill="rgb(3,102,112)"></path><path d="M 360.574 338.444 C 360.574 338.444 362.834 333.752 364.664 332.296 C 366.495 330.84 371.386 331.195 371.572 331.567 C 372.153 332.722 367.65 334.519 367.13 335.576 C 366.61 336.633 368.768 336.529 367.11 338.37 C 365.711 339.923 362.361 341.41 362.361 341.41 Z" fill="rgb(255,178,125)"></path><path d="M 362.526 337.903 C 361.337 336.056 360.983 335.961 360.983 335.961 C 360.983 335.961 341.355 343.794 339.484 344.446 C 337.612 345.098 309.604 346.75 309.604 346.75 L 301.16 365.328 C 301.16 365.328 338.48 356.813 343.192 355.063 C 350.981 352.168 363.479 340.839 363.479 340.839 C 363.417 339.795 363.089 338.785 362.526 337.903 Z" fill="rgb(192,206,206)"></path><path d="M 313.762 511.686 C 313.762 511.686 314.191 518.58 315.471 520.201 L 335.16 520.201 C 335.035 519.526 334.485 517.816 332.015 517.387 C 328.905 516.847 323.696 514.658 321.815 510.544 C 319.832 506.217 313.762 511.686 313.762 511.686 Z M 278.766 508.851 C 278.766 508.851 277.526 519.323 279.212 519.461 C 279.435 519.482 287.318 519.461 289.466 519.799 C 292.969 520.323 298.809 519.867 298.809 519.867 C 299.147 519.881 299.466 519.709 299.641 519.419 C 299.815 519.129 299.818 518.767 299.647 518.475 C 299.238 517.799 298.458 517.043 296.972 516.756 C 293.871 516.161 288.703 513.881 286.893 509.736 C 284.988 505.362 278.766 508.851 278.766 508.851 Z" fill="rgb(22,53,96)"></path><path d="M 323.021 419.942 C 323.021 419.942 318.069 437.271 303.882 467.368 C 299.235 477.228 296.114 485.206 294.05 491.482 C 293.78 492.293 293.526 493.073 293.297 493.823 C 292.916 495.033 292.578 496.169 292.283 497.232 C 292.054 498.046 291.848 498.816 291.659 499.545 C 289.797 506.788 289.838 510.081 289.838 510.081 C 287.563 510.845 285.155 511.128 282.765 510.912 C 280.806 510.716 276.506 508.885 276.506 508.885 C 276.506 508.885 276.969 504.035 277.904 497.174 C 278.009 496.417 278.121 495.644 278.242 494.84 C 278.394 493.769 278.56 492.661 278.732 491.526 C 278.849 490.763 278.972 489.99 279.1 489.209 C 280.749 478.988 283.194 467.121 286.457 459.723 C 293.162 444.523 294.526 402.975 294.526 402.975 Z" fill="rgb(4,102,112)"></path><path d="M 330.938 411.099 C 330.607 429.07 329.2 447.005 326.723 464.807 C 325.118 476.187 324.257 485.308 323.811 492.371 C 323.759 493.202 323.715 494.003 323.679 494.776 C 323.612 496.019 323.561 497.191 323.517 498.285 C 323.488 499.116 323.464 499.905 323.446 500.65 C 323.26 508.254 323.652 511.743 323.652 511.743 C 323.374 511.897 323.084 512.029 322.784 512.135 C 321.771 512.51 319.906 513.016 317.083 513.016 C 315.991 513.019 314.904 512.89 313.843 512.631 C 313.008 512.446 312.202 512.151 311.445 511.753 C 311.445 511.753 310.699 507.362 309.851 500.995 C 309.746 500.231 309.645 499.444 309.54 498.63 C 309.402 497.549 309.267 496.428 309.128 495.252 C 309.037 494.475 308.946 493.692 308.858 492.888 C 307.736 482.754 306.865 470.756 307.804 462.639 C 307.954 461.212 308.029 459.779 308.027 458.345 C 308.027 451.039 306.541 441.196 304.751 432.021 C 304.752 431.996 304.752 431.97 304.751 431.944 C 302.903 422.506 300.745 413.784 299.576 409.268 C 299.049 407.241 298.725 406.042 298.725 406.042 L 299.708 406.008 L 307.476 405.762 L 328.638 405.086 L 329.941 405.046 L 330.995 405.012 C 330.995 405.012 331.002 407.211 330.938 411.099 Z" fill="rgb(2,115,133)"></path><path d="M 309.037 342.22 L 314.279 346.108 L 321.855 344.511 C 321.751 343.835 321.251 340.954 320.795 338.359 C 320.768 338.207 320.741 338.052 320.714 337.903 C 320.325 335.694 319.987 333.799 319.987 333.799 L 312.911 330.269 L 310.273 328.955 C 310.273 328.999 310.476 331.404 310.503 331.756 C 310.999 337.988 309.037 342.22 309.037 342.22 Z" fill="rgb(255,178,125)"></path><path d="M 321.325 340.261 C 321.159 340.194 311.02 337.197 309.915 337.559 C 308.811 337.92 308.162 340.055 308.162 340.055 L 323.818 344.524 C 323.818 344.524 323.439 341.146 321.325 340.261 Z" fill="rgb(192,206,206)"></path><path d="M 294.02 408.339 C 295.735 416.186 331.573 391.568 331.093 386.781 C 331.043 386.254 330.989 385.724 330.938 385.201 C 330.262 378.533 329.641 372.01 329.587 367.754 C 329.513 364.092 329.105 360.444 328.367 356.857 C 327.743 353.688 326.979 350.814 326.314 348.578 C 325.852 347.028 324.987 345.629 323.808 344.524 C 322.98 343.741 322.01 343.123 320.95 342.703 C 320.661 342.581 320.364 342.476 320.062 342.389 C 315.745 341.139 309.773 339.589 308.152 340.062 C 303.761 341.352 300.508 349.074 298.201 358.921 C 293.895 377.35 292.898 403.228 294.02 408.339 Z" fill="rgb(203,215,216)"></path><path d="M 311.033 331.864 C 312.59 334.84 318.38 337.414 320.795 338.359 C 320.768 338.207 320.741 338.052 320.714 337.903 C 320.325 335.694 319.987 333.799 319.987 333.799 L 312.911 330.269 C 311.347 330.246 310.395 330.641 311.033 331.864 Z" fill="rgb(252,165,107)"></path><path d="M 323.439 333.377 C 323.439 333.377 310.672 337.363 308.314 329.368 C 305.956 321.372 302.721 316.508 310.773 313.623 C 318.825 310.738 321.315 313.323 322.75 315.799 C 324.186 318.275 326.685 332.141 323.439 333.377 Z" fill="rgb(255,178,125)"></path><path d="M 322.237 315.035 C 322.237 315.035 321.423 324.338 319.498 323.932 C 317.572 323.527 315.833 323.23 316.12 326.034 C 316.407 328.837 316.491 332.208 310.567 332.705 C 304.642 333.201 298.701 317.778 300.329 314.883 C 305.017 306.533 329.023 304.847 322.237 315.035 Z" fill="rgb(53,53,53)"></path><path d="M 330.012 405.029 C 326.462 406.312 330.073 401.499 330.012 400.496 C 329.739 396.084 331.468 390.507 330.938 385.201 L 309.253 372.223 C 309.253 372.223 304.119 404.823 330.012 405.029 Z" fill="rgb(192,206,206)"></path><path d="M 294.02 408.339 C 303.271 425.499 304.747 432.052 304.747 432.052 C 312.8 431.133 326.601 415.291 330.978 411.062 C 330.978 411.062 331.573 391.568 331.093 386.781 L 324.405 386.589 C 324.405 386.589 312.313 389.653 309.179 385.494 C 306.044 381.336 307.402 360.907 307.402 360.907 L 298.211 358.917 C 293.895 377.35 291.534 403.735 294.02 408.339 Z" fill="rgb(2,115,133)"></path><path d="M 348.924 375.459 C 348.924 375.459 353.315 372.479 354.163 372.219 C 355.011 371.959 357.74 371.676 357.879 371.882 C 358.017 372.088 358.382 372.76 357.902 372.983 C 357.423 373.206 356.828 373.128 357.007 373.287 C 357.186 373.446 358.986 372.584 359.402 373.503 C 359.817 374.422 360.182 377.556 358.071 378.523 C 355.96 379.489 350.741 378.614 350.366 378.725 C 347.164 379.654 348.924 375.459 348.924 375.459 Z" fill="rgb(255,178,125)"></path><path d="M 348.965 374.651 C 348.965 374.651 327.466 378.31 325.561 377.381 C 322.521 375.901 326.743 354.073 326.743 354.073 C 326.743 354.073 326.922 349.128 321.149 347.959 C 316.13 346.946 311.29 350.709 311.29 350.709 C 311.29 350.709 306.899 354.651 307.449 359.022 C 308.696 368.713 310.638 388.41 317.116 391.45 C 325.469 395.344 349.65 380.64 349.65 380.64 C 349.65 380.64 350.454 379.654 350.326 377.82 C 350.242 376.209 348.965 374.651 348.965 374.651 Z" fill="rgb(203,215,216)"></path><path d="M 305.619 360.522 L 307.402 360.907 C 307.402 360.907 311.168 344.598 323.818 344.521 C 322.99 343.737 322.02 343.119 320.96 342.7 C 316.323 343.943 308.273 347.902 305.619 360.522 Z" fill="rgb(2,115,133)"></path><path d="M 367.552 337.768 L 369.707 334.992 C 369.707 334.992 369.17 334.316 368.072 335.123 C 367.434 335.6 365.708 336.704 365.708 336.704 Z" fill="rgb(255,178,125)"></path><g transform="translate(278.722 489.199)"><path d="M 15.331 2.283 C 15.061 3.094 14.808 3.874 14.578 4.624 C 10.322 4.57 6.089 3.981 1.979 2.871 C 1.26 2.685 0.594 2.496 0 2.317 C 0.117 1.554 0.24 0.781 0.368 0 C 3.743 1.017 9.414 2.419 15.331 2.283 Z" fill="rgb(255,255,255)"></path></g><g transform="translate(277.898 494.83)"><path d="M 14.382 2.402 C 14.153 3.216 13.947 3.986 13.757 4.716 C 9.888 4.566 6.047 3.985 2.307 2.983 C 1.456 2.76 0.682 2.537 0 2.334 C 0.105 1.577 0.216 0.804 0.338 0 C 3.428 0.946 8.725 2.327 14.382 2.402 Z" fill="rgb(255,255,255)"></path></g><path d="M 323.811 492.381 C 323.759 493.212 323.715 494.014 323.679 494.786 C 319.749 495.472 315.752 495.699 311.769 495.462 C 310.887 495.416 310.005 495.353 309.125 495.272 C 309.033 494.495 308.942 493.712 308.854 492.908 C 312.073 493.239 317.913 493.587 323.811 492.381 Z M 323.517 498.296 C 323.488 499.127 323.464 499.915 323.446 500.66 C 319.813 501.22 316.132 501.397 312.462 501.187 C 311.489 501.136 310.611 501.072 309.847 501.005 C 309.743 500.241 309.641 499.454 309.537 498.64 C 312.577 498.937 317.957 499.272 323.517 498.296 Z" fill="rgb(255,255,255)"></path><path d="M 554.725 517.151 L 569.148 516.972 L 602.837 376.584 L 588.414 376.766 Z" fill="rgb(163,178,177)"></path><path d="M 530.892 520.275 L 595.581 520.275 C 595.58 516.491 592.512 513.424 588.728 513.422 L 537.745 513.422 C 533.961 513.424 530.893 516.491 530.892 520.275 Z" fill="rgb(163,178,177)"></path><path d="M 680.325 455.278 L 674.11 424.124 L 674.096 424.06 L 653.421 320.392 L 452.448 320.419 L 479.351 455.305 L 517.526 455.298 L 517.884 455.298 L 560.605 455.295 L 560.737 455.295 L 603.273 455.288 L 603.563 455.288 L 646.004 455.282 L 646.389 455.282 Z" fill="rgb(29,63,119)"></path><path d="M 683.767 452.61 L 482.793 452.64 L 455.89 320.419 L 656.863 320.392 Z" fill="rgb(42,78,150)"></path><path d="M 521.353 452.633 L 520.968 452.633 L 494.139 320.771 L 494.52 320.771 Z M 564.179 452.627 L 563.794 452.627 L 536.965 320.764 L 537.35 320.764 Z M 607.005 452.62 L 606.62 452.62 L 579.791 320.757 L 580.176 320.757 Z M 649.831 452.613 L 649.446 452.613 L 622.617 320.754 L 623.002 320.754 Z" fill="rgb(192,216,251)"></path><path d="M 663.247 351.77 L 462.277 351.8 L 462.202 351.439 L 663.173 351.408 Z M 670.401 386.923 L 469.427 386.95 L 469.356 386.589 L 670.327 386.562 Z M 677.552 422.074 L 476.581 422.104 L 476.507 421.743 L 677.477 421.712 Z" fill="rgb(192,216,251)"></path><path d="M 501.397 355.499 L 496.469 351.614 L 499.813 347.726 L 504.741 351.611 Z M 508.585 390.832 L 503.657 386.947 L 507.004 383.059 L 511.933 386.944 Z M 544.416 355.492 L 539.488 351.608 L 542.832 347.72 L 547.76 351.608 Z M 551.604 390.825 L 546.676 386.94 L 550.023 383.052 L 554.951 386.94 Z M 587.242 355.485 L 582.314 351.601 L 585.661 347.713 L 590.586 351.601 Z M 629.683 355.482 L 624.755 351.594 L 628.102 347.706 L 633.03 351.594 Z M 515.702 425.803 L 510.774 421.918 L 514.121 418.03 L 519.049 421.915 Z M 558.721 425.796 L 553.792 421.911 L 557.136 418.023 L 562.064 421.911 Z M 601.547 425.793 L 596.618 421.905 L 599.966 418.017 L 604.894 421.905 Z M 643.987 425.786 L 639.059 421.898 L 642.407 418.013 L 647.335 421.898 Z M 636.871 390.815 L 631.946 386.927 L 635.29 383.042 L 640.218 386.927 Z M 594.43 390.821 L 589.502 386.933 L 592.849 383.045 L 597.777 386.933 Z" fill="rgb(192,216,251)"></path><path d="M 614.292 359.589 L 616.668 358.993 L 619.828 371.583 L 617.452 372.179 Z" fill="rgb(173,200,254)"></path><path d="M 616.324 354.86 C 616.442 355.833 616.159 356.887 615.243 357.225 C 614.014 357.684 613.183 356.887 612.879 355.651 C 612.879 355.651 612.798 355.337 612.798 355.313 C 612.693 354.881 611.693 355.235 611.548 355.651 C 610.992 357.273 611.681 359.06 613.182 359.888 C 614.684 360.715 616.563 360.345 617.637 359.009 C 618.712 357.672 618.671 355.757 617.54 354.469 C 617.192 354.1 616.253 354.337 616.324 354.86 Z M 617.53 376.476 C 617.412 375.503 617.695 374.449 618.611 374.111 C 619.84 373.652 620.671 374.449 620.975 375.685 C 620.975 375.685 621.056 375.999 621.056 376.023 C 621.161 376.455 622.161 376.101 622.306 375.685 C 622.862 374.063 622.173 372.276 620.672 371.448 C 619.17 370.62 617.291 370.991 616.217 372.327 C 615.142 373.663 615.183 375.578 616.314 376.867 C 616.662 377.236 617.601 376.999 617.53 376.476 Z" fill="rgb(173,200,254)"></path><path d="M 611.876 327.348 C 611.876 327.348 609.471 322.352 607.518 320.801 C 605.566 319.251 600.358 319.629 600.155 320.024 C 599.537 321.254 604.337 323.166 604.884 324.294 C 605.431 325.422 603.137 325.307 604.904 327.27 C 606.397 328.925 609.971 330.502 609.971 330.502 Z" fill="rgb(255,178,125)"></path><path d="M 609.798 326.777 C 611.062 324.811 611.44 324.706 611.44 324.706 C 611.44 324.706 632.358 333.049 634.354 333.749 C 636.35 334.448 666.196 336.198 666.196 336.198 L 675.204 355.995 C 675.204 355.995 635.432 346.926 630.409 345.061 C 622.107 341.981 608.792 329.911 608.792 329.911 C 608.855 328.798 609.201 327.719 609.798 326.777 Z" fill="rgb(192,206,206)"></path><path d="M 606.667 325.895 C 607.104 325.165 607.002 324.233 606.417 323.615 C 605.667 322.727 605.502 324.419 604.222 323.993 C 603.158 323.656 600.304 323.216 602.151 324.706 C 603.84 326.077 605.529 327.918 606.157 328.347 C 606.785 328.776 606.667 325.895 606.667 325.895 Z" fill="rgb(255,178,125)"></path><path d="M 661.764 511.888 C 661.764 511.888 661.308 519.232 659.944 520.958 L 638.961 520.958 C 639.097 520.225 639.691 518.418 642.312 517.962 C 645.629 517.384 651.179 515.053 653.185 510.672 C 655.296 506.061 661.764 511.888 661.764 511.888 Z M 699 510.865 C 699 510.865 700.382 520.005 698.585 520.171 C 698.348 520.194 689.941 520.171 687.658 520.509 C 683.926 521.069 677.7 520.579 677.7 520.579 C 677.34 520.594 677.001 520.411 676.815 520.102 C 676.629 519.793 676.627 519.408 676.809 519.097 C 677.244 518.36 678.075 517.573 679.659 517.269 C 682.963 516.634 688.469 514.205 690.401 509.791 C 692.431 505.153 699 510.865 699 510.865 Z" fill="rgb(22,53,96)"></path><path d="M 698.997 510.865 C 697.372 511.414 695.685 511.754 693.974 511.878 C 692.432 512.016 690.879 511.917 689.367 511.584 C 689.102 511.525 688.84 511.452 688.583 511.365 C 688.583 511.365 688.229 506.902 685.354 497.495 C 685.138 496.786 684.905 496.043 684.658 495.272 C 684.334 494.266 683.983 493.21 683.605 492.104 C 683.355 491.381 683.098 490.638 682.828 489.878 C 680.436 483.156 677.055 474.792 672.293 464.696 C 670.716 461.352 669.246 458.161 667.881 455.123 C 656.13 428.985 651.898 414.173 651.898 414.173 L 652.411 413.865 L 673.255 401.452 L 676.758 399.367 L 682.277 396.081 C 682.277 396.081 682.355 398.445 682.561 402.266 C 682.558 402.32 682.558 402.374 682.561 402.428 C 683.257 415.264 685.395 444.141 690.863 456.535 C 694.194 464.071 696.183 476.39 697.359 487.388 C 697.44 488.165 697.521 488.935 697.595 489.692 C 697.71 490.845 697.815 491.971 697.909 493.07 C 697.977 493.85 698.044 494.62 698.098 495.37 C 698.828 504.244 698.997 510.865 698.997 510.865 Z" fill="rgb(4,102,112)"></path><path d="M 677.815 399.391 C 677.815 399.391 677.477 400.651 676.907 402.83 C 675.657 407.653 673.347 416.98 671.371 427.063 C 669.462 436.838 667.868 447.33 667.881 455.099 C 667.875 456.625 667.954 458.149 668.118 459.666 C 669.077 467.962 668.003 480.18 666.605 490.763 C 666.5 491.547 666.392 492.32 666.287 493.087 C 666.125 494.249 665.949 495.387 665.794 496.488 C 665.676 497.275 665.561 498.046 665.456 498.792 C 664.22 506.696 663.092 512.348 663.092 512.348 C 663.092 512.348 662.595 512.456 661.741 512.594 C 659.87 512.903 657.981 513.099 656.086 513.179 C 654.685 513.239 653.144 512.743 652.192 512.364 C 651.621 512.135 651.26 511.952 651.26 511.952 C 651.26 511.952 651.743 507.652 651.425 498.242 C 651.425 497.873 651.398 497.498 651.381 497.117 L 651.331 495.941 C 651.286 494.905 651.23 493.817 651.165 492.675 C 651.125 491.928 651.074 491.161 651.027 490.368 C 650.537 482.984 649.628 473.576 647.987 461.953 C 645.346 442.986 643.846 423.878 643.494 404.732 C 643.43 400.59 643.461 398.266 643.461 398.266 L 644.582 398.3 L 645.977 398.347 L 668.527 399.077 L 676.792 399.344 Z" fill="rgb(2,115,133)"></path><path d="M 666.804 331.377 L 661.21 335.515 L 653.138 333.826 C 653.249 333.09 653.783 330.036 654.266 327.273 C 654.296 327.111 654.327 326.935 654.354 326.787 L 655.127 322.416 L 662.67 318.656 L 665.483 317.254 C 665.483 317.302 665.264 319.866 665.233 320.237 C 664.71 326.868 666.804 331.377 666.804 331.377 Z" fill="rgb(255,178,125)"></path><path d="M 653.705 329.29 C 653.884 329.216 664.689 326.023 665.865 326.412 C 667.04 326.8 667.733 329.074 667.733 329.074 L 651.047 333.826 C 651.047 333.826 651.449 330.239 653.705 329.29 Z" fill="rgb(192,206,206)"></path><path d="M 682.807 401.806 C 680.977 410.163 642.785 383.941 643.288 378.837 C 643.342 378.276 643.4 377.712 643.454 377.148 C 644.16 370.054 644.835 363.099 644.883 358.569 C 644.961 354.668 645.396 350.782 646.183 346.96 C 646.859 343.582 647.662 340.542 648.372 338.143 C 649.221 335.293 651.326 332.987 654.087 331.881 C 654.396 331.749 654.713 331.636 655.036 331.543 C 659.636 330.209 666 328.557 667.726 329.06 C 672.401 330.438 675.87 338.663 678.329 349.152 C 682.936 368.794 684 396.361 682.807 401.806 Z" fill="rgb(203,215,216)"></path><path d="M 664.673 320.345 C 663.017 323.514 656.843 326.256 654.269 327.263 C 654.3 327.101 654.33 326.925 654.357 326.777 L 655.131 322.406 L 662.673 318.646 C 664.342 318.619 665.355 319.041 664.673 320.345 Z" fill="rgb(252,165,107)"></path><path d="M 651.466 321.963 C 651.466 321.963 665.071 326.206 667.584 317.694 C 670.097 309.181 673.546 303.993 664.966 300.922 C 656.387 297.852 653.732 300.601 652.202 303.24 C 650.672 305.878 647.993 320.639 651.466 321.963 Z" fill="rgb(255,178,125)"></path><path d="M 652.736 302.419 C 652.736 302.419 653.604 312.326 655.651 311.897 C 657.698 311.468 659.559 311.147 659.258 314.133 C 658.957 317.119 656.117 320.551 662.433 321.098 C 668.749 321.646 677.822 305.341 676.089 302.257 C 671.083 293.359 645.501 291.566 652.736 302.419 Z" fill="rgb(53,53,53)"></path><path d="M 644.447 398.276 C 648.23 399.628 644.379 394.517 644.447 393.449 C 644.741 388.751 642.896 382.812 643.461 377.154 L 666.561 363.346 C 666.561 363.346 672.043 398.057 644.447 398.276 Z" fill="rgb(192,206,206)"></path><path d="M 682.807 401.806 C 672.945 420.084 671.374 427.063 671.374 427.063 C 662.791 426.083 648.085 409.211 643.42 404.704 C 643.42 404.704 642.785 383.941 643.295 378.84 L 650.422 378.634 C 650.422 378.634 663.308 381.9 666.635 377.469 C 669.962 373.037 668.53 351.28 668.53 351.28 L 678.325 349.162 C 682.936 368.794 685.452 396.898 682.807 401.806 Z" fill="rgb(2,115,133)"></path><path d="M 624.292 366.781 C 624.292 366.781 619.597 363.606 618.709 363.329 C 617.82 363.052 614.899 362.751 614.764 362.991 C 614.628 363.231 614.226 363.927 614.736 364.163 C 615.247 364.4 615.882 364.318 615.692 364.501 C 615.503 364.683 613.581 363.754 613.139 364.734 C 612.696 365.714 612.308 369.064 614.561 370.081 C 616.814 371.098 622.37 370.179 622.769 370.297 C 626.17 371.257 624.292 366.781 624.292 366.781 Z" fill="rgb(255,178,125)"></path><path d="M 624.248 365.923 C 624.248 365.923 647.159 369.818 649.189 368.828 C 652.432 367.25 647.933 344.004 647.933 344.004 C 647.933 344.004 647.74 338.734 653.894 337.495 C 659.241 336.414 664.399 340.42 664.399 340.42 C 664.399 340.42 669.091 344.619 668.493 349.277 C 667.165 359.6 665.115 380.593 658.191 383.812 C 649.287 387.964 623.519 372.3 623.519 372.3 C 623.519 372.3 622.661 371.25 622.782 369.301 C 622.89 367.578 624.248 365.923 624.248 365.923 Z" fill="rgb(203,215,216)"></path><path d="M 670.442 350.868 L 668.543 351.28 C 668.543 351.28 664.531 333.907 651.047 333.826 C 651.929 332.993 652.96 332.334 654.087 331.884 C 659.035 333.208 667.628 337.431 670.442 350.868 Z" fill="rgb(2,115,133)"></path><path d="M 666.615 490.787 C 666.51 491.57 666.402 492.344 666.297 493.111 C 662.148 493.638 657.947 493.63 653.8 493.087 C 652.786 492.965 651.901 492.827 651.135 492.698 C 651.094 491.952 651.043 491.185 650.996 490.391 C 654.208 490.942 660.39 491.78 666.615 490.787 Z M 651.297 495.955 L 651.347 497.13 L 651.391 498.255 C 652.162 498.38 653.06 498.515 654.07 498.643 C 657.842 499.132 661.658 499.186 665.443 498.806 C 665.561 498.059 665.676 497.289 665.78 496.502 C 659.978 497.248 654.34 496.482 651.297 495.955 Z" fill="rgb(255,255,255)"></path><g transform="translate(682.845 487.378)"><path d="M 14.764 2.304 C 10.887 3.561 6.87 4.331 2.803 4.597 C 2.064 4.655 1.381 4.685 0.777 4.716 C 0.527 3.993 0.27 3.25 0 2.49 C 3.28 2.392 9.022 1.969 14.544 0 C 14.609 0.777 14.69 1.547 14.764 2.304 Z" fill="rgb(255,255,255)"></path></g><g transform="translate(684.658 493.063)"><path d="M 13.453 2.297 C 9.837 3.389 6.11 4.069 2.341 4.324 C 1.756 4.368 1.206 4.401 0.696 4.425 C 0.48 3.716 0.247 2.973 0 2.202 C 3.175 2.081 8.255 1.652 13.264 0 C 13.332 0.763 13.399 1.547 13.453 2.297 Z" fill="rgb(255,255,255)"></path></g><path d="M 137.753 409.836 C 137.753 409.836 139.547 407.106 140.793 406.353 C 142.039 405.6 145.059 406.228 145.147 406.475 C 145.414 407.238 142.462 407.981 142.053 408.596 C 141.644 409.211 142.992 409.325 141.81 410.329 C 140.796 411.18 138.604 411.822 138.604 411.822 Z" fill="rgb(255,178,125)"></path><path d="M 139.016 409.663 C 138.432 408.417 138.219 408.329 138.219 408.329 C 138.219 408.329 125.384 411.568 124.151 411.822 C 122.918 412.075 105.388 410.778 105.388 410.778 L 98.595 421.624 C 98.595 421.624 122.499 419.425 125.573 418.726 C 130.657 417.574 139.361 411.572 139.361 411.572 C 139.411 410.917 139.292 410.259 139.016 409.663 Z" fill="rgb(192,206,206)"></path><path d="M 140.905 409.379 C 140.921 409.379 141.621 408.704 142.31 408.096 C 142.816 407.637 143.178 407.001 143.394 406.826 C 143.907 406.41 144.151 407.528 143.303 408.788 C 142.699 409.634 141.917 410.338 141.013 410.849 C 140.614 411.068 140.905 409.379 140.905 409.379 Z" fill="rgb(255,178,125)"></path><path d="M 174.371 518.718 L 182.859 518.614 L 202.686 435.997 L 194.195 436.102 Z" fill="rgb(163,178,177)"></path><path d="M 160.347 520.556 L 198.413 520.556 C 198.413 518.328 196.608 516.523 194.38 516.523 L 164.38 516.523 C 162.152 516.523 160.347 518.328 160.347 520.556 Z" fill="rgb(163,178,177)"></path><path d="M 248.285 482.305 L 244.627 463.973 L 244.621 463.936 L 232.451 402.928 L 114.183 402.945 L 130.015 482.322 L 152.48 482.318 L 152.689 482.318 L 177.833 482.315 L 177.907 482.315 L 202.94 482.311 L 203.112 482.311 L 228.087 482.308 L 228.313 482.308 Z" fill="rgb(29,63,119)"></path><path d="M 250.309 480.737 L 132.041 480.754 L 116.21 402.945 L 234.477 402.928 Z" fill="rgb(42,78,150)"></path><path d="M 154.733 480.751 L 154.507 480.751 L 138.716 403.151 L 138.942 403.151 Z M 179.934 480.747 L 179.708 480.747 L 163.92 403.147 L 164.143 403.147 Z M 205.138 480.744 L 204.912 480.744 L 189.121 403.144 L 189.348 403.144 Z M 230.34 480.741 L 230.113 480.741 L 214.326 403.141 L 214.552 403.141 Z" fill="rgb(192,216,251)"></path><path d="M 238.233 421.395 L 119.966 421.412 L 119.922 421.199 L 238.193 421.182 Z M 242.445 442.081 L 124.175 442.098 L 124.131 441.885 L 242.401 441.868 Z M 246.654 462.767 L 128.383 462.784 L 128.339 462.571 L 246.61 462.554 Z" fill="rgb(192,216,251)"></path><path d="M 142.989 423.587 L 140.087 421.3 L 142.056 419.013 L 144.958 421.3 Z M 147.217 444.381 L 144.319 442.094 L 146.289 439.807 L 149.187 442.094 Z M 168.305 423.583 L 165.403 421.297 L 167.372 419.01 L 170.274 421.297 Z M 172.533 444.378 L 169.635 442.091 L 171.605 439.804 L 174.503 442.091 Z M 193.506 423.58 L 190.608 421.293 L 192.577 419.006 L 195.475 421.293 Z M 218.484 423.577 L 215.582 421.29 L 217.552 419.003 L 220.453 421.29 Z M 151.406 464.963 L 148.504 462.676 L 150.474 460.386 L 153.375 462.672 Z M 176.722 464.959 L 173.82 462.669 L 175.79 460.382 L 178.691 462.669 Z M 201.926 464.952 L 199.025 462.666 L 200.994 460.379 L 203.895 462.666 Z M 226.901 464.949 L 224 462.662 L 225.969 460.375 L 228.87 462.662 Z M 222.713 444.371 L 219.815 442.084 L 221.784 439.797 L 224.682 442.084 Z M 197.738 444.374 L 194.836 442.088 L 196.806 439.801 L 199.707 442.088 Z" fill="rgb(192,216,251)"></path><path d="M 133.25 433.372 L 131.851 433.021 L 133.712 425.61 L 135.111 425.962 Z" fill="rgb(173,200,254)"></path><path d="M 133.886 423.229 C 133.815 423.8 133.98 424.414 134.521 424.617 C 135.244 424.887 135.73 424.418 135.912 423.692 C 135.912 423.692 135.96 423.506 135.96 423.502 C 136.024 423.249 136.611 423.455 136.696 423.705 C 136.984 424.544 136.708 425.473 136.009 426.019 C 135.309 426.564 134.341 426.605 133.598 426.121 C 132.854 425.637 132.501 424.734 132.717 423.874 C 132.798 423.553 132.953 423.256 133.17 423.006 C 133.376 422.766 133.926 422.891 133.886 423.229 Z M 133.176 435.933 C 133.247 435.359 133.082 434.744 132.541 434.545 C 131.819 434.275 131.332 434.744 131.15 435.47 C 131.15 435.47 131.102 435.656 131.099 435.659 C 131.038 435.913 130.451 435.703 130.366 435.457 C 130.078 434.618 130.354 433.688 131.053 433.143 C 131.753 432.598 132.721 432.556 133.464 433.041 C 134.208 433.525 134.561 434.428 134.345 435.288 C 134.264 435.608 134.109 435.904 133.892 436.153 C 133.686 436.379 133.136 436.24 133.176 435.933 Z" fill="rgb(173,200,254)"></path><path d="M 107.144 515.621 C 107.144 515.621 107.411 519.941 108.215 520.958 L 120.564 520.958 C 120.486 520.529 120.135 519.465 118.591 519.195 C 116.639 518.857 113.373 517.485 112.194 514.905 C 110.951 512.192 107.144 515.621 107.144 515.621 Z M 85.233 515.019 C 85.233 515.019 84.419 520.397 85.476 520.495 C 85.615 520.495 90.563 520.495 91.894 520.701 C 94.089 521.039 97.751 520.742 97.751 520.742 C 97.963 520.75 98.162 520.643 98.272 520.462 C 98.382 520.28 98.384 520.054 98.278 519.87 C 97.905 519.276 97.285 518.88 96.589 518.793 C 94.647 518.418 91.404 516.992 90.269 514.401 C 89.097 511.658 85.233 515.019 85.233 515.019 Z" fill="rgb(22,53,96)"></path><path d="M 112.954 458.109 C 112.954 458.109 109.847 468.976 100.95 487.834 C 98.589 492.775 96.481 497.833 94.633 502.987 C 94.464 503.457 94.296 503.906 94.16 504.339 C 93.924 505.034 93.708 505.697 93.512 506.325 C 93.363 506.788 93.228 507.233 93.096 507.676 C 91.56 512.844 91.36 515.303 91.36 515.303 C 90.325 515.661 89.228 515.812 88.135 515.746 C 87.137 515.64 86.159 515.394 85.23 515.016 C 85.23 515.016 85.318 511.513 85.689 506.679 C 85.723 506.24 85.757 505.794 85.794 505.328 C 85.845 504.703 85.905 504.065 85.963 503.406 C 86.007 502.964 86.054 502.511 86.094 502.055 C 86.77 495.367 87.962 487.662 90.013 483.024 C 94.214 473.505 95.079 447.445 95.079 447.445 Z" fill="rgb(4,102,112)"></path><path d="M 115.271 486.243 C 114.2 493.86 113.657 499.863 113.4 504.403 C 113.369 504.876 113.349 505.332 113.329 505.774 C 113.295 506.481 113.267 507.147 113.244 507.771 C 113.244 508.243 113.217 508.696 113.211 509.122 C 113.128 511.304 113.175 513.488 113.349 515.665 C 112.285 516.03 111.168 516.221 110.042 516.229 C 108.811 516.241 107.582 516.128 106.374 515.891 C 106.374 515.891 105.834 513.209 105.199 509.294 C 105.128 508.855 105.057 508.406 104.983 507.943 C 104.888 507.321 104.79 506.676 104.692 506.014 C 104.625 505.572 104.564 505.119 104.496 504.663 C 103.581 498.13 102.807 490.175 103.405 484.899 C 104.601 474.563 97.704 449.431 97.704 449.431 L 117.936 448.756 C 117.914 461.298 117.024 473.824 115.271 486.243 Z" fill="rgb(2,115,133)"></path><path d="M 104.179 409.379 L 107.469 411.815 L 112.221 410.802 C 112.153 410.366 111.839 408.572 111.546 406.944 C 111.529 406.849 111.508 406.751 111.495 406.657 C 111.248 405.275 111.039 404.086 111.039 404.086 L 106.601 401.874 L 104.945 401.05 C 104.945 401.077 105.074 402.583 105.091 402.803 C 105.412 406.738 104.179 409.379 104.179 409.379 Z" fill="rgb(255,178,125)"></path><path d="M 111.887 408.163 C 111.782 408.12 105.422 406.241 104.733 406.475 C 104.044 406.708 103.632 408.038 103.632 408.038 L 113.451 410.835 C 113.451 410.835 113.217 408.724 111.887 408.163 Z" fill="rgb(192,206,206)"></path><path d="M 94.768 450.84 C 95.846 455.758 118.321 440.324 118.021 437.328 C 117.987 436.99 117.956 436.653 117.923 436.335 C 117.507 432.157 117.109 428.069 117.082 425.401 C 117.036 423.104 116.779 420.817 116.315 418.567 C 115.926 416.585 115.447 414.781 115.028 413.379 C 114.524 411.699 113.28 410.342 111.65 409.694 C 111.468 409.618 111.282 409.552 111.093 409.498 C 108.391 408.714 104.641 407.741 103.625 408.038 C 100.875 408.849 98.832 413.69 97.386 419.861 C 94.684 431.413 94.059 447.634 94.768 450.84 Z" fill="rgb(203,215,216)"></path><path d="M 105.435 402.901 C 106.408 404.765 110.039 406.377 111.556 406.954 C 111.539 406.86 111.518 406.762 111.505 406.667 C 111.258 405.285 111.049 404.096 111.049 404.096 L 106.611 401.884 C 105.628 401.884 105.03 402.134 105.435 402.901 Z" fill="rgb(252,165,107)"></path><path d="M 113.204 403.853 C 113.204 403.853 105.199 406.35 103.719 401.34 C 102.24 396.331 100.21 393.277 105.26 391.47 C 110.309 389.663 111.873 391.281 112.772 392.821 C 113.67 394.361 115.251 403.073 113.204 403.853 Z" fill="rgb(255,178,125)"></path><path d="M 112.457 392.352 C 112.457 392.352 111.947 398.182 110.742 397.928 C 109.536 397.675 108.695 397.479 108.62 399.246 C 108.543 401.077 108.958 403.181 105.243 403.492 C 101.527 403.803 97.707 394.071 98.727 392.257 C 101.659 387.021 116.724 385.964 112.457 392.352 Z" fill="rgb(53,53,53)"></path><path d="M 117.335 448.762 C 115.109 449.566 117.375 446.55 117.335 445.921 C 117.163 443.155 118.247 439.659 117.916 436.332 L 104.321 428.225 C 104.321 428.225 101.095 448.634 117.335 448.762 Z" fill="rgb(192,206,206)"></path><path d="M 94.768 450.84 C 100.571 461.595 101.497 465.702 101.497 465.702 C 106.563 465.125 115.204 455.197 117.946 452.529 C 117.946 452.529 118.321 440.307 118.021 437.308 L 113.825 437.186 C 113.825 437.186 106.242 439.108 104.277 436.511 C 102.311 433.913 103.162 421.097 103.162 421.097 L 97.393 419.851 C 94.684 431.413 93.205 447.952 94.768 450.84 Z" fill="rgb(2,115,133)"></path><path d="M 129.197 430.228 C 129.197 430.228 131.96 428.356 132.484 428.201 C 133.007 428.046 134.723 427.863 134.804 427.998 C 134.885 428.134 135.119 428.549 134.804 428.674 C 134.49 428.799 134.129 428.765 134.244 428.863 C 134.359 428.961 135.487 428.424 135.747 429.002 C 136.007 429.579 136.237 431.549 134.909 432.146 C 133.582 432.744 130.315 432.204 130.079 432.275 C 128.093 432.863 129.197 430.228 129.197 430.228 Z" fill="rgb(255,178,125)"></path><path d="M 129.221 429.721 C 129.221 429.721 115.741 432.015 114.545 431.434 C 112.637 430.505 115.285 416.824 115.285 416.824 C 115.285 416.824 115.399 413.723 111.775 412.99 C 108.631 412.355 105.594 414.713 105.594 414.713 C 105.594 414.713 102.831 417.186 103.186 419.925 C 103.966 426.005 105.182 438.355 109.245 440.25 C 114.487 442.692 129.65 433.477 129.65 433.477 C 129.999 432.958 130.154 432.333 130.086 431.711 C 129.98 430.982 129.681 430.295 129.221 429.721 Z" fill="rgb(203,215,216)"></path><path d="M 102.037 420.864 L 103.155 421.104 C 103.155 421.104 105.52 410.883 113.451 410.832 C 112.93 410.341 112.322 409.954 111.657 409.69 C 108.752 410.471 103.702 412.957 102.037 420.864 Z" fill="rgb(2,115,133)"></path><path d="M 113.4 504.403 C 113.369 504.876 113.349 505.332 113.329 505.774 C 110.881 506.188 108.391 506.302 105.915 506.112 C 105.472 506.082 105.064 506.044 104.692 506.007 C 104.625 505.565 104.564 505.112 104.496 504.656 C 106.496 504.876 109.968 505.099 113.4 504.403 Z M 113.244 507.771 C 113.244 508.243 113.217 508.696 113.211 509.122 C 110.914 509.475 108.583 509.563 106.266 509.385 C 105.881 509.362 105.526 509.331 105.199 509.301 C 105.128 508.862 105.057 508.412 104.983 507.95 C 107.732 508.262 110.511 508.202 113.244 507.771 Z" fill="rgb(255,255,255)"></path><g transform="translate(85.963 502.045)"><path d="M 8.671 0.949 C 8.502 1.419 8.333 1.868 8.198 2.3 C 5.857 2.345 3.518 2.118 1.229 1.625 C 0.78 1.534 0.372 1.439 0 1.351 C 0.044 0.909 0.091 0.456 0.132 0 C 2.918 0.721 5.794 1.041 8.671 0.949 Z" fill="rgb(255,255,255)"></path></g><g transform="translate(85.689 505.311)"><path d="M 7.823 1.013 C 7.674 1.476 7.539 1.922 7.407 2.365 C 5.391 2.332 3.382 2.105 1.409 1.689 C 0.885 1.581 0.415 1.469 0 1.351 C 0.034 0.912 0.068 0.466 0.105 0 C 2.626 0.654 5.218 0.995 7.823 1.013 Z" fill="rgb(255,255,255)"></path></g><path d="M 777.177 227.794 C 766.109 226.146 753.824 218.62 740.661 205.423 C 730.146 194.884 719.044 180.72 707.667 163.328 C 688.952 134.71 675.579 106.579 674.593 104.448 C 661.106 104.785 643.94 100.316 623.589 91.152 C 607.265 83.805 588.86 73.442 568.871 60.346 C 547.614 46.339 527.113 31.218 507.454 15.045 L 507.727 14.707 C 527.377 30.866 547.866 45.975 569.11 59.971 C 589.073 73.05 607.458 83.403 623.762 90.744 C 644.126 99.908 661.275 104.37 674.718 103.995 L 674.856 103.995 L 674.914 104.12 C 675.049 104.41 688.675 133.491 708.015 163.074 C 719.375 180.443 730.457 194.586 740.951 205.105 C 754.047 218.232 766.254 225.71 777.228 227.352 Z M 710.187 222.937 C 695.737 220.718 680.105 212.874 663.723 199.63 C 650.631 189.043 637.04 174.998 623.302 157.882 C 600.618 129.606 585.016 102.103 583.976 100.252 C 556.604 97.668 529.721 91.308 504.093 81.353 C 483.536 73.35 463.917 63.119 445.588 50.844 C 420.586 34.096 403.153 16.768 397.442 9.938 L 397.779 9.668 C 403.491 16.484 420.883 33.789 445.841 50.496 C 464.148 62.754 483.743 72.97 504.275 80.961 C 529.899 90.913 556.777 97.265 584.145 99.837 L 584.256 99.837 L 584.31 99.931 C 584.465 100.215 600.304 128.502 623.654 157.605 C 637.364 174.697 650.942 188.719 664.011 199.289 C 680.332 212.486 695.896 220.299 710.285 222.508 Z M 651.01 227.794 C 631.655 227.17 611.335 220.066 590.62 206.683 C 574.069 195.978 557.201 181.261 540.521 162.932 C 512.942 132.626 494.922 102.252 493.733 100.256 C 475.156 99.749 452.826 94.699 427.307 85.241 C 406.855 77.664 384.333 67.257 360.361 54.306 C 319.552 32.262 288.281 10.194 287.973 9.975 L 288.217 9.637 C 288.527 9.857 319.781 31.931 360.571 53.945 C 384.522 66.886 407.028 77.283 427.449 84.852 C 452.978 94.311 475.318 99.357 493.855 99.844 L 493.973 99.844 L 494.031 99.945 C 494.213 100.259 512.47 131.494 540.832 162.659 C 557.488 180.957 574.312 195.651 590.846 206.331 C 611.497 219.674 631.74 226.754 651.016 227.379 Z" fill="rgb(203,215,216)"></path><path d="M 0.966 521.677 C 0.433 521.677 -0 521.677 -0 521.677 L -0 519.499 C -0 519.499 0.433 519.499 0.966 519.499 L 881.005 519.499 C 881.538 519.499 881.971 519.499 881.971 519.499 L 881.971 521.677 C 881.971 521.677 881.538 521.677 881.005 521.677 Z" fill="rgb(46,53,82)"></path></g></g></g><path d="M 801.988 19.615 C 805.776 20.163 809.487 21.155 813.043 22.571 C 819.104 19.652 824.386 15.481 828.689 9.721 C 825.848 16.325 824.876 22.991 825.383 29.707 C 828.379 32.079 831.089 34.79 833.461 37.786 C 840.177 38.288 846.843 37.32 853.447 34.479 C 847.687 38.778 843.516 44.061 840.597 50.121 C 842.014 53.678 843.007 57.389 843.558 61.177 C 849.116 64.969 855.375 67.46 862.51 68.3 C 855.371 69.144 849.112 71.635 843.554 75.427 C 843.003 79.213 842.011 82.922 840.598 86.478 C 843.517 92.538 847.688 97.825 853.453 102.128 C 846.845 99.287 840.179 98.315 833.463 98.822 C 831.092 101.817 828.383 104.528 825.389 106.9 C 824.886 113.612 825.854 120.282 828.695 126.89 C 824.396 121.13 819.109 116.959 813.053 114.04 C 809.494 115.456 805.783 116.449 801.993 117.001 C 798.201 122.563 795.714 128.818 794.87 135.953 C 794.03 128.814 791.535 122.559 787.747 116.997 C 783.96 116.446 780.251 115.452 776.696 114.036 C 770.636 116.955 765.349 121.126 761.05 126.891 C 763.891 120.282 764.863 113.616 764.356 106.901 C 761.362 104.529 758.653 101.818 756.282 98.822 C 749.566 98.32 742.9 99.287 736.292 102.129 C 742.052 97.83 746.219 92.543 749.142 86.486 C 747.725 82.929 746.733 79.217 746.186 75.427 C 740.624 71.639 734.369 69.148 727.23 68.304 C 734.369 67.464 740.628 64.969 746.186 61.177 C 746.737 57.391 747.729 53.682 749.142 50.126 C 746.222 44.064 742.051 38.778 736.291 34.475 C 742.899 37.316 749.565 38.287 756.281 37.781 C 758.653 34.788 761.362 32.078 764.355 29.706 C 764.862 22.991 763.894 16.325 761.049 9.717 C 765.347 15.477 770.634 19.648 776.691 22.566 C 780.247 21.15 783.958 20.158 787.746 19.611 C 791.539 14.048 794.03 7.793 794.869 0.654 C 795.713 7.793 798.205 14.052 801.997 19.611 Z" fill="rgb(252,211,78)"></path><path d="M 755.449 68.307 C 755.449 46.541 773.094 28.896 794.861 28.896 C 816.627 28.896 834.272 46.541 834.272 68.307 C 834.272 90.074 816.627 107.719 794.861 107.719 C 773.094 107.719 755.449 90.074 755.449 68.307 Z" fill="rgb(255,227,86)"></path></svg>