<!-- Asset_1 -->
<svg xmlns="http://www.w3.org/2000/svg" width="200" height="107">
  <g transform="translate(-0 0.003)">
    <g transform="translate(-0 -0)">
      <path d="M 194.043 106.143 C 194.028 106.171 194.012 106.198 193.997 106.225 C 193.887 106.422 193.773 106.623 193.657 106.823 L 15.641 106.77 C 15.641 106.77 15.468 106.577 15.157 106.207 C 15.14 106.187 15.122 106.165 15.104 106.143 C 13.578 104.292 12.152 102.36 10.834 100.356 C 5.859 92.846 -1.03 79.553 0.129 64.798 C 0.47 60.408 1.526 56.102 3.257 52.052 C 8.818 39.01 25.408 30.217 40.354 30.04 C 46.139 29.972 51.678 31.194 56.235 33.96 C 57.043 34.45 58.059 34.829 59.241 35.087 C 60.335 35.317 61.447 35.448 62.564 35.48 C 72.27 35.819 88.057 30.36 97.419 16.621 C 102.388 9.324 110.02 4.546 118.794 2.061 C 119.202 1.946 119.614 1.834 120.027 1.729 C 122.046 1.215 124.093 0.818 126.158 0.54 C 126.533 0.49 126.91 0.443 127.289 0.399 C 136.546 -0.674 146.461 0.436 155.556 3.502 C 156.753 3.906 157.936 4.344 159.104 4.816 C 176.218 11.735 189.533 25.863 188.363 45.593 C 188.317 46.373 188.248 47.163 188.154 47.961 C 187.973 49.523 187.711 51.076 187.37 52.612 C 187.163 53.544 186.926 54.487 186.658 55.44 C 179.604 80.447 207.803 81.576 194.043 106.143 Z" fill="#eaf3fa"></path>
      <path d="M 194.043 106.143 L 55.478 106.158 L 56.673 64.811 L 56.673 53.581 L 61.855 53.581 L 61.855 44.807 L 72.192 44.807 L 72.192 52.254 L 75.349 52.254 L 75.349 38.482 L 76.036 38.482 L 76.036 37.519 L 76.165 37.519 L 76.165 38.482 L 78.658 38.482 L 78.658 37.519 L 78.783 37.519 L 78.783 38.482 L 82.312 38.482 L 82.312 37.519 L 82.437 37.519 L 82.437 38.482 L 84.659 38.482 L 84.659 37.519 L 84.781 37.519 L 84.781 38.482 L 85.694 38.482 L 85.694 51.338 L 89.184 51.338 L 89.184 49.259 L 93.3 49.277 L 93.3 45.907 L 94.127 45.907 L 94.127 45.241 L 94.237 45.241 L 94.237 45.907 L 98.052 45.907 L 98.052 45.239 L 98.161 45.239 L 98.161 45.907 L 98.928 45.907 L 98.928 52.607 L 103.824 52.607 L 103.824 55.073 L 106.548 55.073 L 106.548 53.643 L 109.075 53.643 L 109.075 47.959 L 110.335 47.959 L 110.335 45.306 L 110.525 45.306 L 110.525 47.959 L 113.544 47.959 L 113.544 42.987 L 113.839 42.987 L 113.839 47.959 L 115.836 47.959 L 115.836 38.209 L 116.431 38.209 L 116.431 37.466 L 116.526 37.466 L 116.526 38.209 L 120.936 38.209 L 120.936 37.466 L 121.03 37.466 L 121.03 38.209 L 121.835 38.209 L 121.835 43.406 L 122.401 43.406 L 122.397 43.406 L 122.397 42.412 L 122.401 42.412 L 122.401 41.727 L 122.397 41.727 L 122.397 40.733 L 122.401 40.733 L 122.401 40.05 L 122.397 40.05 L 122.397 39.057 L 128.667 39.057 C 128.714 39.083 128.762 39.11 128.811 39.136 L 128.811 45.763 L 129.794 45.763 L 129.794 44.807 L 141.083 44.807 L 141.083 52.254 L 144.529 52.254 L 144.529 38.482 L 145.277 38.482 L 145.277 37.519 L 145.413 37.519 L 145.413 38.482 L 148.133 38.482 L 148.133 37.519 L 148.269 37.519 L 148.269 38.482 L 152.123 38.482 L 152.123 37.519 L 152.259 37.519 L 152.259 38.482 L 154.685 38.482 L 154.685 37.519 L 154.821 37.519 L 154.821 38.482 L 155.818 38.482 L 155.818 51.338 L 159.626 51.338 L 159.626 49.259 L 164.118 49.277 L 164.118 45.908 L 165.022 45.908 L 165.022 45.241 L 165.143 45.241 L 165.143 45.908 L 169.304 45.908 L 169.304 45.24 L 169.423 45.24 L 169.423 45.908 L 170.261 45.908 L 170.261 52.609 L 175.608 52.609 L 175.608 55.074 L 178.579 55.074 L 178.579 53.643 L 181.336 53.643 L 181.336 47.958 L 182.711 47.958 L 182.711 45.306 L 182.918 45.306 L 182.918 47.958 L 186.214 47.958 L 186.214 42.987 L 186.535 42.987 L 186.535 47.958 L 188.155 47.958 C 187.974 49.521 187.712 51.073 187.37 52.609 C 187.164 53.542 186.926 54.484 186.658 55.437 C 179.604 80.447 207.803 81.576 194.043 106.143 Z" fill="rgb(223,235,250)"></path>
      <path d="M 159.103 4.813 L 159.103 106.143 L 155.555 106.143 L 155.555 3.5 C 156.754 3.903 157.936 4.341 159.103 4.813 Z" fill="rgb(175,205,251)"></path>
      <path d="M 59.241 35.087 L 59.241 106.207 L 15.154 106.207 C 15.136 106.187 15.119 106.165 15.1 106.143 C 13.574 104.292 12.149 102.36 10.831 100.356 C 5.859 92.846 -1.03 79.553 0.129 64.798 C 0.47 60.408 1.526 56.102 3.257 52.052 C 8.818 39.01 25.408 30.217 40.354 30.04 C 46.085 30.103 51.547 31.338 56.083 33.96 C 56.932 34.45 57.999 34.827 59.241 35.087 Z" fill="rgb(206,225,253)"></path>
      <path d="M 127.289 0.396 L 127.289 12.875 C 127.289 13.848 127.051 14.641 126.76 14.641 L 126.685 14.641 C 126.394 14.641 126.158 13.847 126.158 12.875 L 126.158 0.54 C 126.533 0.488 126.91 0.44 127.289 0.396 Z" fill="rgb(159,193,244)"></path>
      <path d="M 126.428 11.64 C 122.309 11.64 118.97 15.165 118.97 19.515 L 133.887 19.515 C 133.887 15.165 130.548 11.64 126.428 11.64 Z" fill="rgb(255,152,67)"></path>
      <path d="M 127.023 11.735 C 126.807 11.69 126.588 11.667 126.367 11.667 C 123.684 11.667 121.508 15.182 121.508 19.517 L 122.815 19.517 C 122.815 15.537 124.652 12.252 127.023 11.735 Z" fill="rgb(255,196,138)"></path>
      <path d="M 175.55 94.529 C 175.55 94.529 173.565 92.22 175.427 90.748 C 175.427 90.748 176.788 89.926 177.897 89.993 C 177.897 89.993 176.325 92.624 176.834 92.886 C 177.342 93.148 178.373 89.828 178.373 89.828 C 178.373 89.828 181.47 89.528 182.465 90.006 C 182.465 90.006 179.819 92.169 180.376 92.297 C 180.933 92.425 183.793 90.304 183.793 90.304 C 183.793 90.304 186.674 90.793 186.52 92.548 C 186.367 94.303 185.374 94.845 184.937 94.798 C 184.501 94.751 181.948 93.78 181.893 94.136 C 181.837 94.491 183.374 95.659 184.45 95.714 C 184.45 95.714 182.418 97.95 181.068 97.305 C 179.717 96.659 179.603 95.636 178.761 95.252 C 177.919 94.869 177.201 94.869 177.549 95.261 C 177.896 95.653 179.419 96.033 179.9 96.883 C 180.381 97.733 180.813 98.309 179.417 98.096 C 178.02 97.884 175.749 96.866 175.649 95.698 Z" fill="rgb(119,164,229)"></path>
      <path d="M 185.107 92.596 C 185.107 92.596 177.281 92.294 175.553 94.529 C 175.553 94.529 175.17 95.672 173.994 96.713 L 173.81 97.212 C 173.81 97.212 175.167 95.786 175.652 95.698 C 175.649 95.698 174.89 92.929 185.107 92.596 Z" fill="rgb(119,164,229)"></path>
      <path d="M 173.991 96.713 C 173.991 96.713 172.312 97.953 172.195 100.169 L 172.5 100.196 C 172.5 100.196 173.036 97.905 174.006 97.009 C 174.975 96.113 173.991 96.713 173.991 96.713 Z M 168.609 91.621 C 168.609 91.621 171.767 89.856 170.294 87.46 C 170.294 87.46 169.115 85.989 167.852 85.611 C 167.852 85.611 168.526 89.183 167.852 89.268 C 167.178 89.352 167.389 85.233 167.389 85.233 C 167.389 85.233 164.063 83.635 162.758 83.761 C 162.758 83.761 164.821 87.25 164.147 87.166 C 163.473 87.083 161.155 83.551 161.155 83.551 C 161.155 83.551 157.745 82.921 157.198 84.938 C 156.65 86.955 157.534 87.965 158.04 88.091 C 158.545 88.217 161.787 88.175 161.702 88.595 C 161.618 89.015 159.429 89.688 158.208 89.31 C 158.208 89.31 159.555 92.63 161.323 92.462 C 163.092 92.294 163.636 91.201 164.734 91.117 C 165.832 91.033 166.628 91.327 166.081 91.621 C 165.534 91.915 163.686 91.721 162.802 92.468 C 161.918 93.215 161.202 93.681 162.844 94.017 C 164.486 94.354 167.433 94.143 168.023 92.882 Z" fill="rgb(119,164,229)"></path>
      <path d="M 158.758 85.569 C 158.758 85.569 167.599 88.427 168.609 91.621 C 168.609 91.621 168.568 93.047 169.452 94.69 L 169.452 95.32 C 169.452 95.32 168.526 93.176 168.02 92.882 C 168.02 92.882 169.999 90.108 158.758 85.569 Z" fill="rgb(119,164,229)"></path>
      <path d="M 169.452 94.69 C 169.452 94.69 170.812 96.757 170.038 99.273 L 169.687 99.179 C 169.687 99.179 170.027 96.407 169.314 95.013 C 168.601 93.62 169.452 94.69 169.452 94.69 Z" fill="rgb(119,164,229)"></path>
      <path d="M 173.633 89.187 C 173.633 89.187 169.471 86.859 171.413 83.702 C 171.413 83.702 172.967 81.762 174.632 81.264 C 174.632 81.264 173.744 85.973 174.632 86.084 C 175.519 86.195 175.244 80.765 175.244 80.765 C 175.244 80.765 179.628 78.66 181.349 78.826 C 181.349 78.826 178.628 83.425 179.517 83.313 C 180.406 83.202 183.457 78.549 183.457 78.549 C 183.457 78.549 187.952 77.718 188.674 80.377 C 189.396 83.036 188.23 84.366 187.564 84.533 C 186.898 84.699 182.625 84.643 182.736 85.197 C 182.847 85.751 185.733 86.638 187.342 86.139 C 187.342 86.139 185.566 90.516 183.236 90.295 C 180.905 90.073 180.183 88.633 178.74 88.522 C 177.297 88.411 176.243 88.799 176.964 89.187 C 177.686 89.574 180.127 89.314 181.293 90.303 C 182.458 91.292 183.401 91.902 181.238 92.345 C 179.075 92.789 175.185 92.511 174.411 90.852 Z" fill="rgb(159,193,244)"></path>
      <path d="M 186.62 81.208 C 186.62 81.208 174.965 84.976 173.631 89.187 C 173.631 89.187 173.687 91.07 172.521 93.231 L 172.521 94.062 C 172.521 94.062 173.745 91.237 174.408 90.849 C 174.41 90.849 171.801 87.192 186.62 81.208 Z" fill="rgb(159,193,244)"></path>
      <path d="M 172.526 93.231 C 172.526 93.231 170.729 95.956 171.754 99.274 L 172.216 99.149 C 172.216 99.149 171.767 95.496 172.708 93.659 C 173.648 91.822 172.526 93.231 172.526 93.231 Z" fill="rgb(159,193,244)"></path>
      <path d="M 173.493 106.466 C 175.655 106.466 177.729 105.608 179.258 104.082 C 180.787 102.555 181.646 100.485 181.646 98.326 L 165.34 98.326 C 165.34 102.821 168.99 106.466 173.493 106.466 Z" fill="rgb(159,193,244)"></path>
      <path d="M 175.499 106.403 C 173.178 106.691 170.846 105.971 169.093 104.425 C 167.34 102.88 166.335 100.659 166.333 98.324 L 168.359 98.324 C 168.358 102.429 171.419 105.893 175.499 106.403 Z" fill="rgb(175,205,251)"></path>
      <path d="M 165.072 98.326 L 181.831 98.326 L 181.831 98.576 L 165.072 98.576 Z" fill="rgb(159,193,244)"></path>
      <path d="M 135.536 106.066 L 127.525 72.866 L 128.084 71.559 L 136.021 106.06 C 136.031 106.102 136.021 106.146 135.995 106.179 C 135.968 106.213 135.928 106.233 135.885 106.233 L 135.749 106.233 C 135.648 106.233 135.561 106.164 135.536 106.066 Z M 99.379 106.235 C 99.301 106.235 99.226 106.201 99.176 106.141 C 99.125 106.081 99.103 106.002 99.116 105.925 L 101.476 91.646 L 102.487 91.646 L 99.673 105.993 C 99.646 106.134 99.522 106.235 99.379 106.235 Z M 122.015 106.235 C 121.937 106.235 121.862 106.201 121.812 106.141 C 121.761 106.081 121.739 106.002 121.752 105.925 L 124.112 91.646 L 125.123 91.646 L 122.309 105.993 C 122.282 106.134 122.158 106.235 122.015 106.235 Z" fill="rgb(119,164,229)"></path>
      <path d="M 127.504 91.676 L 99.323 91.676 L 105.161 55.132 L 133.342 55.132 Z" fill="rgb(245,251,255)"></path>
      <path d="M 97.247 91.397 L 129.612 91.397 L 129.612 92.471 L 97.247 92.471 Z" fill="rgb(119,164,229)"></path>
      <path d="M 116.23 59.891 L 113.293 59.891 L 113.368 59.49 L 116.305 59.49 Z M 119.833 59.891 L 116.59 59.891 L 116.666 59.49 L 119.909 59.49 Z M 122.145 59.891 L 120.077 59.891 L 120.152 59.49 L 122.22 59.49 Z M 124.075 59.891 L 122.479 59.891 L 122.555 59.49 L 124.15 59.49 Z M 115.908 61.605 L 112.97 61.605 L 113.046 61.204 L 115.983 61.204 Z M 119.51 61.605 L 116.267 61.605 L 116.343 61.204 L 119.587 61.204 Z M 121.823 61.605 L 119.755 61.605 L 119.83 61.204 L 121.898 61.204 Z M 123.753 61.605 L 122.157 61.605 L 122.233 61.204 L 123.828 61.204 Z M 117.976 58.954 L 113.469 58.954 L 113.544 58.553 L 118.051 58.553 Z M 121.002 58.954 L 118.405 58.954 L 118.48 58.553 L 121.078 58.553 Z M 124.254 58.954 L 121.369 58.954 L 121.444 58.553 L 124.329 58.553 Z M 117.633 60.777 L 113.126 60.777 L 113.202 60.375 L 117.708 60.375 Z M 120.66 60.777 L 118.062 60.777 L 118.137 60.375 L 120.735 60.375 Z M 123.911 60.777 L 121.026 60.777 L 121.102 60.375 L 123.986 60.375 Z M 115.585 63.319 L 112.648 63.319 L 112.724 62.917 L 115.661 62.917 Z M 119.188 63.319 L 115.945 63.319 L 116.02 62.917 L 119.264 62.917 Z M 121.5 63.319 L 119.432 63.319 L 119.508 62.917 L 121.576 62.917 Z M 123.43 63.319 L 121.835 63.319 L 121.91 62.917 L 123.506 62.917 Z M 117.311 62.49 L 112.804 62.49 L 112.879 62.089 L 117.386 62.089 Z M 120.337 62.49 L 117.74 62.49 L 117.815 62.089 L 120.413 62.089 Z M 123.589 62.49 L 120.703 62.49 L 120.779 62.089 L 123.664 62.089 Z M 115.283 64.926 L 112.346 64.926 L 112.421 64.525 L 115.359 64.525 Z M 118.886 64.926 L 115.643 64.926 L 115.719 64.525 L 118.962 64.525 Z M 121.198 64.926 L 119.13 64.926 L 119.206 64.525 L 121.273 64.525 Z M 123.128 64.926 L 121.533 64.926 L 121.608 64.525 L 123.204 64.525 Z M 117.008 64.097 L 112.502 64.097 L 112.577 63.696 L 117.083 63.696 Z M 120.035 64.097 L 117.437 64.097 L 117.513 63.696 L 120.11 63.696 Z M 123.286 64.097 L 120.401 64.097 L 120.477 63.696 L 123.362 63.696 Z M 108.599 59.078 L 107.161 59.078 L 107.198 58.881 L 108.636 58.881 Z M 110.363 59.078 L 108.775 59.078 L 108.812 58.881 L 110.399 58.881 Z M 108.441 59.917 L 107.003 59.917 L 107.041 59.72 L 108.478 59.72 Z M 110.205 59.917 L 108.617 59.917 L 108.654 59.72 L 110.241 59.72 Z M 109.453 58.619 L 107.247 58.619 L 107.285 58.422 L 109.49 58.422 Z M 110.934 58.619 L 109.663 58.619 L 109.7 58.422 L 110.972 58.422 Z M 109.285 59.511 L 107.08 59.511 L 107.117 59.314 L 109.322 59.314 Z M 110.767 59.511 L 109.495 59.511 L 109.532 59.314 L 110.804 59.314 Z M 108.115 62.078 L 106.677 62.078 L 106.715 61.881 L 108.152 61.881 Z M 109.879 62.078 L 108.291 62.078 L 108.329 61.881 L 109.916 61.881 Z M 107.957 62.917 L 106.52 62.917 L 106.557 62.72 L 107.995 62.72 Z M 109.721 62.917 L 108.133 62.917 L 108.171 62.72 L 109.758 62.72 Z M 108.97 61.619 L 106.764 61.619 L 106.8 61.422 L 109.007 61.422 Z M 110.451 61.619 L 109.18 61.619 L 109.217 61.422 L 110.488 61.422 Z M 108.802 62.511 L 106.596 62.511 L 106.633 62.314 L 108.839 62.314 Z M 110.283 62.511 L 109.012 62.511 L 109.049 62.314 L 110.32 62.314 Z" fill="rgb(189,209,249)"></path>
      <path d="M 133.764 105.693 C 133.713 106.38 132.744 106.387 131.641 106.26 C 130.538 106.133 130.832 106.411 129.29 106.432 C 127.748 106.453 127.216 105.944 127.141 105.724 C 127.073 105.529 127.821 105.364 128.612 105.172 L 128.913 105.097 C 129.809 104.87 130.403 104.2 131.169 103.616 C 131.895 103.061 132.832 101.057 132.832 101.057 L 134.94 100.962 C 134.94 100.962 134.056 102.759 133.72 103.533 C 133.523 103.989 133.607 104.552 133.692 104.978 C 133.748 105.212 133.772 105.453 133.764 105.693 Z" fill="rgb(255,178,125)"></path>
      <path d="M 131.641 106.26 C 130.539 106.132 130.832 106.411 129.29 106.432 C 127.748 106.453 127.216 105.944 127.141 105.724 C 127.073 105.529 127.821 105.364 128.612 105.172 L 128.622 105.186 C 129.325 105.523 130.107 105.664 130.885 105.593 C 131.921 105.49 132.977 105.058 133.691 104.982 C 133.747 105.216 133.771 105.457 133.764 105.697 C 133.713 106.38 132.744 106.386 131.641 106.26 Z" fill="rgb(35,56,98)"></path>
      <path d="M 148.317 105.836 C 148.267 106.522 147.297 106.531 146.195 106.404 C 145.092 106.277 145.386 106.556 143.844 106.579 C 142.301 106.602 141.77 106.094 141.695 105.874 C 141.627 105.678 142.371 105.513 143.165 105.319 C 143.265 105.295 143.365 105.27 143.466 105.244 C 144.361 105.016 144.954 104.346 145.72 103.761 C 146.445 103.206 145.72 99.923 145.72 99.923 L 148.037 99.697 C 148.037 99.697 147.927 102.462 147.928 103.719 C 147.928 104.214 148.157 104.692 148.243 105.121 C 148.299 105.355 148.324 105.595 148.317 105.836 Z" fill="rgb(255,178,125)"></path>
      <path d="M 146.193 106.404 C 145.092 106.278 145.385 106.556 143.842 106.579 C 142.3 106.602 141.768 106.094 141.693 105.874 C 141.625 105.678 142.369 105.513 143.164 105.319 L 143.173 105.334 C 143.878 105.669 144.66 105.808 145.437 105.736 C 146.472 105.631 147.527 105.199 148.242 105.121 C 148.298 105.355 148.323 105.595 148.316 105.836 C 148.266 106.522 147.297 106.531 146.193 106.404 Z" fill="rgb(35,56,98)"></path>
      <path d="M 141.553 49.093 C 141.153 47.455 141.731 46.692 142.254 46.286 C 142.501 45.683 142.783 45.248 143.07 45.084 C 143.596 44.785 144.226 44.753 144.669 44.778 C 144.555 44.662 144.329 44.619 144.329 44.619 C 144.601 44.578 145.213 44.849 145.213 44.849 C 149.021 43.385 149.619 48.982 149.539 50.28 C 149.459 51.579 149.471 53.113 151.451 54.138 C 155.231 56.093 150.195 63.46 150.195 63.46 C 150.291 62.409 145.434 56.863 142.9 55.202 C 142.283 54.296 142.064 52.694 142.048 52.568 C 142.154 53.837 142.371 54.55 142.566 54.952 C 141.418 53.892 141.245 51.344 141.553 49.093 Z" fill="rgb(169,69,61)"></path>
      <path d="M 143.057 55.287 C 143.044 55.292 144.281 55.933 145.21 55.679 C 146.084 55.442 146.656 54.309 146.644 54.307 C 146.273 54.233 146.168 53.725 146.175 51.541 L 146.008 51.575 L 143.192 52.131 C 143.192 52.131 143.256 53.013 143.26 53.849 C 143.26 54.548 143.217 55.212 143.057 55.287 Z" fill="rgb(255,178,125)"></path>
      <path d="M 143.192 52.131 C 143.192 52.131 143.256 53.013 143.26 53.849 C 144.835 53.805 145.668 52.37 146.01 51.575 Z" fill="rgb(237,151,93)"></path>
      <path d="M 131.736 102.171 C 131.671 102.375 131.705 102.598 131.828 102.774 C 131.95 102.95 132.148 103.059 132.363 103.07 L 133.462 103.121 L 134.626 103.157 C 134.917 103.165 135.196 103.038 135.379 102.813 C 136.308 101.675 139.168 97.883 140.902 92.374 C 140.951 92.219 141.002 92.063 141.057 91.905 C 142.203 88.57 144.577 84.384 145.829 80.596 C 146.028 79.992 146.207 79.424 146.367 78.886 C 146.418 78.714 146.469 78.547 146.516 78.378 C 147.438 75.179 147.706 73.082 147.952 70.835 L 138.915 70.907 C 138.915 70.907 137.013 85.669 131.736 102.171 Z" fill="rgb(42,78,150)"></path>
      <path d="M 140.18 65.723 C 140.203 70.016 139.549 71.858 139.549 71.858 C 139.549 71.858 143.419 73.82 148.017 72.376 C 148.071 72.359 151.306 71.444 151.306 71.444 C 151.23 71.27 150.59 68.398 150.516 68.238 C 149.544 66.157 149.28 65.283 149.165 64.64 C 148.951 63.446 148.947 62.209 149.053 61.042 C 149.235 59.126 149.609 57.234 150.168 55.393 C 148.915 55.108 147.742 54.609 146.438 54.12 C 146.138 54.493 145.221 54.883 144.425 54.867 C 143.509 54.846 143.213 54.455 143.26 54.028 C 142.284 54.571 141.505 55.082 141.505 55.082 C 140.675 56.521 138.993 57.918 138.871 60.125 C 138.841 60.671 140.18 65.603 140.18 65.723 Z" fill="rgb(255,255,255)"></path>
      <path d="M 147.952 66.201 C 148.347 66.76 149.104 70.152 150.988 70.579 C 150.017 68.161 149.28 67.1 149.165 66.357 C 148.951 64.969 148.947 63.533 149.053 62.179 C 148.422 61.076 147.952 60.319 147.952 60.319 C 147.902 60.141 146.949 57.195 146.644 59.828 C 146.339 62.461 147.51 65.577 147.952 66.201 Z" fill="rgb(95,154,168)"></path>
      <path d="M 142.666 52.92 C 142.666 52.92 146.393 52.981 146.396 50.663 C 146.399 48.346 146.881 46.793 144.501 46.658 C 142.121 46.522 141.658 47.405 141.469 48.179 C 141.28 48.952 141.696 52.844 142.666 52.92 Z" fill="rgb(255,178,125)"></path>
      <path d="M 142.804 46.597 C 142.804 46.597 143.824 49.317 145.388 49.72 C 146.952 50.124 147.632 49.703 147.632 49.703 C 147.632 49.703 146.431 48.753 146.182 47.087 C 146.186 47.086 143.574 45.303 142.804 46.597 Z" fill="rgb(169,69,61)"></path>
      <path d="M 143.057 46.819 C 143.057 46.819 142.295 47.426 142.109 48.016 C 141.923 48.607 141.837 49.822 141.485 49.781 C 141.485 49.781 140.715 47.933 141.58 46.887 C 142.496 45.777 143.057 46.819 143.057 46.819 Z" fill="rgb(169,69,61)"></path>
      <path d="M 136.8 68.703 L 135.04 74.062 L 136.044 74.463 L 138.955 69.729 Z" fill="rgb(255,178,125)"></path>
      <path d="M 141.547 54.77 C 141.547 54.77 139.471 55.592 138.871 56.875 C 138.27 58.157 137.359 66.758 136.998 67.642 C 136.636 68.525 136.363 69.224 136.363 69.224 C 136.363 69.224 137.409 70.107 138.462 70.169 C 139.515 70.232 141.547 54.77 141.547 54.77 Z" fill="rgb(249,151,70)"></path>
      <path d="M 143.26 54.031 C 143.26 54.031 141.103 59.35 141.04 60.427 C 140.977 61.504 140.786 78.031 140.786 78.031 C 140.786 78.031 140.913 78.791 139.454 78.474 C 137.995 78.157 137.614 77.841 137.614 77.841 C 137.614 77.841 139.01 67.646 138.63 64.1 C 138.25 60.553 141.547 54.77 141.547 54.77 Z" fill="rgb(249,151,70)"></path>
      <path d="M 133.462 103.121 L 134.726 103.159 C 134.951 103.166 135.168 103.069 135.312 102.895 C 136.161 101.869 139.12 98.024 140.902 92.372 C 140.951 92.217 141.002 92.061 141.057 91.903 C 142.203 88.568 144.577 84.382 145.829 80.594 C 146.028 79.99 146.207 79.422 146.367 78.884 C 146.418 78.712 146.469 78.545 146.516 78.376 L 145.189 77.37 C 145.189 77.37 141.194 83.829 139.957 89.908 C 138.879 95.187 134.576 101.541 133.462 103.121 Z" fill="rgb(30,61,112)"></path>
      <path d="M 145.047 90.474 C 145.025 93.27 145.157 99.504 145.499 102.55 C 145.53 102.828 145.766 103.039 146.047 103.039 L 146.99 103.039 C 147.387 103.039 147.685 103.039 147.882 103.033 C 148.053 103.03 148.199 102.909 148.232 102.741 C 149.17 97.978 149.841 94.02 150.332 90.6 C 150.74 87.738 151.109 85.284 151.389 83.172 C 151.672 81.046 151.869 79.266 151.939 77.762 C 151.95 77.525 151.958 77.295 151.963 77.071 C 151.967 76.848 151.968 76.628 151.963 76.416 L 144.155 75.656 C 144.257 80.835 145.06 88.756 145.047 90.474 Z" fill="rgb(42,78,150)"></path>
      <path d="M 146.99 103.039 C 147.347 103.039 147.623 103.039 147.818 103.034 C 148.027 103.031 148.204 102.883 148.244 102.679 C 149.175 97.944 149.843 94.005 150.332 90.6 C 150.74 87.738 151.109 85.284 151.389 83.172 C 151.672 81.046 151.869 79.266 151.939 77.762 L 149.074 79.445 C 149.074 79.445 150.902 80.088 150.205 84.965 C 149.507 89.841 147.961 102.349 146.99 103.039 Z" fill="rgb(30,61,112)"></path>
      <path d="M 146.621 77.714 C 146.621 77.714 147.171 79.698 149.074 79.445 C 150.977 79.192 153.682 78.052 153.682 78.052 C 153.682 78.052 152.866 75.487 151.859 72.116 C 150.635 68.037 149.119 62.777 148.405 59.459 C 148.204 58.53 148.065 57.754 148.016 57.197 L 146.438 54.142 C 146.438 54.142 144.084 59.416 143.957 60.746 C 143.83 62.076 146.621 77.714 146.621 77.714 Z" fill="rgb(249,151,70)"></path>
      <path d="M 148.521 60.545 L 146.438 54.14 C 146.443 54.14 149.069 54.92 150.39 55.586 C 150.39 55.586 151.216 56.648 151.727 59.1 C 151.727 59.1 152.266 64.986 151.061 67.139 C 151.061 67.139 147.253 67.899 141.166 65.809 L 141.166 64.417 C 141.166 64.417 147.827 64.764 149.191 64.923 Z" fill="rgb(255,178,125)"></path>
      <path d="M 146.705 63.53 C 146.79 65.683 147.298 69.862 151.822 72.099 C 151.834 72.105 151.846 72.112 151.859 72.116 C 150.635 68.037 149.119 62.777 148.405 59.459 C 147.574 60.699 146.659 62.344 146.705 63.53 Z" fill="rgb(237,125,43)"></path>
      <path d="M 146.438 54.14 C 146.438 54.14 150.3 54.411 151.23 56.48 C 152.161 58.549 152.454 65.43 151.272 67.455 C 151.272 67.455 149.64 67.919 146.76 67.381 L 146.653 67.361 C 146.653 67.361 145.733 65.112 146.558 64.67 C 146.558 64.67 148.989 64.796 148.734 63.994 C 148.479 63.192 146.438 54.14 146.438 54.14 Z" fill="rgb(249,151,70)"></path>
      <path d="M 136.756 65.277 L 136.87 65.642 L 143.207 63.673 C 143.258 63.61 143.274 63.526 143.25 63.449 C 143.234 63.373 143.171 63.316 143.094 63.308 Z M 136.296 65.622 L 136.754 65.277 L 136.868 65.642 Z" fill="rgb(169,69,61)"></path>
      <path d="M 135.29 73.915 C 135.29 73.915 133.682 74.802 133.47 75.476 C 133.259 76.151 133.402 77.568 133.659 77.546 C 133.916 77.525 134.296 76.026 134.507 75.917 C 134.719 75.808 135.015 75.495 135.015 75.727 C 135.015 75.959 134.803 76.381 134.909 76.445 C 135.015 76.508 135.353 75.854 135.589 75.727 C 135.825 75.6 135.92 74.556 136.146 74.275 C 136.371 73.995 135.29 73.915 135.29 73.915 Z M 141.166 64.417 C 141.166 64.417 139.729 63.534 139.126 63.67 C 138.524 63.806 136.986 64.917 137.725 65.158 C 138.465 65.399 139.064 65.146 139.348 65.321 C 139.632 65.496 139.842 65.815 141.167 65.81 C 142.492 65.806 141.166 64.417 141.166 64.417 Z" fill="rgb(255,178,125)"></path>
      <g transform="translate(64.317 73.869)">
        <path d="M 7.217 32.363 L 7.193 32.363 C 7.126 32.363 7.062 32.336 7.015 32.288 C 6.968 32.241 6.943 32.176 6.945 32.109 L 7.322 15.774 L 8.434 15.644 L 7.486 32.11 C 7.477 32.251 7.36 32.362 7.217 32.363 Z M 0.737 32.363 L 0.713 32.363 C 0.646 32.363 0.582 32.336 0.535 32.288 C 0.488 32.241 0.463 32.176 0.464 32.109 L 0.842 15.774 L 1.954 15.644 L 1.006 32.11 C 0.997 32.251 0.879 32.362 0.737 32.363 Z M 18.618 32.363 L 18.642 32.363 C 18.709 32.363 18.773 32.336 18.82 32.288 C 18.867 32.241 18.893 32.176 18.891 32.109 L 18.513 15.774 L 17.402 15.644 L 18.35 32.11 C 18.359 32.251 18.476 32.362 18.618 32.363 Z M 0 14.761 L 0 3.566 C 0 1.597 1.599 0 3.572 0 L 11.65 0 C 13.623 0 15.223 1.597 15.223 3.566 L 15.223 15.188 Z" fill="rgb(119,164,229)"></path>
        <path d="M 0 14.761 L 16.67 14.761 L 16.67 16.526 L 1.073 16.526 C 0.481 16.526 0.001 16.047 0.001 15.455 L 0.001 14.759 Z" fill="rgb(119,164,229)"></path>
        <path d="M 6.739 16.528 C 6.301 16.528 5.946 16.528 5.946 16.528 L 5.946 14.761 C 5.946 14.761 6.301 14.761 6.739 14.761 L 18.539 14.761 C 18.977 14.761 19.332 14.761 19.332 14.761 L 19.332 16.528 C 19.332 16.528 18.977 16.528 18.539 16.528 Z" fill="rgb(119,164,229)"></path>
      </g>
      <path d="M 91.684 99.719 C 91.797 100.282 92.6 100.188 93.498 99.969 C 94.395 99.75 94.182 100.01 95.459 99.869 C 96.736 99.728 97.123 99.253 97.159 99.063 C 97.194 98.895 96.562 98.835 95.886 98.758 C 95.8 98.748 95.715 98.737 95.629 98.727 C 94.865 98.631 94.305 98.139 93.611 97.735 C 92.953 97.351 91.972 95.791 91.972 95.791 L 90.22 95.927 C 90.22 95.927 91.14 97.32 91.495 97.927 C 91.704 98.283 91.693 98.754 91.668 99.118 C 91.646 99.318 91.652 99.52 91.684 99.719 Z" fill="rgb(255,178,125)"></path>
      <path d="M 93.498 99.969 C 94.395 99.75 94.182 100.01 95.459 99.869 C 96.736 99.728 97.123 99.253 97.159 99.063 C 97.194 98.895 96.562 98.835 95.886 98.758 L 95.879 98.771 C 95.332 99.121 94.7 99.317 94.05 99.338 C 93.183 99.359 92.266 99.111 91.67 99.121 C 91.648 99.32 91.652 99.521 91.683 99.719 C 91.797 100.282 92.6 100.188 93.498 99.969 Z" fill="rgb(35,56,98)"></path>
      <path d="M 76.63 102.236 C 76.282 102.692 76.884 103.232 77.642 103.759 C 78.401 104.286 78.064 104.302 79.015 105.161 C 79.965 106.021 80.579 105.999 80.747 105.904 C 80.897 105.818 80.524 105.306 80.135 104.749 C 80.086 104.681 80.037 104.608 79.989 104.538 C 79.555 103.901 79.555 103.157 79.399 102.37 C 79.252 101.623 80.471 98.883 80.471 98.883 L 78.512 98.637 C 78.512 98.637 78.256 100.292 78.036 100.959 C 77.906 101.351 77.362 101.61 77.072 101.831 C 76.907 101.946 76.759 102.082 76.63 102.236 Z" fill="rgb(255,178,125)"></path>
      <path d="M 77.642 103.759 C 78.401 104.286 78.064 104.302 79.015 105.161 C 79.965 106.021 80.579 105.999 80.747 105.904 C 80.897 105.818 80.524 105.306 80.135 104.749 L 80.121 104.753 C 79.496 104.575 78.931 104.232 78.485 103.759 C 77.896 103.124 77.474 102.273 77.072 101.831 C 76.907 101.947 76.759 102.084 76.631 102.239 C 76.282 102.692 76.884 103.232 77.642 103.759 Z" fill="rgb(35,56,98)"></path>
      <path d="M 84.633 88.225 L 82.843 93.033 L 80.507 99.311 C 80.09 99.342 79.67 99.304 79.266 99.198 C 78.707 99.036 78.065 98.614 78.065 98.614 C 78.065 98.614 78.714 91.873 79.925 88.004 C 80.235 87.011 80.582 86.207 80.966 85.755 C 82.842 83.541 84.633 88.225 84.633 88.225 Z" fill="rgb(22,53,96)"></path>
      <path d="M 82.813 80.587 C 81.641 80.209 78.108 80.434 74.749 81.091 L 74.234 80.192 L 66.978 79.626 C 66.978 79.626 64.584 84.932 65.896 88.308 C 66.088 88.804 66.471 89.122 67.124 89.132 L 72.951 89.132 C 76.56 89.132 80.588 86.656 81.111 86.553 C 81.964 86.382 82.305 88.086 83.158 89.874 C 84.011 91.662 91.176 97.793 91.176 97.793 C 91.176 97.793 92.278 97.805 92.732 97.634 C 93.221 97.451 93.4 97.212 93.4 97.212 C 93.4 97.212 85.458 81.44 82.813 80.587 Z" fill="rgb(42,78,150)"></path>
      <path d="M 71.693 58.266 C 70.673 58.023 69.285 58.309 69.055 58.334 C 66.299 58.655 65.683 62.928 65.888 64.124 C 66.266 66.327 65.208 66.947 63.941 68.709 C 61.406 72.24 63.157 75.151 65.221 75.872 C 66.46 76.304 68.146 75.125 68.146 75.125 C 68.177 75.136 72.527 70.989 74.679 68.976 C 78.298 67.491 74.296 58.885 71.693 58.266 Z" fill="rgb(35,56,98)"></path>
      <path d="M 72.283 68.342 C 72.296 68.346 71.161 69.089 70.236 68.931 C 69.366 68.785 68.445 67.651 68.457 67.648 C 68.809 67.541 69.119 67.131 68.9 65.017 L 69.065 65.033 L 71.846 65.299 C 71.846 65.299 71.87 66.162 71.948 66.969 C 72.016 67.647 72.12 68.285 72.283 68.342 Z" fill="rgb(255,178,125)"></path>
      <path d="M 71.846 65.299 C 71.846 65.299 71.87 66.162 71.948 66.969 C 70.419 67.079 69.473 65.77 69.065 65.033 Z" fill="rgb(237,151,93)"></path>
      <path d="M 72.431 66.012 C 72.431 66.012 68.827 66.433 68.601 64.188 C 68.374 61.944 67.755 60.49 70.044 60.124 C 72.334 59.757 72.87 60.572 73.128 61.302 C 73.387 62.033 73.363 65.845 72.431 66.012 Z" fill="rgb(255,178,125)"></path>
      <path d="M 72.7 60.151 C 72.7 60.151 70.96 62.638 69.483 63.179 C 68.006 63.72 67.306 63.383 67.306 63.383 C 67.774 62.687 68.093 61.904 68.244 61.08 C 68.311 60.687 68.586 60.361 68.962 60.229 C 70.022 59.855 72.065 59.29 72.7 60.151 Z" fill="rgb(35,56,98)"></path>
      <path d="M 71.262 60.333 C 71.262 60.333 72.192 60.863 72.563 61.338 C 72.922 61.795 73.305 63.011 73.249 63.546 C 73.249 63.546 73.835 60.993 72.897 60.065 C 71.902 59.08 71.262 60.333 71.262 60.333 Z" fill="rgb(35,56,98)"></path>
      <path d="M 75.053 74.296 C 74.945 81.561 75.024 80.044 74.227 80.734 C 74.035 80.9 73.496 80.999 72.786 81.046 C 70.555 81.194 66.632 80.826 66.482 80.415 C 65.967 78.989 66.331 78.547 65.901 76.366 C 65.857 76.134 65.801 75.883 65.736 75.609 C 65.379 74.111 65.03 73.602 66.3 71.196 C 67.453 69.016 68.696 67.274 68.804 67.338 C 71.844 69.14 72.042 67.597 72.042 67.597 C 72.042 67.597 75.106 70.752 75.053 74.296 Z" fill="rgb(255,255,255)"></path>
      <path d="M 82.843 93.033 L 80.454 99.572 C 80.454 99.572 79.595 99.851 78.97 99.761 C 78.605 99.715 78.262 99.562 77.984 99.321 C 77.984 99.321 78.714 91.873 79.925 88.004 Z" fill="rgb(42,78,150)"></path>
      <path d="M 72.042 67.596 C 72.042 67.596 75.17 68.125 75.536 69.47 C 75.903 70.815 78.59 78.223 78.59 78.223 C 78.59 78.223 76.475 79.003 75.74 78.27 C 75.005 77.536 73.185 71.466 73.185 71.466 Z" fill="rgb(255,255,255)"></path>
      <path d="M 72.786 81.046 C 70.555 81.194 66.632 80.826 66.482 80.415 C 65.967 78.989 66.331 78.547 65.901 76.366 L 66.949 73.99 C 66.949 73.99 66.8 76.713 67.795 77.599 C 68.791 78.485 71.871 79.31 72.355 80.05 C 72.588 80.403 72.742 80.759 72.786 81.046 Z" fill="rgb(223,235,253)"></path>
      <path d="M 72.968 79.495 C 72.968 79.495 73.633 80.067 73.822 80.114 C 73.919 80.142 74.022 80.142 74.118 80.114 L 73.634 79.547 Z M 72.705 78.822 L 74.388 79.255 C 74.388 79.255 74.344 79.375 74.154 79.404 C 73.963 79.433 73.452 79.356 73.452 79.356 Z" fill="rgb(255,178,125)"></path>
      <path d="M 69.851 79.747 C 69.851 79.747 72.254 78.68 72.707 78.821 C 73.161 78.962 74.315 79.573 74.496 79.83 C 74.678 80.088 73.549 79.799 73.197 79.776 C 72.968 79.762 72.439 80.075 72.177 80.226 C 71.07 80.86 70.301 80.804 70.301 80.804 Z" fill="rgb(255,178,125)"></path>
      <path d="M 68.804 67.337 C 68.804 67.337 65.404 67.974 64.775 68.915 C 63.402 70.966 60.477 79.47 62.114 80.61 C 63.959 81.894 70.509 80.949 70.509 80.949 C 70.509 80.949 70.727 79.931 70.424 79.44 C 70.12 78.949 65.192 78.15 64.965 77.926 C 64.738 77.702 67.209 74.415 66.949 73.785 C 66.104 71.769 68.804 67.337 68.804 67.337 Z" fill="rgb(255,255,255)"></path>
      <path d="M 82.241 79.384 C 82.241 79.384 84.621 80.026 84.864 80.394 C 85.106 80.762 85.587 81.888 85.567 82.184 C 85.546 82.481 84.897 81.602 84.654 81.378 C 84.496 81.233 83.926 81.148 83.645 81.102 C 82.939 80.987 82.597 80.665 82.333 80.504 C 82.212 80.438 82.076 80.407 81.939 80.416 Z" fill="rgb(255,178,125)"></path>
      <path d="M 84.656 81.04 C 84.656 81.04 84.8 81.848 84.911 81.991 C 84.964 82.069 85.038 82.131 85.125 82.169 L 85.108 81.471 Z M 84.864 80.394 L 85.831 81.702 C 85.831 81.702 85.729 81.764 85.572 81.673 C 85.416 81.582 85.091 81.224 85.091 81.224 Z M 82.333 80.504 C 82.333 80.504 82.553 81.038 82.993 81.23 C 83.433 81.421 83.757 81.709 83.827 81.606 C 83.898 81.503 83.494 80.957 83.494 80.957 Z" fill="rgb(255,178,125)"></path>
      <path d="M 77.958 76.47 L 82.961 79.628 C 82.961 79.628 82.435 80.33 82.26 80.394 C 81.334 80.733 77.168 80.408 75.74 78.27 Z" fill="rgb(255,255,255)"></path>
      <path d="M 75.976 79.902 C 76.271 79.902 79.207 79.699 79.207 79.699 C 79.207 79.699 79.122 80.218 79.304 80.496 L 76.442 81.04 L 75.855 80.867 Z" fill="rgb(249,221,191)"></path>
      <path d="M 71.078 80.374 L 75.974 79.902 C 75.974 79.902 75.802 80.807 76.441 81.044 L 71.042 81.437 C 71.042 81.437 70.608 80.826 71.078 80.374 Z" fill="rgb(249,151,70)"></path>
      <path d="M 79.199 79.764 L 75.889 80.018 C 75.889 80.018 75.914 79.904 75.976 79.902 C 76.037 79.901 79.264 79.667 79.264 79.667 L 79.252 79.757 Z M 76.443 81.044 L 79.357 80.49 L 79.331 80.415 L 76.224 81.009 Z" fill="rgb(249,151,70)"></path>
      <path d="M 42.521 106.207 L 42.494 106.207 C 42.42 106.207 42.348 106.176 42.296 106.123 C 42.245 106.069 42.216 105.997 42.218 105.923 L 42.639 87.683 L 43.873 87.538 L 42.82 105.924 C 42.812 106.083 42.68 106.207 42.521 106.207 Z M 35.328 106.207 L 35.301 106.207 C 35.226 106.207 35.155 106.176 35.103 106.123 C 35.051 106.069 35.023 105.997 35.025 105.923 L 35.444 87.683 L 36.678 87.538 L 35.625 105.924 C 35.617 106.082 35.486 106.206 35.328 106.207 Z M 55.177 106.207 L 55.204 106.207 C 55.278 106.207 55.35 106.176 55.402 106.123 C 55.454 106.069 55.482 105.997 55.481 105.923 L 55.061 87.683 L 53.827 87.538 L 54.879 105.924 C 54.888 106.082 55.018 106.206 55.177 106.207 Z M 34.509 86.552 L 34.509 74.053 C 34.503 71.86 36.278 70.077 38.475 70.07 L 47.442 70.07 C 48.498 70.072 49.509 70.493 50.253 71.24 C 50.998 71.987 51.414 72.999 51.411 74.053 L 51.411 87.029 Z" fill="rgb(119,164,229)"></path>
      <path d="M 34.509 86.552 L 53.015 86.552 L 53.015 88.525 L 35.702 88.525 C 35.043 88.525 34.508 87.991 34.508 87.333 L 34.508 86.552 Z" fill="rgb(119,164,229)"></path>
      <path d="M 41.993 88.525 C 41.505 88.525 41.11 88.525 41.11 88.525 L 41.11 86.552 C 41.11 86.552 41.505 86.552 41.993 86.552 L 55.087 86.552 C 55.574 86.552 55.969 86.552 55.969 86.552 L 55.969 88.525 C 55.969 88.525 55.574 88.525 55.087 88.525 Z" fill="rgb(119,164,229)"></path>
      <path d="M 48.046 65.454 C 48.046 65.454 47.298 66.092 47.132 67.745 C 47.009 69 47.88 78.743 48.537 79.519 C 50.384 81.699 52.698 80.778 53.605 81.109 L 54.46 80.342 C 54.46 80.342 51.453 78.126 51.224 77.403 C 50.343 74.62 50.889 66.505 48.046 65.454 Z" fill="rgb(249,221,191)"></path>
      <path d="M 47.506 57.503 C 47.506 57.503 47.557 55.715 45.194 55.365 C 42.831 55.015 42.18 55.569 41.779 56.167 C 41.378 56.765 40.623 59.222 40.701 60.2 C 40.778 61.177 43.468 62.385 43.425 62.954 C 43.381 63.524 47.506 57.503 47.506 57.503 Z" fill="rgb(22,53,96)"></path>
      <path d="M 58.457 104.664 C 58.381 105.269 59.205 105.447 60.165 105.531 C 61.126 105.615 60.828 105.802 62.137 106.095 C 63.447 106.388 63.988 106.039 64.089 105.861 C 64.18 105.704 63.576 105.43 62.933 105.123 L 62.69 105.005 C 61.967 104.65 61.578 103.965 61.028 103.323 C 60.505 102.712 60.057 100.811 60.057 100.811 L 58.28 100.359 C 58.28 100.359 58.722 102.072 58.871 102.804 C 58.959 103.233 58.79 103.703 58.643 104.06 C 58.555 104.253 58.492 104.456 58.457 104.664 Z" fill="rgb(255,178,125)"></path>
      <path d="M 60.165 105.531 C 61.126 105.614 60.828 105.802 62.137 106.095 C 63.447 106.388 63.988 106.039 64.089 105.861 C 64.18 105.704 63.576 105.43 62.933 105.123 L 62.922 105.134 C 62.265 105.301 61.574 105.284 60.926 105.085 C 60.062 104.813 59.238 104.252 58.643 104.059 C 58.555 104.252 58.492 104.455 58.457 104.664 C 58.381 105.269 59.206 105.447 60.165 105.531 Z" fill="rgb(35,56,98)"></path>
      <path d="M 45.155 80.044 C 45.155 80.044 57.034 81.274 58.992 83.089 C 60.951 84.905 60.601 101.819 60.601 101.819 C 60.297 102.135 60.071 102.127 59.59 102.091 C 59.128 102.055 58.185 101.658 58.185 101.658 C 58.185 101.658 55.64 93.351 55.608 91.425 C 55.577 89.498 55.174 86.239 54.366 86.046 C 53.558 85.853 43.941 86.929 42.887 83.897 C 41.833 80.866 43.583 78.369 43.583 78.369 Z" fill="rgb(237,125,43)"></path>
      <path d="M 39.604 83.091 C 40.117 83.43 41.032 83.962 42.571 84.017 C 45.323 84.117 48.76 83.789 49.433 83.152 C 49.608 82.987 49.694 82.715 49.719 82.368 C 49.793 81.315 49.289 79.58 48.949 78.145 C 48.73 77.212 48.58 76.407 48.703 75.994 C 49.076 74.741 50.236 72.187 50.335 71.348 C 50.433 70.509 49.432 66.011 48.044 65.454 C 46.657 64.897 41.302 65.454 41.302 65.454 C 39.211 65.878 39.126 70.33 39.817 74.12 C 39.835 74.218 39.854 74.314 39.872 74.41 C 40.626 78.259 38.174 82.134 39.604 83.091 Z" fill="rgb(249,221,191)"></path>
      <path d="M 46.522 66.273 C 46.484 66.517 45.814 66.913 44.383 66.536 C 43.012 66.176 42.847 65.73 42.847 65.435 C 42.847 65.087 43.444 64.617 43.436 62.473 L 43.6 62.505 L 46.365 63.052 C 46.365 63.052 46.302 63.92 46.301 64.739 C 46.299 65.426 46.583 65.866 46.522 66.273 Z" fill="rgb(255,178,125)"></path>
      <path d="M 46.365 63.052 C 46.365 63.052 46.302 63.92 46.301 64.739 C 44.753 64.695 43.935 63.286 43.6 62.505 Z" fill="rgb(237,151,93)"></path>
      <path d="M 46.882 63.827 C 46.882 63.827 43.221 63.887 43.219 61.611 C 43.216 59.334 42.743 57.809 45.079 57.673 C 47.416 57.537 47.872 58.407 48.057 59.166 C 48.243 59.926 47.834 63.749 46.882 63.827 Z" fill="rgb(255,178,125)"></path>
      <path d="M 46.746 57.618 C 46.746 57.618 45.744 60.287 44.206 60.684 C 42.668 61.081 42.001 60.667 42.001 60.667 C 42.001 60.667 43.181 59.731 43.429 58.098 C 43.425 58.098 45.991 56.349 46.746 57.618 Z" fill="rgb(22,53,96)"></path>
      <path d="M 46.498 57.835 C 46.498 57.835 47.246 58.431 47.429 59.011 C 47.612 59.591 47.693 60.784 48.041 60.744 C 48.041 60.744 48.796 58.928 47.947 57.901 C 47.049 56.812 46.498 57.835 46.498 57.835 Z" fill="rgb(22,53,96)"></path>
      <path d="M 49.536 105.164 C 49.527 105.775 50.366 105.855 51.329 105.828 C 52.292 105.801 52.018 106.024 53.351 106.162 C 54.684 106.301 55.183 105.891 55.264 105.705 C 55.336 105.539 54.706 105.337 54.033 105.104 C 53.948 105.076 53.864 105.045 53.779 105.015 C 53.021 104.744 52.555 104.11 51.94 103.536 C 51.353 102.993 52.647 100.36 52.647 100.36 L 50.951 99.522 C 50.951 99.522 50.63 101.401 50.216 103.045 C 50.109 103.47 49.76 104.169 49.653 104.538 C 49.587 104.741 49.547 104.951 49.536 105.164 Z" fill="rgb(255,178,125)"></path>
      <path d="M 39.678 82.638 C 40.19 82.978 41.034 83.962 42.571 84.017 C 45.109 83.44 47.999 82.769 49.719 82.368 C 49.793 81.315 49.289 79.58 48.949 78.145 C 46.945 78.756 43.963 76.674 42.96 75.851 C 41.906 74.987 41.94 72.108 41.94 72.108 L 39.819 74.12 C 39.838 74.218 39.856 74.314 39.874 74.41 C 40.626 78.259 38.248 81.682 39.678 82.638 Z" fill="rgb(242,204,170)"></path>
      <path d="M 51.329 105.825 C 52.292 105.798 52.018 106.02 53.351 106.159 C 54.684 106.297 55.183 105.887 55.264 105.702 C 55.336 105.536 54.706 105.333 54.033 105.101 L 54.024 105.113 C 53.39 105.355 52.702 105.417 52.035 105.294 C 51.147 105.123 50.267 104.661 49.655 104.538 C 49.588 104.739 49.549 104.949 49.537 105.161 C 49.527 105.77 50.366 105.852 51.329 105.825 Z" fill="rgb(35,56,98)"></path>
      <path d="M 42.59 80.763 C 45.606 80.678 54.614 81.395 56.345 82.698 C 58.475 84.301 52.39 101.64 52.39 101.64 C 52.39 101.64 51.683 101.708 51.459 101.684 C 50.493 101.575 50.099 101.281 50.099 101.281 C 50.099 101.281 50.123 91.075 50.834 89.123 C 51.491 87.319 51.893 86.679 51.07 86.574 C 50.248 86.468 39.975 87.774 39.117 84.678 C 38.448 82.26 39.437 80.021 39.437 80.021 C 39.437 80.021 39.808 80.843 42.59 80.763 Z" fill="rgb(249,151,70)"></path>
      <path d="M 41.304 65.453 C 41.304 65.453 39.209 65.631 39.046 67.286 C 38.922 68.542 38.011 77.446 38.667 78.217 C 40.513 80.397 46.671 80.858 47.576 81.19 L 47.825 80.159 C 47.825 80.159 41.251 76.853 41.352 76.101 C 41.453 75.349 43.313 65.156 41.304 65.453 Z" fill="rgb(249,221,191)"></path>
      <path d="M 42.922 56.266 C 42.922 56.266 43.072 55.315 41.747 55.066 C 40.422 54.816 40.394 57.629 40.258 58.306 C 40.122 58.983 40.47 59.389 40.975 59.43 C 41.481 59.472 42.922 56.266 42.922 56.266 Z" fill="rgb(22,53,96)"></path>
      <path d="M 47.899 80.111 C 47.899 80.111 49.771 79.583 50.217 79.704 C 50.663 79.826 52.189 80.838 51.976 81.112 C 51.762 81.387 50.415 80.948 49.795 81.031 C 49.176 81.114 48.697 81.419 48.251 81.353 C 47.94 81.301 47.635 81.22 47.339 81.112 Z" fill="rgb(255,178,125)"></path>
      <path d="M 47.899 80.111 C 47.899 80.111 48.815 79.642 49.075 79.374 C 49.091 79.358 49.113 79.351 49.135 79.353 C 49.157 79.356 49.177 79.368 49.189 79.387 C 49.257 79.497 49.325 79.71 49.002 79.921 C 48.54 80.227 47.899 80.111 47.899 80.111 Z M 54.46 80.342 C 54.46 80.342 56.403 80.448 56.784 80.71 C 57.166 80.971 58.28 82.421 57.991 82.611 C 57.701 82.8 56.567 81.949 55.955 81.827 C 55.342 81.705 54.79 81.839 54.39 81.632 C 54.114 81.481 53.851 81.306 53.606 81.108 Z" fill="rgb(255,178,125)"></path>
      <path d="M 41.114 106.366 L 33.21 106.366 C 32.829 105.903 32.969 104.193 33.027 103.636 C 33.038 103.523 33.047 103.458 33.047 103.458 C 33.047 103.458 35.746 101.302 36.117 102.953 C 36.128 103.004 36.142 103.055 36.157 103.105 C 36.624 104.649 38.72 105.35 39.929 105.546 C 40.715 105.673 41.007 106.081 41.114 106.366 Z" fill="rgb(27,48,81)"></path>
      <path d="M 19.546 80.723 C 19.831 80.723 33.085 83.207 35.278 85.917 C 36.373 87.27 36.536 102.903 36.536 102.903 C 36.536 102.903 35.181 104.58 32.252 103.606 C 32.252 103.606 30.106 92.911 30.265 89.667 C 30.309 88.77 21.209 89.537 19.543 89.107 C 17.878 88.676 13.808 85.059 14.705 83.296 C 15.602 81.534 19.546 80.723 19.546 80.723 Z" fill="rgb(35,56,98)"></path>
      <path d="M 29.143 79.989 C 29.143 79.989 29.99 80.723 30.861 80.926 C 31.357 81.044 31.838 81.178 32.124 81.309 C 32.911 81.67 34.404 83.278 34.265 83.44 C 33.82 83.953 32.027 82.617 31.68 82.711 C 31.334 82.806 32.244 83.582 31.884 83.793 C 31.697 83.903 31.344 83.233 31.013 83.138 C 30.565 83.011 30.268 82.336 30.134 82.29 C 29.874 82.2 28.784 81.225 28.784 81.225 Z" fill="rgb(255,178,125)"></path>
      <path d="M 44.611 106.366 L 36.703 106.366 C 36.323 105.903 36.463 104.193 36.52 103.636 C 36.533 103.523 36.541 103.458 36.541 103.458 C 36.541 103.458 39.24 101.302 39.61 102.953 C 39.622 103.004 39.636 103.055 39.651 103.105 C 40.118 104.649 42.213 105.35 43.423 105.546 C 44.21 105.673 44.5 106.081 44.611 106.366 Z" fill="rgb(30,60,104)"></path>
      <path d="M 23.451 80.723 C 23.737 80.723 36.992 83.207 39.184 85.917 C 40.279 87.27 40.442 102.903 40.442 102.903 C 40.442 102.903 39.087 104.58 36.158 103.606 C 36.158 103.606 34.012 92.911 34.171 89.667 C 34.214 88.77 25.115 89.537 23.449 89.107 C 21.782 88.676 17.714 85.059 18.61 83.296 C 19.506 81.534 23.451 80.723 23.451 80.723 Z" fill="rgb(43,71,139)"></path>
      <path d="M 22.622 64.643 C 21.67 64.564 20.669 64.31 19.805 64.032 C 18.724 63.681 17.854 63.17 18.415 62.184 C 18.932 61.276 19.769 59.247 19.712 57.567 L 21.722 59.184 L 23.087 60.28 C 23.069 60.876 23.017 61.471 22.932 62.062 C 22.905 62.269 22.873 62.492 22.836 62.731 C 22.805 62.924 22.894 63.116 23.06 63.219 L 23.091 63.239 C 23.77 63.664 23.421 64.708 22.622 64.643 Z" fill="rgb(255,178,125)"></path>
      <path d="M 23.087 60.015 C 23.087 60.015 23.155 60.251 23.037 61.118 C 21.82 60.92 20.682 59.951 20.682 59.951 C 21.302 59.781 21.527 59.113 21.989 59.175 Z" fill="rgb(237,151,93)"></path>
      <path d="M 24.213 60.211 C 24.213 60.211 19.532 60.987 19.092 58.069 C 18.652 55.15 17.752 53.285 20.724 52.666 C 23.695 52.047 24.444 53.074 24.828 54.012 C 25.211 54.95 25.42 59.934 24.213 60.211 Z" fill="rgb(255,178,125)"></path>
      <path d="M 25.516 52.72 C 25.72 53.423 25.176 54.281 24.275 54.56 C 22.935 54.979 23.231 56.621 22.628 56.597 C 22.025 56.574 21.781 55.654 21.243 56.39 C 20.783 57.018 21.625 57.762 21.567 58.107 C 21.468 58.698 20.54 59.907 19.704 59.847 C 18.867 59.786 17.304 55.82 17.617 54.592 C 17.929 53.365 19.181 52.072 20.365 51.893 C 21.55 51.714 23.194 52.226 23.574 52.226 C 23.955 52.226 25.407 52.343 25.516 52.72 Z" fill="rgb(43,71,139)"></path>
      <path d="M 26.677 79.848 C 26.599 80.522 26.456 80.98 26.233 81.129 C 25.536 81.596 24.61 82.176 23.577 82.751 C 19.915 84.787 14.901 86.756 13.881 83.311 C 12.683 79.264 13.473 71.666 14.645 66.946 C 15.325 64.226 17.192 61.373 18.453 61.378 C 20.608 61.382 23.706 61.95 24.957 65.03 C 25.441 66.224 26.152 70.359 26.516 74.147 C 26.736 76.401 26.828 78.534 26.677 79.848 Z" fill="rgb(255,255,255)"></path>
      <path d="M 18.239 61.401 L 18.727 60.304 C 18.727 60.304 23.053 60.744 23.787 63.224 C 23.787 63.226 20.443 61.455 18.239 61.401 Z M 26.677 79.848 C 26.599 80.522 26.456 80.98 26.233 81.129 C 25.536 81.596 24.61 82.176 23.577 82.751 C 22.499 82.097 20.287 80.536 19.769 78.697 C 19.092 76.291 19.565 73.333 19.565 73.333 Z" fill="rgb(223,235,253)"></path>
      <path d="M 19.117 65.103 C 19.117 65.103 19.492 75.44 20.081 77.483 C 21.085 80.968 30.242 82.21 30.242 82.21 C 30.242 82.21 30.782 81.599 30.541 80.585 C 30.541 80.585 25.066 76.278 24.906 75.457 C 24.745 74.637 26.099 69.079 24.553 67.059 C 23.007 65.038 20.156 63.287 19.117 65.103 Z" fill="rgb(255,255,255)"></path>
      <path d="M 7.637 106.268 L 7.606 106.268 C 7.492 106.27 7.382 106.224 7.303 106.14 C 7.224 106.057 7.184 105.945 7.193 105.831 L 8.841 89.428 L 10.276 89.555 L 7.911 106.047 C 7.888 106.179 7.771 106.273 7.637 106.268 Z M 16.104 106.268 L 16.074 106.268 C 15.96 106.27 15.849 106.224 15.771 106.141 C 15.692 106.058 15.652 105.945 15.66 105.831 L 17.305 89.429 L 18.741 89.556 L 16.378 106.047 C 16.355 106.179 16.238 106.273 16.104 106.268 Z M 32 106.268 L 32.03 106.268 C 32.145 106.27 32.255 106.224 32.333 106.14 C 32.412 106.057 32.452 105.945 32.443 105.831 L 30.799 89.428 L 29.364 89.555 L 31.726 106.047 C 31.749 106.179 31.866 106.273 32 106.268 Z M 8.101 87.105 L 6.537 73.405 C 6.333 71.431 6.994 69.498 9.848 69.348 L 14.868 69.043 C 17.844 68.921 19.187 71.393 19.561 73.296 L 22.541 88.355 Z" fill="rgb(119,164,229)"></path>
      <path d="M 31.221 89.667 L 8.941 89.667 C 8.49 89.667 8.125 89.303 8.125 88.853 L 8.125 87.039 L 31.221 87.039 C 31.672 87.039 32.037 87.404 32.037 87.854 L 32.037 88.858 C 32.035 89.306 31.67 89.667 31.221 89.667 Z" fill="rgb(119,164,229)"></path>
      <path d="M 21.914 89.667 L 8.759 89.667 C 8.41 89.667 8.127 89.385 8.127 89.037 L 8.127 87.042 L 21.914 87.042 C 22.263 87.042 22.546 87.324 22.546 87.673 L 22.546 89.036 C 22.546 89.203 22.48 89.364 22.361 89.483 C 22.243 89.601 22.082 89.667 21.914 89.667 Z" fill="rgb(119,164,229)"></path>
      <path d="M 1.387 106.972 C 1.232 106.972 1.106 106.972 1.106 106.972 L 1.106 106.159 C 1.106 106.159 1.232 106.159 1.387 106.159 L 199.72 106.159 C 199.875 106.159 200 106.159 200 106.159 L 200 106.972 C 200 106.972 199.875 106.972 199.72 106.972 Z" fill="rgb(46,53,82)"></path>
      <path d="M 35.695 45.49 C 35.339 45.49 35.051 45.49 35.051 45.49 L 35.051 36.772 C 35.051 36.772 35.339 36.772 35.695 36.772 L 43.408 36.772 C 43.763 36.772 44.052 36.772 44.052 36.772 L 44.052 45.49 C 44.052 45.49 43.763 45.49 43.408 45.49 Z" fill="rgb(119,164,229)"></path>
      <path d="M 36.029 45.112 C 35.704 45.112 35.441 45.112 35.441 45.112 L 35.441 37.149 C 35.441 37.149 35.704 37.149 36.029 37.149 L 43.074 37.149 C 43.399 37.149 43.662 37.149 43.662 37.149 L 43.662 45.112 C 43.662 45.112 43.399 45.112 43.074 45.112 Z" fill="rgb(223,235,253)"></path>
      <path d="M 39.365 37.945 C 39.365 37.842 39.448 37.759 39.551 37.759 C 39.654 37.759 39.738 37.842 39.738 37.945 C 39.738 38.048 39.654 38.131 39.551 38.131 C 39.448 38.131 39.365 38.048 39.365 37.945 Z" fill="rgb(119,164,229)"></path>
      <path d="M 40.871 38.208 C 40.92 38.119 41.034 38.086 41.124 38.136 C 41.214 38.186 41.246 38.299 41.196 38.389 C 41.147 38.479 41.033 38.511 40.943 38.462 C 40.853 38.412 40.821 38.298 40.871 38.208 Z M 42.159 39.23 C 42.245 39.175 42.36 39.2 42.416 39.286 C 42.472 39.372 42.447 39.487 42.36 39.543 C 42.274 39.599 42.159 39.574 42.103 39.487 C 42.047 39.401 42.072 39.286 42.159 39.23 Z M 42.797 40.813 C 42.9 40.813 42.983 40.897 42.983 40.999 C 42.982 41.102 42.899 41.185 42.796 41.185 C 42.693 41.185 42.61 41.101 42.61 40.999 C 42.61 40.949 42.63 40.902 42.665 40.867 C 42.7 40.832 42.748 40.813 42.797 40.813 Z" fill="rgb(119,164,229)"></path>
      <path d="M 42.152 42.781 C 42.152 42.678 42.236 42.595 42.339 42.595 C 42.442 42.595 42.525 42.678 42.525 42.781 C 42.525 42.884 42.442 42.967 42.339 42.967 C 42.236 42.967 42.152 42.884 42.152 42.781 Z" fill="rgb(119,164,229)"></path>
      <path d="M 41.3 43.821 C 41.353 43.874 41.369 43.954 41.34 44.024 C 41.311 44.093 41.243 44.139 41.168 44.139 C 41.093 44.139 41.025 44.093 40.996 44.024 C 40.967 43.954 40.983 43.874 41.036 43.821 C 41.071 43.786 41.119 43.767 41.168 43.767 C 41.217 43.767 41.265 43.786 41.3 43.821 Z" fill="rgb(119,164,229)"></path>
      <path d="M 39.365 44.425 C 39.365 44.323 39.448 44.239 39.551 44.239 C 39.654 44.239 39.738 44.323 39.738 44.425 C 39.738 44.528 39.654 44.611 39.551 44.611 C 39.448 44.611 39.365 44.528 39.365 44.425 Z" fill="rgb(119,164,229)"></path>
      <path d="M 38.227 38.208 C 38.177 38.119 38.064 38.087 37.974 38.137 C 37.884 38.187 37.852 38.3 37.902 38.39 C 37.952 38.479 38.065 38.512 38.155 38.462 C 38.198 38.438 38.23 38.398 38.244 38.35 C 38.258 38.302 38.252 38.251 38.227 38.208 Z M 36.939 39.23 C 36.852 39.175 36.737 39.2 36.681 39.286 C 36.625 39.372 36.65 39.487 36.737 39.543 C 36.823 39.599 36.939 39.574 36.994 39.487 C 37.05 39.401 37.025 39.286 36.939 39.23 Z M 36.3 40.813 C 36.197 40.813 36.114 40.896 36.114 40.999 C 36.114 41.102 36.197 41.185 36.3 41.185 C 36.403 41.185 36.486 41.102 36.486 40.999 C 36.486 40.896 36.403 40.813 36.3 40.813 Z" fill="rgb(119,164,229)"></path>
      <path d="M 36.571 42.781 C 36.571 42.678 36.655 42.595 36.758 42.595 C 36.861 42.595 36.944 42.678 36.944 42.781 C 36.944 42.884 36.861 42.967 36.758 42.967 C 36.655 42.967 36.571 42.884 36.571 42.781 Z" fill="rgb(119,164,229)"></path>
      <path d="M 37.797 43.821 C 37.724 43.894 37.724 44.012 37.797 44.084 C 37.87 44.157 37.988 44.157 38.06 44.084 C 38.133 44.012 38.133 43.894 38.061 43.821 C 37.988 43.749 37.87 43.749 37.797 43.821 Z M 39.501 40.999 C 39.501 40.923 39.546 40.855 39.616 40.826 C 39.686 40.797 39.767 40.813 39.82 40.866 C 39.874 40.92 39.89 41 39.861 41.07 C 39.831 41.14 39.763 41.185 39.687 41.185 C 39.584 41.185 39.501 41.102 39.501 40.999 Z" fill="rgb(119,164,229)"></path>
      <path d="M 39.662 38.673 L 39.713 38.673 L 39.713 40.999 L 39.662 40.999 Z" fill="rgb(119,164,229)"></path>
      <path d="M 39.617 40.936 L 40.851 39.968 L 40.946 40.088 L 39.711 41.056 Z" fill="rgb(119,164,229)"></path>
    </g></g>
</svg>